AndadaPro-ExtraBold.ufo
<glyph name="exclam" format="2">
  <advance width="333.625"/>
  <unicode hex="0021"/>
  <outline>
    <contour>
      <point x="200.1818181818182" y="223.97727272727272" type="line"/>
      <point x="215.9318181818182" y="238.72727272727272" type="line"/>
      <point x="212.9318181818182" y="316.75" type="line" smooth="yes"/>
      <point x="210.9318181818182" y="372.4318181818182"/>
      <point x="229.25" y="618.6818181818181"/>
      <point x="237.25" y="744.3636363636364" type="curve"/>
      <point x="209.5" y="771.1136363636364" type="line"/>
      <point x="103.25" y="762.3409090909091" type="line"/>
      <point x="121.0" y="294.75" type="line"/>
      <point x="120.0" y="228.75" type="line"/>
    </contour>
    <contour>
      <point x="166.4318181818182" y="-14.431818181818182" type="curve" smooth="yes"/>
      <point x="213.1818181818182" y="-14.431818181818182"/>
      <point x="238.5" y="17.0"/>
      <point x="238.5" y="62.86363636363636" type="curve" smooth="yes"/>
      <point x="238.5" y="111.38636363636364"/>
      <point x="211.4090909090909" y="140.9318181818182"/>
      <point x="166.4318181818182" y="140.9318181818182" type="curve" smooth="yes"/>
      <point x="119.68181818181819" y="140.9318181818182"/>
      <point x="94.25" y="108.72727272727272"/>
      <point x="94.25" y="62.86363636363636" type="curve" smooth="yes"/>
      <point x="94.25" y="16.65909090909091"/>
      <point x="119.79545454545455" y="-14.431818181818182"/>
    </contour>
  </outline>
</glyph>
<glyph name="quotedbl" format="2">
  <advance width="480.25"/>
  <unicode hex="0022"/>
  <outline>
    <contour>
      <point x="358.54545454545456" y="462.1136363636364" type="line"/>
      <point x="371.54545454545456" y="705.0" type="line"/>
      <point x="266.29545454545456" y="705.0" type="line"/>
      <point x="269.40909090909093" y="662.9772727272727"/>
      <point x="275.29545454545456" y="575.0"/>
      <point x="275.29545454545456" y="560.0" type="curve" smooth="yes"/>
      <point x="274.29545454545456" y="466.8863636363636" type="line"/>
    </contour>
    <contour>
      <point x="201.04545454545456" y="462.1136363636364" type="line"/>
      <point x="214.04545454545456" y="705.0" type="line"/>
      <point x="108.79545454545455" y="705.0" type="line"/>
      <point x="111.9090909090909" y="662.9772727272727"/>
      <point x="117.79545454545455" y="575.0"/>
      <point x="117.79545454545455" y="560.0" type="curve" smooth="yes"/>
      <point x="116.79545454545455" y="466.8863636363636" type="line"/>
    </contour>
  </outline>
</glyph>
<glyph name="numbersign" format="2">
  <advance width="659.625"/>
  <unicode hex="0023"/>
  <outline>
    <contour>
      <point x="407.09090909090907" y="-15.0" type="line"/>
      <point x="498.09090909090907" y="562.0" type="line"/>
      <point x="420.59090909090907" y="572.0" type="line"/>
      <point x="329.59090909090907" y="-5.0" type="line"/>
    </contour>
    <contour>
      <point x="72.3409090909091" y="141.25" type="line"/>
      <point x="567.3409090909091" y="141.25" type="line"/>
      <point x="567.3409090909091" y="229.75" type="line"/>
      <point x="72.3409090909091" y="224.75" type="line"/>
    </contour>
    <contour>
      <point x="235.0909090909091" y="-15.0" type="line"/>
      <point x="326.09090909090907" y="562.0" type="line"/>
      <point x="248.5909090909091" y="572.0" type="line"/>
      <point x="157.5909090909091" y="-5.0" type="line"/>
    </contour>
    <contour>
      <point x="92.3409090909091" y="328.25" type="line"/>
      <point x="587.3409090909091" y="333.25" type="line"/>
      <point x="587.3409090909091" y="416.75" type="line"/>
      <point x="92.3409090909091" y="416.75" type="line"/>
    </contour>
  </outline>
</glyph>
<glyph name="dollar" format="2">
  <advance width="598.0"/>
  <unicode hex="0024"/>
  <outline>
    <contour>
      <point x="290.6363636363636" y="-13.886363636363637" type="curve" smooth="yes"/>
      <point x="420.27272727272725" y="-13.886363636363637"/>
      <point x="522.4772727272727" y="60.84090909090909"/>
      <point x="522.4772727272727" y="184.27272727272728" type="curve" smooth="yes"/>
      <point x="522.4772727272727" y="390.59090909090907"/>
      <point x="237.29545454545456" y="370.72727272727275"/>
      <point x="237.29545454545456" y="490.22727272727275" type="curve" smooth="yes"/>
      <point x="237.29545454545456" y="534.8409090909091"/>
      <point x="272.77272727272725" y="562.5227272727273"/>
      <point x="326.8863636363636" y="562.5227272727273" type="curve" smooth="yes"/>
      <point x="374.8863636363636" y="562.5227272727273"/>
      <point x="432.5909090909091" y="529.9318181818181"/>
      <point x="463.0909090909091" y="514.6818181818181" type="curve"/>
      <point x="380.90909090909093" y="587.9090909090909" type="line"/>
      <point x="392.22727272727275" y="554.1590909090909"/>
      <point x="412.09090909090907" y="508.29545454545456"/>
      <point x="412.09090909090907" y="498.84090909090907" type="curve"/>
      <point x="414.75" y="442.8863636363636" type="line"/>
      <point x="484.59090909090907" y="439.6590909090909" type="line"/>
      <point x="496.70454545454544" y="614.6590909090909" type="line"/>
      <point x="435.9318181818182" y="633.0909090909091"/>
      <point x="362.1818181818182" y="647.0909090909091"/>
      <point x="298.75" y="647.0909090909091" type="curve" smooth="yes"/>
      <point x="176.11363636363637" y="647.0909090909091"/>
      <point x="86.02272727272727" y="578.3409090909091"/>
      <point x="86.02272727272727" y="467.90909090909093" type="curve" smooth="yes"/>
      <point x="86.02272727272727" y="252.75"/>
      <point x="371.75" y="281.04545454545456"/>
      <point x="371.75" y="149.22727272727272" type="curve" smooth="yes"/>
      <point x="371.75" y="98.61363636363636"/>
      <point x="329.1818181818182" y="74.79545454545455"/>
      <point x="279.34090909090907" y="74.79545454545455" type="curve" smooth="yes"/>
      <point x="216.5909090909091" y="74.79545454545455"/>
      <point x="168.5909090909091" y="106.75"/>
      <point x="128.61363636363637" y="124.4090909090909" type="curve"/>
      <point x="205.3409090909091" y="44.34090909090909" type="line"/>
      <point x="204.88636363636363" y="49.36363636363636"/>
      <point x="165.75" y="113.0"/>
      <point x="170.1818181818182" y="136.29545454545453" type="curve"/>
      <point x="171.29545454545453" y="199.79545454545456" type="line"/>
      <point x="94.22727272727273" y="203.9090909090909" type="line"/>
      <point x="80.22727272727273" y="29.454545454545453" type="line"/>
      <point x="118.6590909090909" y="11.227272727272727"/>
      <point x="201.75" y="-13.886363636363637"/>
    </contour>
    <contour>
      <point x="310.27272727272725" y="-154.0" type="line"/>
      <point x="317.27272727272725" y="15.0" type="line"/>
      <point x="254.77272727272728" y="15.0" type="line"/>
      <point x="247.77272727272728" y="-151.0" type="line"/>
    </contour>
    <contour>
      <point x="277.77272727272725" y="616.0" type="line"/>
      <point x="339.27272727272725" y="616.0" type="line"/>
      <point x="346.27272727272725" y="785.0" type="line"/>
      <point x="284.77272727272725" y="788.0" type="line"/>
    </contour>
  </outline>
</glyph>
<glyph name="ampersand" format="2">
  <advance width="853.25"/>
  <unicode hex="0026"/>
  <outline>
    <contour>
      <point x="582.2272727272727" y="0.0" type="line"/>
      <point x="766.3409090909091" y="0.0" type="line"/>
      <point x="771.6818181818181" y="67.18181818181819" type="line"/>
      <point x="717.1590909090909" y="71.52272727272728" type="line"/>
      <point x="645.0909090909091" y="127.5909090909091" type="line"/>
      <point x="505.77272727272725" y="249.1818181818182"/>
      <point x="402.79545454545456" y="339.8636363636364"/>
      <point x="342.25" y="409.72727272727275" type="curve" smooth="yes"/>
      <point x="316.8636363636364" y="438.8863636363636"/>
      <point x="299.6363636363636" y="476.1136363636364"/>
      <point x="299.6363636363636" y="512.3636363636364" type="curve" smooth="yes"/>
      <point x="299.6363636363636" y="552.5227272727273"/>
      <point x="324.02272727272725" y="582.4318181818181"/>
      <point x="370.9318181818182" y="582.4318181818181" type="curve" smooth="yes"/>
      <point x="409.9318181818182" y="582.4318181818181"/>
      <point x="451.47727272727275" y="567.9772727272727"/>
      <point x="492.25" y="552.5227272727273" type="curve"/>
      <point x="426.65909090909093" y="620.4545454545455" type="line"/>
      <point x="439.8636363636364" y="586.3636363636364"/>
      <point x="449.75" y="534.3863636363636"/>
      <point x="449.75" y="525.1590909090909" type="curve" smooth="yes"/>
      <point x="449.52272727272725" y="481.70454545454544" type="line"/>
      <point x="512.3863636363636" y="477.9318181818182" type="line"/>
      <point x="524.5" y="631.0" type="line"/>
      <point x="496.3863636363636" y="641.1136363636364"/>
      <point x="424.3636363636364" y="662.0"/>
      <point x="358.6363636363636" y="662.0" type="curve" smooth="yes"/>
      <point x="250.54545454545453" y="662.0"/>
      <point x="153.04545454545453" y="613.4772727272727"/>
      <point x="153.04545454545453" y="509.70454545454544" type="curve" smooth="yes"/>
      <point x="153.04545454545453" y="450.40909090909093"/>
      <point x="188.0" y="389.1818181818182"/>
      <point x="246.6818181818182" y="327.1818181818182" type="curve" smooth="yes"/>
      <point x="352.97727272727275" y="213.9090909090909"/>
      <point x="476.75" y="136.4318181818182"/>
      <point x="573.3409090909091" y="27.65909090909091" type="curve"/>
    </contour>
    <contour>
      <point x="327.97727272727275" y="-10.0" type="curve" smooth="yes"/>
      <point x="511.95454545454544" y="-10.0"/>
      <point x="634.9090909090909" y="94.61363636363636"/>
      <point x="648.8636363636364" y="267.8863636363636" type="curve" smooth="yes"/>
      <point x="654.1818181818181" y="332.3636363636364"/>
      <point x="653.75" y="327.59090909090907"/>
      <point x="655.6363636363636" y="340.79545454545456" type="curve"/>
      <point x="546.8409090909091" y="340.79545454545456" type="line"/>
      <point x="551.5" y="323.9318181818182"/>
      <point x="554.9545454545455" y="299.54545454545456"/>
      <point x="554.9545454545455" y="281.65909090909093" type="curve" smooth="yes"/>
      <point x="554.9545454545455" y="171.1590909090909"/>
      <point x="481.8636363636364" y="81.45454545454545"/>
      <point x="356.1136363636364" y="81.45454545454545" type="curve" smooth="yes"/>
      <point x="294.1590909090909" y="81.45454545454545"/>
      <point x="232.1818181818182" y="116.6590909090909"/>
      <point x="232.1818181818182" y="191.79545454545453" type="curve" smooth="yes"/>
      <point x="232.1818181818182" y="231.86363636363637"/>
      <point x="250.20454545454544" y="287.95454545454544"/>
      <point x="328.5909090909091" y="337.59090909090907" type="curve"/>
      <point x="295.3636363636364" y="406.29545454545456" type="line"/>
      <point x="166.27272727272728" y="353.8636363636364"/>
      <point x="88.9090909090909" y="288.09090909090907"/>
      <point x="88.9090909090909" y="177.70454545454547" type="curve" smooth="yes"/>
      <point x="88.9090909090909" y="48.5"/>
      <point x="194.3409090909091" y="-10.0"/>
    </contour>
    <contour>
      <point x="560.4772727272727" y="331.6818181818182" type="line"/>
      <point x="652.4090909090909" y="331.6818181818182" type="line"/>
      <point x="722.2272727272727" y="337.79545454545456" type="line"/>
      <point x="717.3409090909091" y="406.4318181818182" type="line"/>
      <point x="681.2272727272727" y="404.20454545454544"/>
      <point x="626.7272727272727" y="401.4318181818182"/>
      <point x="587.9545454545455" y="401.4318181818182" type="curve" smooth="yes"/>
      <point x="568.3409090909091" y="401.4318181818182"/>
      <point x="532.0" y="403.54545454545456"/>
      <point x="496.6590909090909" y="406.4318181818182" type="curve"/>
      <point x="491.6590909090909" y="343.6818181818182" type="line"/>
    </contour>
  </outline>
</glyph>
<glyph name="quotesingle" format="2">
  <advance width="322.75"/>
  <unicode hex="0027"/>
  <outline>
    <contour>
      <point x="201.04545454545456" y="462.1136363636364" type="line"/>
      <point x="214.04545454545456" y="705.0" type="line"/>
      <point x="108.79545454545455" y="705.0" type="line"/>
      <point x="111.9090909090909" y="662.9772727272727"/>
      <point x="117.79545454545455" y="575.0"/>
      <point x="117.79545454545455" y="560.0" type="curve" smooth="yes"/>
      <point x="116.79545454545455" y="466.8863636363636" type="line"/>
    </contour>
  </outline>
</glyph>
<glyph name="parenleft" format="2">
  <advance width="428.375"/>
  <unicode hex="0028"/>
  <outline>
    <contour>
      <point x="312.75" y="-103.11363636363636" type="curve"/>
      <point x="347.5" y="-74.36363636363636" type="line"/>
      <point x="263.27272727272725" y="40.70454545454545"/>
      <point x="224.47727272727272" y="201.79545454545453"/>
      <point x="224.47727272727272" y="358.0" type="curve" smooth="yes"/>
      <point x="224.47727272727272" y="516.9772727272727"/>
      <point x="265.04545454545456" y="679.6136363636364"/>
      <point x="347.5" y="790.3636363636364" type="curve"/>
      <point x="312.75" y="819.1136363636364" type="line"/>
      <point x="155.5" y="687.4545454545455"/>
      <point x="96.9090909090909" y="534.4545454545455"/>
      <point x="96.9090909090909" y="358.0" type="curve" smooth="yes"/>
      <point x="96.9090909090909" y="182.0"/>
      <point x="155.1590909090909" y="28.886363636363637"/>
    </contour>
  </outline>
</glyph>
<glyph name="parenright" format="2">
  <advance width="428.375"/>
  <unicode hex="0029"/>
  <outline>
    <contour>
      <point x="115.6590909090909" y="818.1136363636364" type="curve"/>
      <point x="80.9090909090909" y="789.3636363636364" type="line"/>
      <point x="165.13636363636363" y="674.2954545454545"/>
      <point x="203.9318181818182" y="513.2045454545455"/>
      <point x="203.9318181818182" y="357.0" type="curve" smooth="yes"/>
      <point x="203.9318181818182" y="198.02272727272728"/>
      <point x="163.36363636363637" y="35.38636363636364"/>
      <point x="80.9090909090909" y="-75.36363636363636" type="curve"/>
      <point x="115.6590909090909" y="-104.11363636363636" type="line"/>
      <point x="272.90909090909093" y="27.545454545454547"/>
      <point x="331.5" y="180.54545454545453"/>
      <point x="331.5" y="357.0" type="curve" smooth="yes"/>
      <point x="331.5" y="533.0"/>
      <point x="273.25" y="686.1136363636364"/>
    </contour>
  </outline>
</glyph>
<glyph name="asterisk" format="2">
  <advance width="489.125"/>
  <unicode hex="002A"/>
  <outline>
    <contour>
      <point x="168.20454545454547" y="428.1136363636364" type="line"/>
      <point x="273.8636363636364" y="576.5454545454545" type="line"/>
      <point x="223.3409090909091" y="615.2954545454545" type="line"/>
      <point x="100.9090909090909" y="478.8636363636364" type="line"/>
    </contour>
    <contour>
      <point x="249.77272727272728" y="553.9090909090909" type="line"/>
      <point x="267.20454545454544" y="613.9772727272727" type="line"/>
      <point x="96.88636363636364" y="682.0909090909091" type="line"/>
      <point x="72.45454545454545" y="600.1363636363636" type="line"/>
    </contour>
    <contour>
      <point x="322.70454545454544" y="425.1136363636364" type="line"/>
      <point x="387.1136363636364" y="479.75" type="line"/>
      <point x="266.6818181818182" y="614.2954545454545" type="line"/>
      <point x="218.1590909090909" y="572.5454545454545" type="line"/>
    </contour>
    <contour>
      <point x="211.36363636363637" y="575.9090909090909" type="line"/>
      <point x="275.4318181818182" y="578.7954545454545" type="line"/>
      <point x="283.20454545454544" y="761.0" type="line"/>
      <point x="198.36363636363637" y="756.1136363636364" type="line"/>
    </contour>
    <contour>
      <point x="241.36363636363637" y="554.9090909090909" type="line"/>
      <point x="418.6818181818182" y="602.1363636363636" type="line"/>
      <point x="389.3636363636364" y="682.0909090909091" type="line"/>
      <point x="221.04545454545453" y="614.9772727272727" type="line"/>
    </contour>
  </outline>
</glyph>
<glyph name="plus" format="2">
  <advance width="691.875"/>
  <unicode hex="002B"/>
  <outline>
    <contour>
      <point x="88.45454545454545" y="204.9318181818182" type="line"/>
      <point x="603.4545454545455" y="209.9318181818182" type="line"/>
      <point x="603.4545454545455" y="306.1818181818182" type="line"/>
      <point x="88.45454545454545" y="306.1818181818182" type="line"/>
    </contour>
    <contour>
      <point x="295.3863636363636" y="0.0" type="line"/>
      <point x="396.6363636363636" y="0.0" type="line"/>
      <point x="391.6363636363636" y="511.0" type="line"/>
      <point x="295.3863636363636" y="511.0" type="line"/>
    </contour>
  </outline>
</glyph>
<glyph name="comma" format="2">
  <advance width="334.625"/>
  <unicode hex="002C"/>
  <outline>
    <contour>
      <point x="93.9090909090909" y="-150.0" type="line"/>
      <point x="198.52272727272728" y="-129.0"/>
      <point x="247.61363636363637" y="-31.90909090909091"/>
      <point x="247.61363636363637" y="51.52272727272727" type="curve" smooth="yes"/>
      <point x="247.61363636363637" y="105.5"/>
      <point x="229.8409090909091" y="151.9318181818182"/>
      <point x="173.20454545454547" y="151.9318181818182" type="curve" smooth="yes"/>
      <point x="124.68181818181819" y="151.9318181818182"/>
      <point x="99.9090909090909" y="119.27272727272728"/>
      <point x="99.9090909090909" y="70.63636363636364" type="curve" smooth="yes"/>
      <point x="99.9090909090909" y="16.0"/>
      <point x="139.54545454545453" y="-30.636363636363637"/>
      <point x="221.6818181818182" y="0.9772727272727275" type="curve"/>
      <point x="164.0909090909091" y="29.386363636363637" type="line"/>
      <point x="177.0909090909091" y="-39.45454545454545"/>
      <point x="146.97727272727272" y="-89.3409090909091"/>
      <point x="82.13636363636364" y="-114.0" type="curve"/>
    </contour>
  </outline>
</glyph>
<glyph name="hyphen" format="2">
  <advance width="367.5"/>
  <unicode hex="002D"/>
  <outline>
    <contour>
      <point x="75.22727272727273" y="208.1590909090909" type="line"/>
      <point x="290.22727272727275" y="208.1590909090909" type="line"/>
      <point x="295.22727272727275" y="299.29545454545456" type="line"/>
      <point x="73.22727272727273" y="299.29545454545456" type="line"/>
    </contour>
  </outline>
</glyph>
<glyph name="slash" format="2">
  <advance width="425.875"/>
  <unicode hex="002F"/>
  <outline>
    <contour>
      <point x="104.70454545454545" y="-65.22727272727273" type="line"/>
      <point x="410.3863636363636" y="744.25" type="line"/>
      <point x="322.02272727272725" y="773.0" type="line"/>
      <point x="15.34090909090909" y="-36.47727272727273" type="line"/>
    </contour>
  </outline>
</glyph>
<glyph name="zero" format="2">
  <advance width="674.75"/>
  <unicode hex="0030"/>
  <outline>
    <contour>
      <point x="337.40909090909093" y="-10.0" type="curve" smooth="yes"/>
      <point x="522.5909090909091" y="-10.0"/>
      <point x="594.9090909090909" y="146.0"/>
      <point x="594.9090909090909" y="326.0" type="curve"/>
      <point x="594.9090909090909" y="506.0"/>
      <point x="522.5909090909091" y="662.0"/>
      <point x="337.40909090909093" y="662.0" type="curve" smooth="yes"/>
      <point x="152.11363636363637" y="662.0"/>
      <point x="79.9090909090909" y="506.0"/>
      <point x="79.9090909090909" y="326.0" type="curve"/>
      <point x="79.9090909090909" y="146.0"/>
      <point x="152.11363636363637" y="-10.0"/>
    </contour>
    <contour>
      <point x="337.40909090909093" y="71.93181818181819" type="curve" smooth="yes"/>
      <point x="252.63636363636363" y="71.93181818181819"/>
      <point x="235.72727272727272" y="208.52272727272728"/>
      <point x="235.72727272727272" y="326.0" type="curve"/>
      <point x="235.72727272727272" y="443.47727272727275"/>
      <point x="252.63636363636363" y="580.1818181818181"/>
      <point x="337.40909090909093" y="580.1818181818181" type="curve" smooth="yes"/>
      <point x="422.1818181818182" y="580.1818181818181"/>
      <point x="438.97727272727275" y="443.47727272727275"/>
      <point x="438.97727272727275" y="326.0" type="curve" smooth="yes"/>
      <point x="438.97727272727275" y="208.52272727272728"/>
      <point x="422.1818181818182" y="71.93181818181819"/>
    </contour>
  </outline>
</glyph>
<glyph name="one" format="2">
  <advance width="542.125"/>
  <unicode hex="0031"/>
  <outline>
    <contour>
      <point x="79.45454545454545" y="-5.0" type="line"/>
      <point x="122.79545454545455" y="-3.0"/>
      <point x="244.77272727272728" y="0.0"/>
      <point x="266.75" y="0.0" type="curve" smooth="yes"/>
      <point x="480.47727272727275" y="0.0" type="line"/>
      <point x="486.5909090909091" y="68.8409090909091" type="line"/>
      <point x="318.54545454545456" y="79.72727272727272" type="line"/>
      <point x="384.79545454545456" y="15.363636363636363" type="line"/>
      <point x="377.02272727272725" y="73.77272727272727"/>
      <point x="368.47727272727275" y="148.02272727272728"/>
      <point x="368.47727272727275" y="189.70454545454544" type="curve" smooth="yes"/>
      <point x="368.47727272727275" y="426.0" type="line" smooth="yes"/>
      <point x="368.47727272727275" y="463.0"/>
      <point x="373.3636363636364" y="581.0"/>
      <point x="376.3636363636364" y="660.0" type="curve"/>
      <point x="280.40909090909093" y="672.0" type="line"/>
      <point x="62.34090909090909" y="507.0" type="line"/>
      <point x="98.0909090909091" y="447.5" type="line"/>
      <point x="286.90909090909093" y="510.4318181818182" type="line"/>
      <point x="231.20454545454547" y="548.5909090909091" type="line"/>
      <point x="231.20454545454547" y="159.70454545454544" type="line" smooth="yes"/>
      <point x="231.20454545454547" y="132.29545454545453"/>
      <point x="220.54545454545453" y="63.77272727272727"/>
      <point x="212.0" y="15.363636363636363" type="curve"/>
      <point x="281.02272727272725" y="82.72727272727272" type="line"/>
      <point x="74.45454545454545" y="62.5" type="line"/>
    </contour>
  </outline>
</glyph>
<glyph name="two" format="2">
  <advance width="629.375"/>
  <unicode hex="0032"/>
  <outline>
    <contour>
      <point x="515.4545454545455" y="-3.0" type="line"/>
      <point x="544.0909090909091" y="17.0" type="line"/>
      <point x="552.2045454545455" y="203.63636363636363" type="line"/>
      <point x="477.15909090909093" y="209.4090909090909" type="line"/>
      <point x="470.3863636363636" y="171.1590909090909" type="line"/>
      <point x="459.72727272727275" y="135.86363636363637"/>
      <point x="448.84090909090907" y="100.68181818181819"/>
      <point x="436.29545454545456" y="65.38636363636364" type="curve"/>
      <point x="514.2045454545455" y="128.86363636363637" type="line"/>
      <point x="465.45454545454544" y="121.97727272727272"/>
      <point x="396.59090909090907" y="112.43181818181819"/>
      <point x="367.95454545454544" y="112.43181818181819" type="curve" smooth="yes"/>
      <point x="179.8409090909091" y="112.43181818181819" type="line"/>
      <point x="180.95454545454544" y="63.04545454545455" type="line"/>
      <point x="453.4090909090909" y="289.45454545454544"/>
      <point x="520.2045454545455" y="378.65909090909093"/>
      <point x="520.2045454545455" y="491.3636363636364" type="curve" smooth="yes"/>
      <point x="520.2045454545455" y="599.4545454545455"/>
      <point x="439.0" y="662.0"/>
      <point x="293.95454545454544" y="662.0" type="curve" smooth="yes"/>
      <point x="223.95454545454547" y="662.0"/>
      <point x="161.11363636363637" y="651.2272727272727"/>
      <point x="94.0" y="626.8863636363636" type="curve"/>
      <point x="101.79545454545455" y="457.1818181818182" type="line"/>
      <point x="177.72727272727272" y="461.84090909090907" type="line"/>
      <point x="177.5" y="505.1818181818182" type="line" smooth="yes"/>
      <point x="177.38636363636363" y="517.9545454545455"/>
      <point x="190.1590909090909" y="571.0454545454545"/>
      <point x="198.04545454545456" y="603.4772727272727" type="curve"/>
      <point x="147.6590909090909" y="519.1363636363636" type="line"/>
      <point x="190.11363636363637" y="552.9090909090909"/>
      <point x="231.86363636363637" y="569.2272727272727"/>
      <point x="274.4318181818182" y="569.2272727272727" type="curve" smooth="yes"/>
      <point x="330.1363636363636" y="569.2272727272727"/>
      <point x="367.5" y="536.8409090909091"/>
      <point x="367.5" y="478.1363636363636" type="curve" smooth="yes"/>
      <point x="367.5" y="388.47727272727275"/>
      <point x="309.02272727272725" y="314.45454545454544"/>
      <point x="71.22727272727273" y="95.70454545454545" type="curve"/>
      <point x="85.22727272727273" y="0.0" type="line"/>
      <point x="404.97727272727275" y="0.0" type="line"/>
    </contour>
  </outline>
</glyph>
<glyph name="three" format="2">
  <advance width="565.25"/>
  <unicode hex="0033"/>
  <outline>
    <contour>
      <point x="84.72727272727272" y="-105.0" type="line"/>
      <point x="319.70454545454544" y="-86.0909090909091"/>
      <point x="492.4318181818182" y="32.0"/>
      <point x="492.4318181818182" y="173.20454545454547" type="curve" smooth="yes"/>
      <point x="492.4318181818182" y="260.65909090909093"/>
      <point x="410.9318181818182" y="337.6136363636364"/>
      <point x="308.3409090909091" y="336.79545454545456" type="curve"/>
      <point x="306.1363636363636" y="313.59090909090907" type="line"/>
      <point x="407.0" y="346.1363636363636"/>
      <point x="464.4318181818182" y="411.90909090909093"/>
      <point x="464.4318181818182" y="488.47727272727275" type="curve" smooth="yes"/>
      <point x="464.4318181818182" y="602.3409090909091"/>
      <point x="387.3409090909091" y="662.0"/>
      <point x="242.61363636363637" y="662.0" type="curve" smooth="yes"/>
      <point x="182.75" y="662.0"/>
      <point x="122.9090909090909" y="652.2272727272727"/>
      <point x="65.3409090909091" y="633.0" type="curve"/>
      <point x="79.22727272727273" y="467.84090909090907" type="line"/>
      <point x="155.27272727272728" y="472.6136363636364" type="line"/>
      <point x="155.04545454545456" y="524.5909090909091" type="line" smooth="yes"/>
      <point x="154.9318181818182" y="536.5909090909091"/>
      <point x="168.5909090909091" y="590.3409090909091"/>
      <point x="176.47727272727272" y="623.7727272727273" type="curve"/>
      <point x="135.72727272727272" y="551.5" type="line"/>
      <point x="156.3409090909091" y="566.5454545454545"/>
      <point x="197.38636363636363" y="578.2045454545455"/>
      <point x="236.95454545454547" y="578.2045454545455" type="curve" smooth="yes"/>
      <point x="290.22727272727275" y="578.2045454545455"/>
      <point x="319.59090909090907" y="548.2727272727273"/>
      <point x="319.59090909090907" y="491.97727272727275" type="curve" smooth="yes"/>
      <point x="319.59090909090907" y="409.52272727272725"/>
      <point x="262.79545454545456" y="356.09090909090907"/>
      <point x="153.72727272727272" y="338.4318181818182" type="curve"/>
      <point x="167.72727272727272" y="268.5" type="line"/>
      <point x="182.5" y="270.3863636363636"/>
      <point x="210.5" y="272.3863636363636"/>
      <point x="230.63636363636363" y="272.3863636363636" type="curve" smooth="yes"/>
      <point x="300.34090909090907" y="272.3863636363636"/>
      <point x="336.95454545454544" y="234.79545454545453"/>
      <point x="336.95454545454544" y="163.3409090909091" type="curve" smooth="yes"/>
      <point x="336.95454545454544" y="65.3409090909091"/>
      <point x="228.13636363636363" y="-12.363636363636363"/>
      <point x="63.29545454545455" y="-31.84090909090909" type="curve"/>
    </contour>
  </outline>
</glyph>
<glyph name="four" format="2">
  <advance width="639.0"/>
  <unicode hex="0034"/>
  <outline>
    <contour>
      <point x="123.04545454545455" y="184.38636363636363" type="line"/>
      <point x="354.84090909090907" y="184.38636363636363" type="line"/>
      <point x="354.84090909090907" y="270.95454545454544" type="line"/>
      <point x="132.86363636363637" y="270.5" type="line"/>
      <point x="157.61363636363637" y="222.22727272727272" type="line"/>
      <point x="382.1136363636364" y="530.4545454545455" type="line" smooth="yes"/>
      <point x="393.1136363636364" y="547.4545454545455"/>
      <point x="457.59090909090907" y="613.5"/>
      <point x="503.6136363636364" y="659.0909090909091" type="curve"/>
      <point x="407.47727272727275" y="739.0" type="line"/>
      <point x="52.79545454545455" y="271.5" type="line"/>
    </contour>
    <contour>
      <point x="229.52272727272728" y="-5.0" type="line"/>
      <point x="271.97727272727275" y="-3.0"/>
      <point x="326.6818181818182" y="0.0"/>
      <point x="357.8863636363636" y="0.0" type="curve" smooth="yes"/>
      <point x="561.4318181818181" y="0.0" type="line"/>
      <point x="566.6590909090909" y="68.8409090909091" type="line"/>
      <point x="417.8636363636364" y="78.8409090909091" type="line"/>
      <point x="484.1136363636364" y="15.363636363636363" type="line"/>
      <point x="479.0" y="64.13636363636364"/>
      <point x="471.3409090909091" y="122.13636363636364"/>
      <point x="471.3409090909091" y="160.9090909090909" type="curve" smooth="yes"/>
      <point x="471.3409090909091" y="419.02272727272725" type="line"/>
      <point x="339.1818181818182" y="373.6363636363636" type="line"/>
      <point x="339.1818181818182" y="158.04545454545456" type="line" smooth="yes"/>
      <point x="339.1818181818182" y="120.52272727272728"/>
      <point x="330.95454545454544" y="62.88636363636363"/>
      <point x="325.6136363636364" y="15.363636363636363" type="curve"/>
      <point x="392.4318181818182" y="81.8409090909091" type="line"/>
      <point x="224.52272727272728" y="62.5" type="line"/>
    </contour>
    <contour>
      <point x="455.45454545454544" y="184.38636363636363" type="line"/>
      <point x="565.1136363636364" y="184.38636363636363" type="line"/>
      <point x="565.1136363636364" y="284.6136363636364" type="line"/>
      <point x="455.45454545454544" y="278.5" type="line"/>
    </contour>
  </outline>
</glyph>
<glyph name="five" format="2">
  <advance width="557.25"/>
  <unicode hex="0035"/>
  <outline>
    <contour>
      <point x="98.0909090909091" y="-105.0" type="line"/>
      <point x="345.6363636363636" y="-68.1590909090909"/>
      <point x="480.9318181818182" y="28.5"/>
      <point x="480.9318181818182" y="185.63636363636363" type="curve" smooth="yes"/>
      <point x="480.9318181818182" y="306.97727272727275"/>
      <point x="400.79545454545456" y="380.6136363636364"/>
      <point x="255.27272727272728" y="380.6136363636364" type="curve" smooth="yes"/>
      <point x="225.79545454545456" y="380.6136363636364"/>
      <point x="185.47727272727272" y="374.5"/>
      <point x="144.63636363636363" y="364.84090909090907" type="curve"/>
      <point x="187.11363636363637" y="317.25" type="line"/>
      <point x="200.11363636363637" y="527.3636363636364" type="line"/>
      <point x="290.3636363636364" y="527.3636363636364" type="line"/>
      <point x="454.6136363636364" y="542.5" type="line"/>
      <point x="448.6136363636364" y="662.0" type="line"/>
      <point x="205.61363636363637" y="652.0" type="line"/>
      <point x="120.11363636363636" y="652.0" type="line"/>
      <point x="101.11363636363636" y="634.0" type="line"/>
      <point x="77.13636363636364" y="318.1818181818182" type="line"/>
      <point x="122.88636363636364" y="268.27272727272725" type="line"/>
      <point x="161.3409090909091" y="279.15909090909093"/>
      <point x="190.45454545454547" y="282.15909090909093"/>
      <point x="212.79545454545453" y="282.15909090909093" type="curve" smooth="yes"/>
      <point x="295.3863636363636" y="282.15909090909093"/>
      <point x="332.54545454545456" y="238.70454545454547"/>
      <point x="332.54545454545456" y="164.22727272727272" type="curve" smooth="yes"/>
      <point x="332.54545454545456" y="61.47727272727273"/>
      <point x="251.61363636363637" y="4.227272727272727"/>
      <point x="76.6590909090909" y="-33.61363636363636" type="curve"/>
    </contour>
  </outline>
</glyph>
<glyph name="six" format="2">
  <advance width="630.625"/>
  <unicode hex="0036"/>
  <outline>
    <contour>
      <point x="324.29545454545456" y="-11.0" type="curve" smooth="yes"/>
      <point x="455.04545454545456" y="-11.0"/>
      <point x="561.9090909090909" y="76.22727272727273"/>
      <point x="561.9090909090909" y="206.97727272727272" type="curve" smooth="yes"/>
      <point x="561.9090909090909" y="332.54545454545456"/>
      <point x="487.22727272727275" y="411.75"/>
      <point x="361.77272727272725" y="411.75" type="curve" smooth="yes"/>
      <point x="335.6590909090909" y="411.75"/>
      <point x="308.6590909090909" y="408.1818181818182"/>
      <point x="282.6590909090909" y="400.95454545454544" type="curve"/>
      <point x="288.6590909090909" y="332.02272727272725" type="line"/>
      <point x="301.02272727272725" y="334.1363636363636"/>
      <point x="314.15909090909093" y="335.25"/>
      <point x="326.52272727272725" y="335.25" type="curve" smooth="yes"/>
      <point x="389.1363636363636" y="335.25"/>
      <point x="409.97727272727275" y="269.59090909090907"/>
      <point x="409.97727272727275" y="206.97727272727272" type="curve" smooth="yes"/>
      <point x="409.97727272727275" y="142.70454545454544"/>
      <point x="387.6818181818182" y="76.68181818181819"/>
      <point x="323.40909090909093" y="76.68181818181819" type="curve" smooth="yes"/>
      <point x="247.45454545454544" y="76.68181818181819"/>
      <point x="225.72727272727272" y="170.1590909090909"/>
      <point x="225.72727272727272" y="246.0" type="curve" smooth="yes"/>
      <point x="225.72727272727272" y="411.79545454545456"/>
      <point x="305.8409090909091" y="608.5909090909091"/>
      <point x="537.2727272727273" y="682.9318181818181" type="curve"/>
      <point x="521.7272727272727" y="747.0" type="line"/>
      <point x="221.54545454545453" y="693.8863636363636"/>
      <point x="74.9090909090909" y="457.0"/>
      <point x="74.9090909090909" y="246.0" type="curve" smooth="yes"/>
      <point x="74.9090909090909" y="91.68181818181819"/>
      <point x="169.86363636363637" y="-11.0"/>
    </contour>
  </outline>
</glyph>
<glyph name="seven" format="2">
  <advance width="604.5"/>
  <unicode hex="0037"/>
  <outline>
    <contour>
      <point x="232.61363636363637" y="-105.0" type="line"/>
      <point x="544.8636363636364" y="586.75" type="line"/>
      <point x="528.8636363636364" y="652.0" type="line"/>
      <point x="217.22727272727272" y="652.0" type="line" smooth="yes"/>
      <point x="200.11363636363637" y="652.0"/>
      <point x="139.0" y="657.0"/>
      <point x="97.0" y="661.0" type="curve"/>
      <point x="78.88636363636364" y="641.0" type="line"/>
      <point x="68.11363636363636" y="438.72727272727275" type="line"/>
      <point x="144.1590909090909" y="435.6136363636364" type="line"/>
      <point x="151.70454545454544" y="481.29545454545456" type="line" smooth="yes"/>
      <point x="152.70454545454544" y="489.4090909090909"/>
      <point x="176.02272727272728" y="546.3409090909091"/>
      <point x="190.45454545454544" y="578.9772727272727" type="curve"/>
      <point x="107.0" y="517.5" type="line"/>
      <point x="146.11363636363637" y="521.5"/>
      <point x="204.3409090909091" y="527.3863636363636"/>
      <point x="226.22727272727272" y="527.3863636363636" type="curve" smooth="yes"/>
      <point x="440.75" y="527.3863636363636" type="line"/>
      <point x="398.02272727272725" y="584.2045454545455" type="line"/>
      <point x="379.3636363636364" y="517.6590909090909"/>
      <point x="349.15909090909093" y="408.9090909090909"/>
      <point x="337.15909090909093" y="384.3409090909091" type="curve" smooth="yes"/>
      <point x="113.52272727272728" y="-64.27272727272728" type="line"/>
    </contour>
  </outline>
</glyph>
<glyph name="eight" format="2">
  <advance width="624.375"/>
  <unicode hex="0038"/>
  <outline>
    <contour>
      <point x="311.29545454545456" y="-10.0" type="curve" smooth="yes"/>
      <point x="430.95454545454544" y="-10.0"/>
      <point x="549.6818181818181" y="44.34090909090909"/>
      <point x="549.6818181818181" y="163.77272727272728" type="curve" smooth="yes"/>
      <point x="549.6818181818181" y="280.97727272727275"/>
      <point x="454.90909090909093" y="329.8636363636364"/>
      <point x="368.79545454545456" y="378.40909090909093" type="curve" smooth="yes"/>
      <point x="297.77272727272725" y="418.40909090909093"/>
      <point x="232.63636363636363" y="451.8636363636364"/>
      <point x="232.63636363636363" y="521.2272727272727" type="curve" smooth="yes"/>
      <point x="232.63636363636363" y="567.3863636363636"/>
      <point x="265.47727272727275" y="604.4318181818181"/>
      <point x="312.1818181818182" y="604.4318181818181" type="curve" smooth="yes"/>
      <point x="362.0" y="604.4318181818181"/>
      <point x="390.72727272727275" y="567.6136363636364"/>
      <point x="390.72727272727275" y="518.1136363636364" type="curve" smooth="yes"/>
      <point x="390.72727272727275" y="440.15909090909093"/>
      <point x="319.9318181818182" y="372.29545454545456"/>
      <point x="264.20454545454544" y="340.02272727272725" type="curve"/>
      <point x="351.54545454545456" y="308.02272727272725" type="line"/>
      <point x="470.25" y="369.95454545454544"/>
      <point x="527.6818181818181" y="445.84090909090907"/>
      <point x="527.6818181818181" y="519.0" type="curve" smooth="yes"/>
      <point x="527.6818181818181" y="625.7727272727273"/>
      <point x="418.5" y="682.0"/>
      <point x="312.1818181818182" y="682.0" type="curve" smooth="yes"/>
      <point x="205.52272727272728" y="682.0"/>
      <point x="95.79545454545455" y="625.6590909090909"/>
      <point x="95.79545454545455" y="521.8863636363636" type="curve" smooth="yes"/>
      <point x="95.79545454545455" y="396.47727272727275"/>
      <point x="190.3409090909091" y="346.04545454545456"/>
      <point x="275.6818181818182" y="301.04545454545456" type="curve" smooth="yes"/>
      <point x="345.47727272727275" y="263.70454545454544"/>
      <point x="408.72727272727275" y="230.25"/>
      <point x="408.72727272727275" y="161.77272727272728" type="curve" smooth="yes"/>
      <point x="408.72727272727275" y="101.8409090909091"/>
      <point x="370.77272727272725" y="67.68181818181819"/>
      <point x="312.1818181818182" y="67.68181818181819" type="curve" smooth="yes"/>
      <point x="252.13636363636363" y="67.68181818181819"/>
      <point x="213.75" y="105.38636363636364"/>
      <point x="213.75" y="164.88636363636363" type="curve" smooth="yes"/>
      <point x="213.75" y="225.72727272727272"/>
      <point x="259.40909090909093" y="287.6363636363636"/>
      <point x="375.1590909090909" y="342.79545454545456" type="curve"/>
      <point x="288.02272727272725" y="389.97727272727275" type="line"/>
      <point x="215.0909090909091" y="352.20454545454544"/>
      <point x="73.79545454545455" y="282.75"/>
      <point x="73.79545454545455" y="164.0" type="curve" smooth="yes"/>
      <point x="73.79545454545455" y="45.11363636363637"/>
      <point x="190.86363636363637" y="-10.0"/>
    </contour>
  </outline>
</glyph>
<glyph name="nine" format="2">
  <advance width="629.0"/>
  <unicode hex="0039"/>
  <outline>
    <contour>
      <point x="113.20454545454545" y="-105.22727272727273" type="line"/>
      <point x="414.29545454545456" y="-51.09090909090909"/>
      <point x="554.0227272727273" y="192.86363636363637"/>
      <point x="554.0227272727273" y="404.54545454545456" type="curve" smooth="yes"/>
      <point x="554.0227272727273" y="554.7727272727273"/>
      <point x="465.9318181818182" y="662.0"/>
      <point x="304.29545454545456" y="662.0" type="curve" smooth="yes"/>
      <point x="172.4318181818182" y="662.0"/>
      <point x="66.68181818181819" y="566.0227272727273"/>
      <point x="66.68181818181819" y="443.79545454545456" type="curve" smooth="yes"/>
      <point x="66.68181818181819" y="314.59090909090907"/>
      <point x="147.1590909090909" y="239.25"/>
      <point x="276.25" y="239.25" type="curve" smooth="yes"/>
      <point x="307.02272727272725" y="239.25"/>
      <point x="330.59090909090907" y="244.36363636363637"/>
      <point x="346.3863636363636" y="249.9318181818182" type="curve"/>
      <point x="340.27272727272725" y="318.75" type="line"/>
      <point x="329.79545454545456" y="317.52272727272725"/>
      <point x="317.77272727272725" y="315.75"/>
      <point x="302.75" y="315.75" type="curve" smooth="yes"/>
      <point x="251.3409090909091" y="315.75"/>
      <point x="218.72727272727272" y="373.1136363636364"/>
      <point x="218.72727272727272" y="443.79545454545456" type="curve" smooth="yes"/>
      <point x="218.72727272727272" y="508.29545454545456"/>
      <point x="240.45454545454544" y="574.4318181818181"/>
      <point x="304.84090909090907" y="574.4318181818181" type="curve" smooth="yes"/>
      <point x="373.70454545454544" y="574.4318181818181"/>
      <point x="402.6363636363636" y="491.02272727272725"/>
      <point x="402.6363636363636" y="404.54545454545456" type="curve" smooth="yes"/>
      <point x="402.6363636363636" y="238.75"/>
      <point x="343.27272727272725" y="34.20454545454545"/>
      <point x="92.22727272727273" y="-33.95454545454545" type="curve"/>
    </contour>
  </outline>
</glyph>
<glyph name="colon" format="2">
  <advance width="309.0"/>
  <unicode hex="003A"/>
  <outline>
    <contour>
      <point x="154.52272727272728" y="329.9318181818182" type="curve" smooth="yes"/>
      <point x="201.27272727272728" y="329.9318181818182"/>
      <point x="226.5909090909091" y="361.1363636363636"/>
      <point x="226.5909090909091" y="407.0" type="curve" smooth="yes"/>
      <point x="226.5909090909091" y="455.8636363636364"/>
      <point x="199.38636363636363" y="485.1818181818182"/>
      <point x="154.52272727272728" y="485.1818181818182" type="curve" smooth="yes"/>
      <point x="107.77272727272727" y="485.1818181818182"/>
      <point x="82.3409090909091" y="452.8636363636364"/>
      <point x="82.3409090909091" y="407.0" type="curve" smooth="yes"/>
      <point x="82.3409090909091" y="361.1363636363636"/>
      <point x="107.77272727272727" y="329.9318181818182"/>
    </contour>
    <contour>
      <point x="154.52272727272728" y="-14.431818181818182" type="curve" smooth="yes"/>
      <point x="201.27272727272728" y="-14.431818181818182"/>
      <point x="226.5909090909091" y="16.886363636363637"/>
      <point x="226.5909090909091" y="62.75" type="curve" smooth="yes"/>
      <point x="226.5909090909091" y="111.61363636363636"/>
      <point x="199.38636363636363" y="140.9318181818182"/>
      <point x="154.52272727272728" y="140.9318181818182" type="curve" smooth="yes"/>
      <point x="107.77272727272727" y="140.9318181818182"/>
      <point x="82.3409090909091" y="108.61363636363636"/>
      <point x="82.3409090909091" y="62.75" type="curve" smooth="yes"/>
      <point x="82.3409090909091" y="16.886363636363637"/>
      <point x="107.77272727272727" y="-14.431818181818182"/>
    </contour>
  </outline>
</glyph>
<glyph name="semicolon" format="2">
  <advance width="319.625"/>
  <unicode hex="003B"/>
  <outline>
    <contour>
      <point x="85.3409090909091" y="-151.0" type="line"/>
      <point x="189.95454545454547" y="-130.0"/>
      <point x="239.1590909090909" y="-32.90909090909091"/>
      <point x="239.1590909090909" y="50.52272727272727" type="curve" smooth="yes"/>
      <point x="239.1590909090909" y="104.5"/>
      <point x="221.38636363636363" y="150.9318181818182"/>
      <point x="164.75" y="150.9318181818182" type="curve" smooth="yes"/>
      <point x="116.11363636363636" y="150.9318181818182"/>
      <point x="91.3409090909091" y="118.27272727272728"/>
      <point x="91.3409090909091" y="69.63636363636364" type="curve" smooth="yes"/>
      <point x="91.3409090909091" y="15.0"/>
      <point x="130.97727272727272" y="-31.636363636363637"/>
      <point x="213.11363636363637" y="-0.022727272727272485" type="curve"/>
      <point x="155.63636363636363" y="28.386363636363637" type="line"/>
      <point x="168.63636363636363" y="-40.45454545454545"/>
      <point x="138.52272727272728" y="-90.3409090909091"/>
      <point x="73.68181818181819" y="-115.0" type="curve"/>
    </contour>
    <contour>
      <point x="163.75" y="321.1818181818182" type="curve" smooth="yes"/>
      <point x="210.5" y="321.1818181818182"/>
      <point x="235.9318181818182" y="352.3863636363636"/>
      <point x="235.9318181818182" y="398.25" type="curve" smooth="yes"/>
      <point x="235.9318181818182" y="447.1136363636364"/>
      <point x="208.61363636363637" y="476.4318181818182"/>
      <point x="163.75" y="476.4318181818182" type="curve" smooth="yes"/>
      <point x="117.0" y="476.4318181818182"/>
      <point x="91.68181818181819" y="444.1136363636364"/>
      <point x="91.68181818181819" y="398.25" type="curve" smooth="yes"/>
      <point x="91.68181818181819" y="352.3863636363636"/>
      <point x="117.0" y="321.1818181818182"/>
    </contour>
  </outline>
</glyph>
<glyph name="less" format="2">
  <advance width="523.125"/>
  <unicode hex="003C"/>
  <outline>
    <contour>
      <point x="372.9318181818182" y="-15.0" type="line"/>
      <point x="436.34090909090907" y="57.27272727272727" type="line"/>
      <point x="171.8409090909091" y="288.5" type="line"/>
      <point x="171.8409090909091" y="209.27272727272728" type="line"/>
      <point x="436.22727272727275" y="440.72727272727275" type="line"/>
      <point x="372.70454545454544" y="513.0" type="line"/>
      <point x="76.02272727272727" y="248.77272727272728" type="line"/>
    </contour>
  </outline>
</glyph>
<glyph name="equal" format="2">
  <advance width="718.125"/>
  <unicode hex="003D"/>
  <outline>
    <contour>
      <point x="132.0" y="290.3863636363636" type="line"/>
      <point x="587.0" y="295.3863636363636" type="line"/>
      <point x="587.0" y="391.95454545454544" type="line"/>
      <point x="132.0" y="391.95454545454544" type="line"/>
    </contour>
    <contour>
      <point x="132.0" y="100.61363636363636" type="line"/>
      <point x="587.0" y="105.04545454545455" type="line"/>
      <point x="587.0" y="202.29545454545453" type="line"/>
      <point x="132.0" y="201.61363636363637" type="line"/>
    </contour>
  </outline>
</glyph>
<glyph name="greater" format="2">
  <advance width="523.125"/>
  <unicode hex="003E"/>
  <outline>
    <contour>
      <point x="150.20454545454547" y="-15.886363636363637" type="line"/>
      <point x="447.1136363636364" y="247.88636363636363" type="line"/>
      <point x="150.4318181818182" y="512.1136363636364" type="line"/>
      <point x="86.9090909090909" y="439.84090909090907" type="line"/>
      <point x="351.29545454545456" y="208.38636363636363" type="line"/>
      <point x="351.29545454545456" y="287.6136363636364" type="line"/>
      <point x="86.79545454545455" y="56.38636363636364" type="line"/>
    </contour>
  </outline>
</glyph>
<glyph name="question" format="2">
  <advance width="507.5"/>
  <unicode hex="003F"/>
  <outline>
    <contour>
      <point x="209.61363636363637" y="223.97727272727272" type="line"/>
      <point x="225.36363636363637" y="238.72727272727272" type="line"/>
      <point x="220.25" y="419.3409090909091" type="line"/>
      <point x="174.97727272727272" y="361.6363636363636" type="line"/>
      <point x="330.3636363636364" y="345.97727272727275"/>
      <point x="443.72727272727275" y="420.27272727272725"/>
      <point x="443.72727272727275" y="565.1136363636364" type="curve" smooth="yes"/>
      <point x="443.72727272727275" y="698.8636363636364"/>
      <point x="356.29545454545456" y="767.0"/>
      <point x="229.52272727272728" y="767.0" type="curve" smooth="yes"/>
      <point x="185.86363636363637" y="767.0"/>
      <point x="137.4318181818182" y="759.0"/>
      <point x="86.6590909090909" y="743.1136363636364" type="curve"/>
      <point x="94.88636363636364" y="588.25" type="line"/>
      <point x="162.52272727272728" y="592.6818181818181" type="line"/>
      <point x="160.52272727272728" y="628.6818181818181" type="line" smooth="yes"/>
      <point x="159.52272727272728" y="645.9090909090909"/>
      <point x="170.29545454545453" y="699.5454545454545"/>
      <point x="175.95454545454547" y="738.4090909090909" type="curve"/>
      <point x="95.02272727272727" y="669.5" type="line"/>
      <point x="131.25" y="685.3863636363636"/>
      <point x="166.13636363636363" y="693.3863636363636"/>
      <point x="196.25" y="693.3863636363636" type="curve" smooth="yes"/>
      <point x="267.52272727272725" y="693.3863636363636"/>
      <point x="314.72727272727275" y="648.8863636363636"/>
      <point x="314.72727272727275" y="561.0" type="curve" smooth="yes"/>
      <point x="314.72727272727275" y="483.8636363636364"/>
      <point x="272.84090909090907" y="425.72727272727275"/>
      <point x="198.88636363636363" y="425.72727272727275" type="curve" smooth="yes"/>
      <point x="186.0" y="425.72727272727275"/>
      <point x="157.6818181818182" y="426.84090909090907"/>
      <point x="140.9090909090909" y="428.84090909090907" type="curve"/>
      <point x="110.47727272727272" y="396.09090909090907" type="line"/>
      <point x="110.47727272727272" y="227.86363636363637" type="line"/>
    </contour>
    <contour>
      <point x="160.86363636363637" y="-14.431818181818182" type="curve" smooth="yes"/>
      <point x="207.61363636363637" y="-14.431818181818182"/>
      <point x="233.04545454545456" y="17.0"/>
      <point x="233.04545454545456" y="62.86363636363636" type="curve" smooth="yes"/>
      <point x="233.04545454545456" y="111.38636363636364"/>
      <point x="205.8409090909091" y="140.9318181818182"/>
      <point x="160.86363636363637" y="140.9318181818182" type="curve" smooth="yes"/>
      <point x="114.11363636363636" y="140.9318181818182"/>
      <point x="88.79545454545455" y="108.72727272727272"/>
      <point x="88.79545454545455" y="62.86363636363636" type="curve" smooth="yes"/>
      <point x="88.79545454545455" y="16.65909090909091"/>
      <point x="114.22727272727273" y="-14.431818181818182"/>
    </contour>
  </outline>
</glyph>
<glyph name="at" format="2">
  <advance width="1071.375"/>
  <unicode hex="0040"/>
  <outline>
    <contour>
      <point x="549.1590909090909" y="-213.0" type="curve" smooth="yes"/>
      <point x="590.7045454545455" y="-213.0"/>
      <point x="691.4772727272727" y="-164.13636363636363"/>
      <point x="762.0227272727273" y="-128.9318181818182" type="curve"/>
      <point x="746.0227272727273" y="-91.72727272727272" type="line"/>
      <point x="680.3636363636364" y="-108.61363636363636"/>
      <point x="585.0227272727273" y="-133.5"/>
      <point x="549.1590909090909" y="-133.5" type="curve" smooth="yes"/>
      <point x="306.70454545454544" y="-133.5"/>
      <point x="213.27272727272728" y="21.522727272727273"/>
      <point x="213.27272727272728" y="232.0" type="curve" smooth="yes"/>
      <point x="213.27272727272728" y="361.54545454545456"/>
      <point x="261.70454545454544" y="600.5"/>
      <point x="544.1590909090909" y="600.5" type="curve" smooth="yes"/>
      <point x="748.3863636363636" y="600.5"/>
      <point x="871.5" y="472.47727272727275"/>
      <point x="871.5" y="287.0" type="curve" smooth="yes"/>
      <point x="871.5" y="199.86363636363637"/>
      <point x="840.1590909090909" y="84.5"/>
      <point x="755.6818181818181" y="63.5" type="curve"/>
      <point x="700.1363636363636" y="0.0" type="line"/>
      <point x="882.4318181818181" y="14.0"/>
      <point x="982.2954545454545" y="161.63636363636363"/>
      <point x="982.2954545454545" y="287.0" type="curve" smooth="yes"/>
      <point x="982.2954545454545" y="527.0"/>
      <point x="809.7727272727273" y="667.0"/>
      <point x="544.1590909090909" y="667.0" type="curve" smooth="yes"/>
      <point x="216.88636363636363" y="667.0"/>
      <point x="96.02272727272727" y="447.0"/>
      <point x="96.02272727272727" y="232.0" type="curve" smooth="yes"/>
      <point x="96.02272727272727" y="25.0"/>
      <point x="192.11363636363637" y="-213.0"/>
    </contour>
    <contour>
      <point x="483.0" y="-10.0" type="curve" smooth="yes"/>
      <point x="561.2045454545455" y="-10.0"/>
      <point x="613.7272727272727" y="31.022727272727273"/>
      <point x="643.0227272727273" y="116.5" type="curve"/>
      <point x="616.7272727272727" y="132.5" type="line"/>
      <point x="632.4090909090909" y="0.0" type="line"/>
      <point x="700.1363636363636" y="0.0" type="line"/>
      <point x="760.3409090909091" y="37.43181818181818" type="line"/>
      <point x="755.3409090909091" y="67.75"/>
      <point x="745.3409090909091" y="122.61363636363636"/>
      <point x="745.3409090909091" y="189.70454545454544" type="curve" smooth="yes"/>
      <point x="745.3409090909091" y="319.02272727272725" type="line" smooth="yes"/>
      <point x="745.3409090909091" y="437.90909090909093"/>
      <point x="672.2045454545455" y="503.0"/>
      <point x="541.9090909090909" y="503.0" type="curve" smooth="yes"/>
      <point x="495.8636363636364" y="503.0"/>
      <point x="427.8863636363636" y="491.45454545454544"/>
      <point x="367.8863636363636" y="476.34090909090907" type="curve"/>
      <point x="382.4318181818182" y="315.8636363636364" type="line"/>
      <point x="455.3863636363636" y="318.8636363636364" type="line"/>
      <point x="454.3863636363636" y="357.20454545454544" type="line"/>
      <point x="471.70454545454544" y="456.25" type="line"/>
      <point x="421.4318181818182" y="389.20454545454544" type="line"/>
      <point x="452.1818181818182" y="398.1136363636364"/>
      <point x="498.77272727272725" y="416.6590909090909"/>
      <point x="535.3409090909091" y="416.6590909090909" type="curve" smooth="yes"/>
      <point x="590.4772727272727" y="416.6590909090909"/>
      <point x="612.7272727272727" y="389.15909090909093"/>
      <point x="612.7272727272727" y="320.6363636363636" type="curve" smooth="yes"/>
      <point x="612.7272727272727" y="158.25" type="line"/>
      <point x="602.7272727272727" y="115.18181818181819"/>
      <point x="572.0909090909091" y="88.11363636363636"/>
      <point x="533.1136363636364" y="88.11363636363636" type="curve" smooth="yes"/>
      <point x="494.8636363636364" y="88.11363636363636"/>
      <point x="476.72727272727275" y="109.25"/>
      <point x="476.72727272727275" y="151.38636363636363" type="curve" smooth="yes"/>
      <point x="476.72727272727275" y="188.1590909090909"/>
      <point x="492.75" y="207.8409090909091"/>
      <point x="530.0909090909091" y="213.95454545454547" type="curve" smooth="yes"/>
      <point x="628.3863636363636" y="230.77272727272728" type="line"/>
      <point x="628.3863636363636" y="293.95454545454544" type="line"/>
      <point x="468.45454545454544" y="267.6136363636364" type="line" smooth="yes"/>
      <point x="380.22727272727275" y="253.5"/>
      <point x="336.22727272727275" y="207.5"/>
      <point x="336.22727272727275" y="130.29545454545453" type="curve" smooth="yes"/>
      <point x="336.22727272727275" y="43.54545454545455"/>
      <point x="392.22727272727275" y="-10.0"/>
    </contour>
  </outline>
</glyph>
<glyph name="A" format="2">
  <advance width="746.375"/>
  <unicode hex="0041"/>
  <anchor x="359.8863636363636" y="0.0" name="bottom"/>
  <anchor x="698.8636363636364" y="0.0" name="ogonek"/>
  <anchor x="374.40909090909093" y="705.0" name="top"/>
  <outline>
    <contour>
      <point x="47.34090909090909" y="-5.0" type="line"/>
      <point x="89.79545454545455" y="-3.0"/>
      <point x="160.88636363636363" y="0.0"/>
      <point x="185.88636363636363" y="0.0" type="curve" smooth="yes"/>
      <point x="284.1818181818182" y="0.0" type="line"/>
      <point x="289.1818181818182" y="65.4090909090909" type="line"/>
      <point x="165.5681818181818" y="79.52272727272728" type="line"/>
      <point x="222.27272727272728" y="24.272727272727273" type="line"/>
      <point x="222.61363636363637" y="64.45454545454545"/>
      <point x="226.27272727272728" y="92.02272727272727"/>
      <point x="234.38636363636363" y="119.13636363636364" type="curve" smooth="yes"/>
      <point x="376.29545454545456" y="576.1590909090909" type="line"/>
      <point x="341.1136363636364" y="576.1590909090909" type="line"/>
      <point x="472.3863636363636" y="143.97727272727272" type="line" smooth="yes"/>
      <point x="483.1818181818182" y="110.61363636363636"/>
      <point x="487.6363636363636" y="81.02272727272727"/>
      <point x="495.6363636363636" y="10.863636363636363" type="curve"/>
      <point x="546.6818181818181" y="85.52272727272728" type="line"/>
      <point x="421.1818181818182" y="57.95454545454545" type="line"/>
      <point x="425.95454545454544" y="-5.0" type="line"/>
      <point x="484.47727272727275" y="-3.0"/>
      <point x="584.2727272727273" y="0.0"/>
      <point x="609.2727272727273" y="0.0" type="curve" smooth="yes"/>
      <point x="698.8636363636364" y="0.0" type="line"/>
      <point x="703.8636363636364" y="65.4090909090909" type="line"/>
      <point x="583.8181818181819" y="85.06818181818181" type="line"/>
      <point x="659.5" y="42.34090909090909" type="line"/>
      <point x="646.2727272727273" y="69.9090909090909"/>
      <point x="627.1590909090909" y="102.47727272727272"/>
      <point x="616.9318181818181" y="135.04545454545453" type="curve" smooth="yes"/>
      <point x="415.25" y="715.8863636363636" type="line"/>
      <point x="321.25" y="705.0" type="line"/>
      <point x="136.27272727272728" y="160.88636363636363" type="line" smooth="yes"/>
      <point x="119.61363636363636" y="114.3409090909091"/>
      <point x="103.5909090909091" y="83.63636363636364"/>
      <point x="67.43181818181819" y="23.613636363636363" type="curve"/>
      <point x="152.63636363636363" y="80.52272727272728" type="line"/>
      <point x="42.45454545454545" y="57.95454545454545" type="line"/>
    </contour>
    <contour>
      <point x="228.20454545454547" y="195.75" type="line"/>
      <point x="489.04545454545456" y="195.75" type="line"/>
      <point x="489.04545454545456" y="269.79545454545456" type="line"/>
      <point x="228.20454545454547" y="269.79545454545456" type="line"/>
    </contour>
  </outline>
</glyph>
<glyph name="B" format="2">
  <advance width="660.0"/>
  <unicode hex="0042"/>
  <anchor x="330.1818181818182" y="0.0" name="bottom"/>
  <anchor x="330.1818181818182" y="705.0" name="top"/>
  <outline>
    <contour>
      <point x="59.22727272727273" y="-5.0" type="line"/>
      <point x="100.79545454545455" y="-3.0"/>
      <point x="176.20454545454547" y="0.0"/>
      <point x="203.86363636363637" y="0.0" type="curve" smooth="yes"/>
      <point x="253.86363636363637" y="0.0"/>
      <point x="322.6363636363636" y="-4.886363636363637"/>
      <point x="372.6363636363636" y="-4.886363636363637" type="curve" smooth="yes"/>
      <point x="496.27272727272725" y="-4.886363636363637"/>
      <point x="599.3409090909091" y="61.13636363636364"/>
      <point x="599.3409090909091" y="187.4318181818182" type="curve" smooth="yes"/>
      <point x="599.3409090909091" y="302.97727272727275"/>
      <point x="510.1363636363636" y="362.54545454545456"/>
      <point x="388.3863636363636" y="367.77272727272725" type="curve"/>
      <point x="429.3409090909091" y="310.3863636363636" type="line"/>
      <point x="429.3409090909091" y="424.3863636363636" type="line"/>
      <point x="391.27272727272725" y="365.0" type="line"/>
      <point x="492.25" y="371.79545454545456"/>
      <point x="568.3409090909091" y="442.45454545454544"/>
      <point x="568.3409090909091" y="543.0" type="curve" smooth="yes"/>
      <point x="568.3409090909091" y="648.0"/>
      <point x="469.15909090909093" y="710.0"/>
      <point x="355.6363636363636" y="710.0" type="curve" smooth="yes"/>
      <point x="305.6363636363636" y="710.0"/>
      <point x="228.88636363636363" y="705.0"/>
      <point x="178.88636363636363" y="705.0" type="curve" smooth="yes"/>
      <point x="152.79545454545453" y="705.0"/>
      <point x="96.45454545454545" y="708.0"/>
      <point x="60.34090909090909" y="710.0" type="curve"/>
      <point x="55.34090909090909" y="642.0454545454545" type="line"/>
      <point x="173.72727272727272" y="621.7272727272727" type="line"/>
      <point x="119.5909090909091" y="668.2272727272727" type="line"/>
      <point x="120.04545454545455" y="664.2954545454545"/>
      <point x="133.47727272727272" y="581.25"/>
      <point x="133.47727272727272" y="551.3863636363636" type="curve" smooth="yes"/>
      <point x="133.47727272727272" y="154.5" type="line" smooth="yes"/>
      <point x="133.47727272727272" y="128.95454545454547"/>
      <point x="123.5909090909091" y="59.63636363636364"/>
      <point x="119.5909090909091" y="34.63636363636364" type="curve"/>
      <point x="177.97727272727272" y="81.18181818181819" type="line"/>
      <point x="54.22727272727273" y="58.18181818181818" type="line"/>
    </contour>
    <contour>
      <point x="277.45454545454544" y="43.04545454545455" type="line"/>
      <point x="274.22727272727275" y="61.72727272727273"/>
      <point x="266.45454545454544" y="137.47727272727272"/>
      <point x="266.45454545454544" y="184.5" type="curve" smooth="yes"/>
      <point x="266.45454545454544" y="521.3863636363636" type="line" smooth="yes"/>
      <point x="266.45454545454544" y="571.7272727272727"/>
      <point x="273.6818181818182" y="645.6136363636364"/>
      <point x="274.79545454545456" y="660.6136363636364" type="curve"/>
      <point x="237.61363636363637" y="637.3863636363636" type="line"/>
      <point x="266.6136363636364" y="637.6136363636364"/>
      <point x="301.1818181818182" y="637.6136363636364"/>
      <point x="331.97727272727275" y="637.6136363636364" type="curve" smooth="yes"/>
      <point x="401.97727272727275" y="637.6136363636364"/>
      <point x="441.22727272727275" y="592.9318181818181"/>
      <point x="441.22727272727275" y="524.9090909090909" type="curve" smooth="yes"/>
      <point x="441.22727272727275" y="448.09090909090907"/>
      <point x="395.84090909090907" y="402.75"/>
      <point x="322.9318181818182" y="402.75" type="curve" smooth="yes"/>
      <point x="316.70454545454544" y="402.75" type="line"/>
      <point x="309.70454545454544" y="325.59090909090907" type="line"/>
      <point x="319.9318181818182" y="325.59090909090907" type="line" smooth="yes"/>
      <point x="400.1818181818182" y="325.59090909090907"/>
      <point x="464.22727272727275" y="292.0"/>
      <point x="464.22727272727275" y="198.86363636363637" type="curve" smooth="yes"/>
      <point x="464.22727272727275" y="115.95454545454545"/>
      <point x="412.77272727272725" y="68.8409090909091"/>
      <point x="338.97727272727275" y="68.8409090909091" type="curve" smooth="yes"/>
      <point x="300.52272727272725" y="68.8409090909091"/>
      <point x="269.04545454545456" y="72.8409090909091"/>
      <point x="239.61363636363637" y="77.5" type="curve"/>
    </contour>
  </outline>
</glyph>
<glyph name="C" format="2">
  <advance width="696.25"/>
  <unicode hex="0043"/>
  <anchor x="395.6136363636364" y="0.0" name="bottom"/>
  <anchor x="395.6136363636364" y="720.0" name="top"/>
  <outline>
    <contour>
      <point x="404.72727272727275" y="-15.0" type="curve" smooth="yes"/>
      <point x="487.5" y="-15.0"/>
      <point x="562.1590909090909" y="3.0"/>
      <point x="626.9318181818181" y="19.0" type="curve"/>
      <point x="619.1590909090909" y="183.95454545454547" type="line"/>
      <point x="549.6363636363636" y="181.95454545454547" type="line"/>
      <point x="546.75" y="134.95454545454547" type="line" smooth="yes"/>
      <point x="545.75" y="120.95454545454545"/>
      <point x="527.6590909090909" y="73.86363636363636"/>
      <point x="515.7727272727273" y="45.75" type="curve"/>
      <point x="571.25" y="93.93181818181819" type="line"/>
      <point x="506.20454545454544" y="75.1590909090909"/>
      <point x="455.27272727272725" y="65.70454545454545"/>
      <point x="403.72727272727275" y="65.70454545454545" type="curve" smooth="yes"/>
      <point x="273.90909090909093" y="65.70454545454545"/>
      <point x="219.63636363636363" y="193.1818181818182"/>
      <point x="219.63636363636363" y="353.0" type="curve" smooth="yes"/>
      <point x="219.63636363636363" y="512.9318181818181"/>
      <point x="274.79545454545456" y="639.2954545454545"/>
      <point x="404.72727272727275" y="639.2954545454545" type="curve" smooth="yes"/>
      <point x="455.04545454545456" y="639.2954545454545"/>
      <point x="504.6363636363636" y="627.8409090909091"/>
      <point x="561.3636363636364" y="611.7272727272727" type="curve"/>
      <point x="508.77272727272725" y="658.0227272727273" type="line"/>
      <point x="517.5454545454545" y="631.3636363636364"/>
      <point x="533.9772727272727" y="590.5909090909091"/>
      <point x="533.9772727272727" y="577.5909090909091" type="curve" smooth="yes"/>
      <point x="535.75" y="521.8409090909091" type="line"/>
      <point x="606.1590909090909" y="517.8409090909091" type="line"/>
      <point x="617.9318181818181" y="686.0" type="line"/>
      <point x="551.3863636363636" y="703.7727272727273"/>
      <point x="488.5" y="720.0"/>
      <point x="404.72727272727275" y="720.0" type="curve" smooth="yes"/>
      <point x="180.77272727272728" y="720.0"/>
      <point x="65.9090909090909" y="570.0"/>
      <point x="65.9090909090909" y="352.0" type="curve" smooth="yes"/>
      <point x="65.9090909090909" y="134.0"/>
      <point x="180.77272727272728" y="-15.0"/>
    </contour>
  </outline>
</glyph>
<glyph name="D" format="2">
  <advance width="775.125"/>
  <unicode hex="0044"/>
  <anchor x="351.8636363636364" y="0.0" name="bottom"/>
  <anchor x="207.75" y="353.0" name="center"/>
  <anchor x="353.75" y="720.0" name="top"/>
  <outline>
    <contour>
      <point x="59.22727272727273" y="-5.0" type="line"/>
      <point x="106.88636363636364" y="-3.0"/>
      <point x="175.4318181818182" y="0.0"/>
      <point x="203.86363636363637" y="0.0" type="curve" smooth="yes"/>
      <point x="253.86363636363637" y="0.0"/>
      <point x="311.1818181818182" y="-4.886363636363637"/>
      <point x="361.1818181818182" y="-4.886363636363637" type="curve" smooth="yes"/>
      <point x="587.5909090909091" y="-4.886363636363637"/>
      <point x="711.3863636363636" y="141.88636363636363"/>
      <point x="711.3863636363636" y="352.0" type="curve" smooth="yes"/>
      <point x="711.3863636363636" y="564.7954545454545"/>
      <point x="590.2727272727273" y="710.0"/>
      <point x="361.1818181818182" y="710.0" type="curve" smooth="yes"/>
      <point x="305.59090909090907" y="710.0"/>
      <point x="234.02272727272728" y="705.0"/>
      <point x="178.77272727272728" y="705.0" type="curve" smooth="yes"/>
      <point x="152.6818181818182" y="705.0"/>
      <point x="96.45454545454545" y="708.0"/>
      <point x="60.34090909090909" y="710.0" type="curve"/>
      <point x="55.34090909090909" y="642.0454545454545" type="line"/>
      <point x="177.97727272727272" y="621.3863636363636" type="line"/>
      <point x="119.47727272727272" y="675.7727272727273" type="line"/>
      <point x="123.36363636363636" y="649.0227272727273"/>
      <point x="133.47727272727272" y="578.5909090909091"/>
      <point x="133.47727272727272" y="551.3863636363636" type="curve" smooth="yes"/>
      <point x="133.47727272727272" y="154.5" type="line" smooth="yes"/>
      <point x="133.47727272727272" y="128.1818181818182"/>
      <point x="124.25" y="67.1590909090909"/>
      <point x="118.47727272727272" y="29.977272727272727" type="curve"/>
      <point x="177.97727272727272" y="81.18181818181819" type="line"/>
      <point x="54.22727272727273" y="58.18181818181818" type="line"/>
    </contour>
    <contour>
      <point x="275.45454545454544" y="35.11363636363637" type="line"/>
      <point x="272.6818181818182" y="51.90909090909091"/>
      <point x="266.45454545454544" y="135.13636363636363"/>
      <point x="266.45454545454544" y="184.5" type="curve" smooth="yes"/>
      <point x="266.45454545454544" y="521.3863636363636" type="line" smooth="yes"/>
      <point x="266.45454545454544" y="570.3863636363636"/>
      <point x="273.45454545454544" y="662.6590909090909"/>
      <point x="274.90909090909093" y="671.7954545454545" type="curve"/>
      <point x="246.27272727272728" y="632.5" type="line"/>
      <point x="264.95454545454544" y="632.5"/>
      <point x="314.9318181818182" y="635.1590909090909"/>
      <point x="352.54545454545456" y="635.1590909090909" type="curve" smooth="yes"/>
      <point x="506.3636363636364" y="635.1590909090909"/>
      <point x="567.75" y="505.25"/>
      <point x="567.75" y="353.77272727272725" type="curve" smooth="yes"/>
      <point x="567.75" y="196.86363636363637"/>
      <point x="507.25" y="69.8409090909091"/>
      <point x="351.65909090909093" y="69.8409090909091" type="curve" smooth="yes"/>
      <point x="310.72727272727275" y="69.8409090909091"/>
      <point x="267.72727272727275" y="72.8409090909091"/>
      <point x="243.5" y="72.8409090909091" type="curve"/>
    </contour>
  </outline>
</glyph>
<glyph name="E" format="2">
  <advance width="644.0"/>
  <unicode hex="0045"/>
  <anchor x="335.95454545454544" y="0.0" name="bottom"/>
  <anchor x="546.6136363636364" y="-4.0" name="ogonek"/>
  <anchor x="311.54545454545456" y="720.0" name="top"/>
  <outline>
    <contour>
      <point x="59.22727272727273" y="-5.0" type="line"/>
      <point x="107.77272727272727" y="-2.0"/>
      <point x="175.4318181818182" y="0.0"/>
      <point x="203.86363636363637" y="0.0" type="curve" smooth="yes"/>
      <point x="432.6136363636364" y="0.0" type="line" smooth="yes"/>
      <point x="459.3636363636364" y="0.0"/>
      <point x="508.6136363636364" y="-2.0"/>
      <point x="546.6136363636364" y="-4.0" type="curve"/>
      <point x="565.6136363636364" y="14.0" type="line"/>
      <point x="580.6136363636364" y="181.61363636363637" type="line"/>
      <point x="515.9772727272727" y="186.61363636363637" type="line"/>
      <point x="502.75" y="125.70454545454545" type="line" smooth="yes"/>
      <point x="498.8636363636364" y="109.04545454545455"/>
      <point x="477.97727272727275" y="71.63636363636364"/>
      <point x="453.34090909090907" y="42.11363636363637" type="curve"/>
      <point x="503.72727272727275" y="90.04545454545455" type="line"/>
      <point x="488.3863636363636" y="86.04545454545455"/>
      <point x="446.15909090909093" y="77.1590909090909"/>
      <point x="402.6136363636364" y="77.1590909090909" type="curve" smooth="yes"/>
      <point x="235.79545454545456" y="77.1590909090909" type="line"/>
      <point x="276.79545454545456" y="43.13636363636364" type="line"/>
      <point x="273.45454545454544" y="68.5909090909091"/>
      <point x="266.45454545454544" y="144.25"/>
      <point x="266.45454545454544" y="184.5" type="curve" smooth="yes"/>
      <point x="266.45454545454544" y="521.3863636363636" type="line" smooth="yes"/>
      <point x="266.45454545454544" y="547.3863636363636"/>
      <point x="269.79545454545456" y="612.3863636363636"/>
      <point x="274.79545454545456" y="658.3863636363636" type="curve"/>
      <point x="219.1818181818182" y="632.3863636363636" type="line"/>
      <point x="391.3863636363636" y="632.3863636363636" type="line" smooth="yes"/>
      <point x="430.9318181818182" y="632.3863636363636"/>
      <point x="477.25" y="627.6136363636364"/>
      <point x="501.6818181818182" y="625.5" type="curve"/>
      <point x="449.1818181818182" y="673.75" type="line"/>
      <point x="463.29545454545456" y="647.4545454545455"/>
      <point x="482.52272727272725" y="605.1590909090909"/>
      <point x="484.52272727272725" y="592.5" type="curve" smooth="yes"/>
      <point x="491.97727272727275" y="543.7045454545455" type="line"/>
      <point x="558.7272727272727" y="548.7045454545455" type="line"/>
      <point x="551.7272727272727" y="692.0" type="line"/>
      <point x="532.7272727272727" y="710.0" type="line"/>
      <point x="494.72727272727275" y="707.0"/>
      <point x="436.72727272727275" y="705.0"/>
      <point x="418.72727272727275" y="705.0" type="curve" smooth="yes"/>
      <point x="178.88636363636363" y="705.0" type="line" smooth="yes"/>
      <point x="152.79545454545453" y="705.0"/>
      <point x="96.45454545454545" y="708.0"/>
      <point x="60.34090909090909" y="710.0" type="curve"/>
      <point x="55.34090909090909" y="642.0454545454545" type="line"/>
      <point x="177.97727272727272" y="621.3863636363636" type="line"/>
      <point x="118.5909090909091" y="672.25" type="line"/>
      <point x="125.47727272727272" y="631.5909090909091"/>
      <point x="133.47727272727272" y="572.0454545454545"/>
      <point x="133.47727272727272" y="551.3863636363636" type="curve" smooth="yes"/>
      <point x="133.47727272727272" y="154.5" type="line" smooth="yes"/>
      <point x="133.47727272727272" y="127.29545454545455"/>
      <point x="122.47727272727272" y="58.18181818181818"/>
      <point x="118.47727272727272" y="35.40909090909091" type="curve"/>
      <point x="177.97727272727272" y="81.18181818181819" type="line"/>
      <point x="54.22727272727273" y="58.18181818181818" type="line"/>
    </contour>
    <contour>
      <point x="419.1136363636364" y="255.36363636363637" type="line"/>
      <point x="477.6363636363636" y="261.3636363636364" type="line"/>
      <point x="475.6363636363636" y="301.79545454545456"/>
      <point x="474.6363636363636" y="341.34090909090907"/>
      <point x="474.6363636363636" y="381.77272727272725" type="curve" smooth="yes"/>
      <point x="474.6363636363636" y="465.77272727272725" type="line"/>
      <point x="419.1136363636364" y="470.77272727272725" type="line"/>
      <point x="405.1136363636364" y="366.65909090909093" type="line"/>
      <point x="437.8863636363636" y="408.4318181818182" type="line"/>
      <point x="419.45454545454544" y="402.8863636363636"/>
      <point x="384.20454545454544" y="396.65909090909093"/>
      <point x="360.6363636363636" y="396.65909090909093" type="curve" smooth="yes"/>
      <point x="222.5" y="396.65909090909093" type="line"/>
      <point x="222.5" y="324.04545454545456" type="line"/>
      <point x="340.6363636363636" y="324.04545454545456" type="line" smooth="yes"/>
      <point x="370.1818181818182" y="324.04545454545456"/>
      <point x="423.54545454545456" y="318.70454545454544"/>
      <point x="452.6363636363636" y="316.59090909090907" type="curve"/>
      <point x="405.1136363636364" y="354.04545454545456" type="line"/>
    </contour>
  </outline>
</glyph>
<glyph name="F" format="2">
  <advance width="610.125"/>
  <unicode hex="0046"/>
  <anchor x="305.20454545454544" y="0.0" name="bottom"/>
  <anchor x="305.20454545454544" y="720.0" name="top"/>
  <outline>
    <contour>
      <point x="59.22727272727273" y="-5.0" type="line"/>
      <point x="110.11363636363636" y="-3.0"/>
      <point x="183.29545454545453" y="0.0"/>
      <point x="203.86363636363637" y="0.0" type="curve" smooth="yes"/>
      <point x="366.45454545454544" y="0.0" type="line"/>
      <point x="371.79545454545456" y="65.4090909090909" type="line"/>
      <point x="221.72727272727272" y="75.4090909090909" type="line"/>
      <point x="281.1136363636364" y="31.863636363636363" type="line"/>
      <point x="275.3409090909091" y="66.04545454545455"/>
      <point x="266.45454545454544" y="130.72727272727272"/>
      <point x="266.45454545454544" y="184.5" type="curve"/>
      <point x="266.45454545454544" y="521.3863636363636" type="line"/>
      <point x="266.45454545454544" y="566.7272727272727"/>
      <point x="273.79545454545456" y="644.75"/>
      <point x="274.79545454545456" y="658.7272727272727" type="curve"/>
      <point x="219.1818181818182" y="632.3863636363636" type="line"/>
      <point x="388.72727272727275" y="632.3863636363636" type="line" smooth="yes"/>
      <point x="431.70454545454544" y="632.3863636363636"/>
      <point x="481.6818181818182" y="625.6136363636364"/>
      <point x="496.3636363636364" y="624.6136363636364" type="curve"/>
      <point x="455.27272727272725" y="653.5909090909091" type="line"/>
      <point x="468.3863636363636" y="630.8409090909091"/>
      <point x="478.97727272727275" y="611.3636363636364"/>
      <point x="481.8636363636364" y="600.3636363636364" type="curve"/>
      <point x="486.75" y="582.7045454545455"/>
      <point x="489.97727272727275" y="558.9318181818181"/>
      <point x="491.97727272727275" y="542.9318181818181" type="curve"/>
      <point x="558.7272727272727" y="547.9318181818181" type="line"/>
      <point x="551.7272727272727" y="692.0" type="line"/>
      <point x="532.7272727272727" y="710.0" type="line"/>
      <point x="499.77272727272725" y="708.1136363636364"/>
      <point x="438.72727272727275" y="705.0"/>
      <point x="418.72727272727275" y="705.0" type="curve" smooth="yes"/>
      <point x="178.88636363636363" y="705.0" type="line" smooth="yes"/>
      <point x="152.79545454545453" y="705.0"/>
      <point x="96.45454545454545" y="708.0"/>
      <point x="60.34090909090909" y="710.0" type="curve"/>
      <point x="55.34090909090909" y="642.0454545454545" type="line"/>
      <point x="177.97727272727272" y="621.3863636363636" type="line"/>
      <point x="120.25" y="665.4772727272727" type="line"/>
      <point x="124.36363636363636" y="632.7272727272727"/>
      <point x="133.47727272727272" y="578.5909090909091"/>
      <point x="133.47727272727272" y="551.3863636363636" type="curve" smooth="yes"/>
      <point x="133.47727272727272" y="154.5" type="line" smooth="yes"/>
      <point x="133.47727272727272" y="129.8409090909091"/>
      <point x="125.25" y="73.04545454545455"/>
      <point x="118.36363636363636" y="31.409090909090907" type="curve"/>
      <point x="177.97727272727272" y="81.18181818181819" type="line"/>
      <point x="54.22727272727273" y="58.18181818181818" type="line"/>
    </contour>
    <contour>
      <point x="419.1136363636364" y="245.5909090909091" type="line"/>
      <point x="477.6363636363636" y="251.5909090909091" type="line"/>
      <point x="476.6363636363636" y="281.90909090909093"/>
      <point x="474.6363636363636" y="336.0"/>
      <point x="474.6363636363636" y="372.0" type="curve" smooth="yes"/>
      <point x="474.6363636363636" y="455.1136363636364" type="line"/>
      <point x="419.1136363636364" y="460.1136363636364" type="line"/>
      <point x="406.1136363636364" y="360.6818181818182" type="line"/>
      <point x="436.34090909090907" y="399.34090909090907" type="line"/>
      <point x="415.79545454545456" y="394.34090909090907"/>
      <point x="380.77272727272725" y="386.8863636363636"/>
      <point x="360.6363636363636" y="386.8863636363636" type="curve" smooth="yes"/>
      <point x="214.95454545454547" y="386.8863636363636" type="line"/>
      <point x="214.95454545454547" y="313.3863636363636" type="line"/>
      <point x="340.6363636363636" y="313.3863636363636" type="line" smooth="yes"/>
      <point x="370.1818181818182" y="313.3863636363636"/>
      <point x="420.79545454545456" y="308.15909090909093"/>
      <point x="446.65909090909093" y="306.04545454545456" type="curve"/>
      <point x="406.1136363636364" y="337.27272727272725" type="line"/>
    </contour>
  </outline>
</glyph>
<glyph name="G" format="2">
  <advance width="744.25"/>
  <unicode hex="0047"/>
  <anchor x="427.09090909090907" y="0.0" name="bottom"/>
  <anchor x="425.09090909090907" y="720.0" name="top"/>
  <outline>
    <contour>
      <point x="420.72727272727275" y="-15.0" type="curve" smooth="yes"/>
      <point x="509.3863636363636" y="-15.0"/>
      <point x="587.1590909090909" y="3.0"/>
      <point x="655.9318181818181" y="19.0" type="curve"/>
      <point x="655.9318181818181" y="186.1590909090909" type="line" smooth="yes"/>
      <point x="655.9318181818181" y="216.63636363636363"/>
      <point x="660.9318181818181" y="284.6136363636364"/>
      <point x="664.9318181818181" y="333.84090909090907" type="curve"/>
      <point x="639.8409090909091" y="356.15909090909093" type="line"/>
      <point x="606.2045454545455" y="355.15909090909093"/>
      <point x="556.5909090909091" y="353.15909090909093"/>
      <point x="540.0454545454545" y="353.15909090909093" type="curve" smooth="yes"/>
      <point x="429.04545454545456" y="353.15909090909093" type="line"/>
      <point x="424.04545454545456" y="268.90909090909093" type="line"/>
      <point x="583.5454545454545" y="256.1363636363636" type="line"/>
      <point x="525.5" y="300.65909090909093" type="line"/>
      <point x="530.2727272727273" y="276.0"/>
      <point x="540.0454545454545" y="228.20454545454547"/>
      <point x="540.0454545454545" y="196.0" type="curve" smooth="yes"/>
      <point x="540.0454545454545" y="128.0" type="line" smooth="yes"/>
      <point x="540.0454545454545" y="111.22727272727273"/>
      <point x="528.1590909090909" y="65.11363636363636"/>
      <point x="521.1590909090909" y="34.22727272727273" type="curve"/>
      <point x="567.5454545454545" y="84.8409090909091" type="line"/>
      <point x="515.1136363636364" y="73.27272727272728"/>
      <point x="466.5" y="65.70454545454545"/>
      <point x="418.6136363636364" y="65.70454545454545" type="curve" smooth="yes"/>
      <point x="277.6818181818182" y="65.70454545454545"/>
      <point x="217.52272727272728" y="193.1818181818182"/>
      <point x="217.52272727272728" y="353.0" type="curve" smooth="yes"/>
      <point x="217.52272727272728" y="512.9318181818181"/>
      <point x="278.45454545454544" y="639.2954545454545"/>
      <point x="419.5" y="639.2954545454545" type="curve" smooth="yes"/>
      <point x="471.27272727272725" y="639.2954545454545"/>
      <point x="535.6136363636364" y="627.8409090909091"/>
      <point x="583.3863636363636" y="612.7272727272727" type="curve"/>
      <point x="544.75" y="652.7045454545455" type="line"/>
      <point x="555.2954545454545" y="616.5227272727273"/>
      <point x="562.0909090909091" y="585.3863636363636"/>
      <point x="562.0909090909091" y="577.5909090909091" type="curve" smooth="yes"/>
      <point x="563.8636363636364" y="521.8409090909091" type="line"/>
      <point x="634.2727272727273" y="517.8409090909091" type="line"/>
      <point x="646.0454545454545" y="686.0" type="line"/>
      <point x="581.5909090909091" y="702.8863636363636"/>
      <point x="507.72727272727275" y="720.0"/>
      <point x="420.72727272727275" y="720.0" type="curve" smooth="yes"/>
      <point x="185.77272727272728" y="720.0"/>
      <point x="64.9090909090909" y="570.0"/>
      <point x="64.9090909090909" y="352.0" type="curve" smooth="yes"/>
      <point x="64.9090909090909" y="134.0"/>
      <point x="185.77272727272728" y="-15.0"/>
    </contour>
  </outline>
</glyph>
<glyph name="H" format="2">
  <advance width="831.75"/>
  <unicode hex="0048"/>
  <anchor x="414.95454545454544" y="0.0" name="bottom"/>
  <anchor x="415.84090909090907" y="520.0" name="center"/>
  <anchor x="414.95454545454544" y="720.0" name="top"/>
  <outline>
    <contour>
      <point x="488.20454545454544" y="-5.0" type="line"/>
      <point x="546.75" y="-2.0"/>
      <point x="594.4090909090909" y="0.0"/>
      <point x="632.8409090909091" y="0.0" type="curve" smooth="yes"/>
      <point x="771.4772727272727" y="0.0" type="line"/>
      <point x="777.5909090909091" y="65.4090909090909" type="line"/>
      <point x="649.9318181818181" y="76.29545454545455" type="line"/>
      <point x="710.0909090909091" y="25.34090909090909" type="line"/>
      <point x="704.2045454545455" y="53.88636363636363"/>
      <point x="695.5454545454545" y="131.61363636363637"/>
      <point x="695.5454545454545" y="184.5" type="curve" smooth="yes"/>
      <point x="695.5454545454545" y="521.3863636363636" type="line" smooth="yes"/>
      <point x="695.5454545454545" y="574.2727272727273"/>
      <point x="701.6590909090909" y="622.2045454545455"/>
      <point x="708.0909090909091" y="664.7045454545455" type="curve"/>
      <point x="649.9318181818181" y="625.2727272727273" type="line"/>
      <point x="773.4545454545455" y="637.0454545454545" type="line"/>
      <point x="769.4545454545455" y="710.0" type="line"/>
      <point x="705.5909090909091" y="707.0"/>
      <point x="651.7272727272727" y="705.0"/>
      <point x="607.8636363636364" y="705.0" type="curve" smooth="yes"/>
      <point x="581.7727272727273" y="705.0"/>
      <point x="525.5454545454545" y="708.0"/>
      <point x="489.4318181818182" y="710.0" type="curve"/>
      <point x="484.4318181818182" y="642.0454545454545" type="line"/>
      <point x="606.1818181818181" y="621.3863636363636" type="line"/>
      <point x="548.4545454545455" y="664.7045454545455" type="line"/>
      <point x="552.4545454545455" y="641.2727272727273"/>
      <point x="562.4545454545455" y="576.0454545454545"/>
      <point x="562.4545454545455" y="551.3863636363636" type="curve" smooth="yes"/>
      <point x="562.4545454545455" y="154.5" type="line" smooth="yes"/>
      <point x="562.4545454545455" y="126.4090909090909"/>
      <point x="550.9090909090909" y="55.22727272727273"/>
      <point x="545.7954545454545" y="25.34090909090909" type="curve"/>
      <point x="606.1818181818181" y="81.18181818181819" type="line"/>
      <point x="483.20454545454544" y="58.18181818181818" type="line"/>
    </contour>
    <contour>
      <point x="59.22727272727273" y="-5.0" type="line"/>
      <point x="117.77272727272727" y="-2.0"/>
      <point x="165.4318181818182" y="0.0"/>
      <point x="203.86363636363637" y="0.0" type="curve" smooth="yes"/>
      <point x="343.3863636363636" y="0.0" type="line"/>
      <point x="348.6136363636364" y="65.4090909090909" type="line"/>
      <point x="221.72727272727272" y="76.29545454545455" type="line"/>
      <point x="281.1136363636364" y="25.34090909090909" type="line"/>
      <point x="276.1136363636364" y="52.22727272727273"/>
      <point x="266.45454545454544" y="128.95454545454547"/>
      <point x="266.45454545454544" y="184.5" type="curve" smooth="yes"/>
      <point x="266.45454545454544" y="521.3863636363636" type="line" smooth="yes"/>
      <point x="266.45454545454544" y="571.6136363636364"/>
      <point x="274.45454545454544" y="632.6363636363636"/>
      <point x="281.0" y="670.0227272727273" type="curve"/>
      <point x="221.72727272727272" y="625.2727272727273" type="line"/>
      <point x="345.3636363636364" y="637.0454545454545" type="line"/>
      <point x="340.47727272727275" y="710.0" type="line"/>
      <point x="276.6136363636364" y="707.0"/>
      <point x="222.75" y="705.0"/>
      <point x="178.88636363636363" y="705.0" type="curve" smooth="yes"/>
      <point x="152.79545454545453" y="705.0"/>
      <point x="96.45454545454545" y="708.0"/>
      <point x="60.34090909090909" y="710.0" type="curve"/>
      <point x="55.34090909090909" y="642.0454545454545" type="line"/>
      <point x="177.97727272727272" y="621.3863636363636" type="line"/>
      <point x="117.70454545454545" y="668.25" type="line"/>
      <point x="125.25" y="634.9545454545455"/>
      <point x="133.47727272727272" y="577.7045454545455"/>
      <point x="133.47727272727272" y="551.3863636363636" type="curve" smooth="yes"/>
      <point x="133.47727272727272" y="154.5" type="line" smooth="yes"/>
      <point x="133.47727272727272" y="125.52272727272728"/>
      <point x="122.47727272727272" y="54.75"/>
      <point x="117.70454545454545" y="25.34090909090909" type="curve"/>
      <point x="177.97727272727272" y="81.18181818181819" type="line"/>
      <point x="54.22727272727273" y="58.18181818181818" type="line"/>
    </contour>
    <contour>
      <point x="211.45454545454544" y="310.3863636363636" type="line"/>
      <point x="617.4545454545455" y="310.3863636363636" type="line"/>
      <point x="617.4545454545455" y="389.97727272727275" type="line"/>
      <point x="211.45454545454544" y="384.97727272727275" type="line"/>
    </contour>
  </outline>
</glyph>
<glyph name="I" format="2">
  <advance width="404.5"/>
  <unicode hex="0049"/>
  <anchor x="200.6590909090909" y="0.0" name="bottom"/>
  <anchor x="339.95454545454544" y="0.0" name="ogonek"/>
  <anchor x="197.86363636363637" y="720.0" name="top"/>
  <outline>
    <contour>
      <point x="59.22727272727273" y="-5.0" type="line"/>
      <point x="107.77272727272727" y="-2.0"/>
      <point x="155.4318181818182" y="0.0"/>
      <point x="203.86363636363637" y="0.0" type="curve" smooth="yes"/>
      <point x="343.3863636363636" y="0.0" type="line"/>
      <point x="348.6136363636364" y="65.4090909090909" type="line"/>
      <point x="221.72727272727272" y="76.29545454545455" type="line"/>
      <point x="281.1136363636364" y="25.34090909090909" type="line"/>
      <point x="276.1136363636364" y="52.22727272727273"/>
      <point x="266.45454545454544" y="128.95454545454547"/>
      <point x="266.45454545454544" y="184.5" type="curve" smooth="yes"/>
      <point x="266.45454545454544" y="521.3863636363636" type="line" smooth="yes"/>
      <point x="266.45454545454544" y="571.6136363636364"/>
      <point x="274.45454545454544" y="632.6363636363636"/>
      <point x="281.0" y="670.0227272727273" type="curve"/>
      <point x="221.72727272727272" y="625.2727272727273" type="line"/>
      <point x="345.3636363636364" y="637.0454545454545" type="line"/>
      <point x="340.47727272727275" y="710.0" type="line"/>
      <point x="286.6136363636364" y="707.0"/>
      <point x="232.75" y="705.0"/>
      <point x="178.88636363636363" y="705.0" type="curve" smooth="yes"/>
      <point x="152.79545454545453" y="705.0"/>
      <point x="96.45454545454545" y="708.0"/>
      <point x="60.34090909090909" y="710.0" type="curve"/>
      <point x="55.34090909090909" y="642.0454545454545" type="line"/>
      <point x="177.97727272727272" y="621.3863636363636" type="line"/>
      <point x="117.70454545454545" y="668.25" type="line"/>
      <point x="125.25" y="634.9545454545455"/>
      <point x="133.47727272727272" y="577.7045454545455"/>
      <point x="133.47727272727272" y="551.3863636363636" type="curve" smooth="yes"/>
      <point x="133.47727272727272" y="154.5" type="line" smooth="yes"/>
      <point x="133.47727272727272" y="125.52272727272728"/>
      <point x="122.47727272727272" y="54.75"/>
      <point x="117.70454545454545" y="25.34090909090909" type="curve"/>
      <point x="177.97727272727272" y="81.18181818181819" type="line"/>
      <point x="54.22727272727273" y="58.18181818181818" type="line"/>
    </contour>
  </outline>
</glyph>
<glyph name="J" format="2">
  <advance width="377.75"/>
  <unicode hex="004A"/>
  <anchor x="188.52272727272728" y="0.0" name="bottom"/>
  <anchor x="188.52272727272728" y="705.0" name="top"/>
  <outline>
    <contour>
      <point x="91.20454545454545" y="-200.0" type="line"/>
      <point x="170.6590909090909" y="-122.18181818181819"/>
      <point x="254.45454545454544" y="-27.363636363636363"/>
      <point x="254.45454545454544" y="3.0681818181818183" type="curve" smooth="yes"/>
      <point x="254.45454545454544" y="521.3863636363636" type="line" smooth="yes"/>
      <point x="254.45454545454544" y="573.3863636363636"/>
      <point x="263.22727272727275" y="645.3409090909091"/>
      <point x="267.1136363636364" y="674.0" type="curve"/>
      <point x="208.8409090909091" y="625.2727272727273" type="line"/>
      <point x="333.3636363636364" y="637.0454545454545" type="line"/>
      <point x="328.47727272727275" y="710.0" type="line"/>
      <point x="295.25" y="708.2272727272727"/>
      <point x="231.20454545454547" y="705.0"/>
      <point x="166.88636363636363" y="705.0" type="curve" smooth="yes"/>
      <point x="140.79545454545453" y="705.0"/>
      <point x="84.45454545454545" y="708.0"/>
      <point x="48.34090909090909" y="710.0" type="curve"/>
      <point x="43.34090909090909" y="642.0454545454545" type="line"/>
      <point x="165.97727272727272" y="621.3863636363636" type="line"/>
      <point x="106.5909090909091" y="674.0" type="line"/>
      <point x="111.36363636363636" y="645.7045454545455"/>
      <point x="121.47727272727272" y="578.5909090909091"/>
      <point x="121.47727272727272" y="551.3863636363636" type="curve" smooth="yes"/>
      <point x="121.47727272727272" y="11.0" type="line" smooth="yes"/>
      <point x="121.47727272727272" y="-4.0"/>
      <point x="77.25" y="-101.56818181818181"/>
      <point x="44.13636363636364" y="-171.9090909090909" type="curve"/>
    </contour>
  </outline>
</glyph>
<glyph name="K" format="2">
  <advance width="779.5"/>
  <unicode hex="004B"/>
  <anchor x="376.95454545454544" y="0.0" name="bottom"/>
  <anchor x="376.95454545454544" y="720.0" name="top"/>
  <outline>
    <contour>
      <point x="449.59090909090907" y="-5.0" type="line"/>
      <point x="500.90909090909093" y="-3.0"/>
      <point x="579.9772727272727" y="0.0"/>
      <point x="602.5454545454545" y="0.0" type="curve" smooth="yes"/>
      <point x="736.9772727272727" y="0.0" type="line"/>
      <point x="743.0909090909091" y="65.4090909090909" type="line"/>
      <point x="633.6590909090909" y="78.18181818181819" type="line"/>
      <point x="717.2954545454545" y="44.61363636363636" type="line"/>
      <point x="699.1818181818181" y="59.72727272727273"/>
      <point x="637.2272727272727" y="114.77272727272727"/>
      <point x="625.0" y="129.0" type="curve" smooth="yes"/>
      <point x="391.77272727272725" y="400.54545454545456" type="line"/>
      <point x="385.9090909090909" y="327.04545454545456" type="line"/>
      <point x="547.7727272727273" y="546.0" type="line" smooth="yes"/>
      <point x="557.7727272727273" y="559.1136363636364"/>
      <point x="625.7045454545455" y="624.5909090909091"/>
      <point x="653.7954545454545" y="649.6818181818181" type="curve"/>
      <point x="578.7727272727273" y="625.2727272727273" type="line"/>
      <point x="696.8636363636364" y="637.0454545454545" type="line"/>
      <point x="691.9772727272727" y="710.0" type="line"/>
      <point x="633.7727272727273" y="707.0"/>
      <point x="585.3409090909091" y="705.0"/>
      <point x="545.25" y="705.0" type="curve" smooth="yes"/>
      <point x="521.7045454545455" y="705.0"/>
      <point x="476.90909090909093" y="707.1136363636364"/>
      <point x="439.70454545454544" y="710.0" type="curve"/>
      <point x="434.70454545454544" y="642.0454545454545" type="line"/>
      <point x="526.4772727272727" y="624.0454545454545" type="line"/>
      <point x="505.9318181818182" y="680.5454545454545" type="line"/>
      <point x="437.52272727272725" y="577.8863636363636" type="line"/>
      <point x="276.45454545454544" y="347.79545454545456" type="line"/>
      <point x="428.3863636363636" y="164.0" type="line" smooth="yes"/>
      <point x="442.6136363636364" y="146.0"/>
      <point x="496.52272727272725" y="59.63636363636364"/>
      <point x="507.6363636363636" y="42.29545454545455" type="curve"/>
      <point x="543.9090909090909" y="79.29545454545455" type="line"/>
      <point x="444.59090909090907" y="58.18181818181818" type="line"/>
    </contour>
    <contour>
      <point x="59.22727272727273" y="-5.0" type="line"/>
      <point x="117.77272727272727" y="-2.0"/>
      <point x="165.4318181818182" y="0.0"/>
      <point x="203.86363636363637" y="0.0" type="curve" smooth="yes"/>
      <point x="343.3863636363636" y="0.0" type="line"/>
      <point x="348.6136363636364" y="65.4090909090909" type="line"/>
      <point x="221.72727272727272" y="76.29545454545455" type="line"/>
      <point x="281.1136363636364" y="25.34090909090909" type="line"/>
      <point x="276.1136363636364" y="52.22727272727273"/>
      <point x="266.45454545454544" y="128.95454545454547"/>
      <point x="266.45454545454544" y="184.5" type="curve" smooth="yes"/>
      <point x="266.45454545454544" y="521.3863636363636" type="line" smooth="yes"/>
      <point x="266.45454545454544" y="571.6136363636364"/>
      <point x="274.45454545454544" y="632.6363636363636"/>
      <point x="281.0" y="670.0227272727273" type="curve"/>
      <point x="221.72727272727272" y="625.2727272727273" type="line"/>
      <point x="345.3636363636364" y="637.0454545454545" type="line"/>
      <point x="340.47727272727275" y="710.0" type="line"/>
      <point x="276.6136363636364" y="707.0"/>
      <point x="222.75" y="705.0"/>
      <point x="178.88636363636363" y="705.0" type="curve" smooth="yes"/>
      <point x="152.79545454545453" y="705.0"/>
      <point x="96.45454545454545" y="708.0"/>
      <point x="60.34090909090909" y="710.0" type="curve"/>
      <point x="55.34090909090909" y="642.0454545454545" type="line"/>
      <point x="177.97727272727272" y="621.3863636363636" type="line"/>
      <point x="117.70454545454545" y="668.25" type="line"/>
      <point x="125.25" y="634.9545454545455"/>
      <point x="133.47727272727272" y="577.7045454545455"/>
      <point x="133.47727272727272" y="551.3863636363636" type="curve" smooth="yes"/>
      <point x="133.47727272727272" y="154.5" type="line" smooth="yes"/>
      <point x="133.47727272727272" y="125.52272727272728"/>
      <point x="122.47727272727272" y="54.75"/>
      <point x="117.70454545454545" y="25.34090909090909" type="curve"/>
      <point x="177.97727272727272" y="81.18181818181819" type="line"/>
      <point x="54.22727272727273" y="58.18181818181818" type="line"/>
    </contour>
  </outline>
</glyph>
<glyph name="L" format="2">
  <advance width="606.1818181818181"/>
  <unicode hex="004C"/>
  <anchor x="301.09090909090907" y="0.0" name="bottom"/>
  <anchor x="197.77272727272728" y="355.0" name="center"/>
  <anchor x="538.0227272727273" y="423.0" name="centerright"/>
  <anchor x="232.3409090909091" y="720.0" name="top"/>
  <anchor x="475.77272727272725" y="494.0" name="topright"/>
  <outline>
    <contour>
      <point x="59.22727272727273" y="-5.0" type="line"/>
      <point x="110.11363636363636" y="-3.0"/>
      <point x="183.29545454545453" y="0.0"/>
      <point x="203.86363636363637" y="0.0" type="curve" smooth="yes"/>
      <point x="406.6136363636364" y="0.0" type="line" smooth="yes"/>
      <point x="422.0681818181818" y="0.0"/>
      <point x="479.70454545454544" y="-2.0"/>
      <point x="520.6136363636364" y="-4.0" type="curve"/>
      <point x="539.6136363636364" y="14.0" type="line"/>
      <point x="554.6136363636364" y="181.61363636363637" type="line"/>
      <point x="489.97727272727275" y="186.61363636363637" type="line"/>
      <point x="476.75" y="125.70454545454545" type="line" smooth="yes"/>
      <point x="473.75" y="111.04545454545455"/>
      <point x="454.6363636363636" y="75.18181818181819"/>
      <point x="427.34090909090907" y="42.11363636363637" type="curve"/>
      <point x="477.72727272727275" y="90.04545454545455" type="line"/>
      <point x="462.3863636363636" y="86.04545454545455"/>
      <point x="420.15909090909093" y="77.1590909090909"/>
      <point x="376.6136363636364" y="77.1590909090909" type="curve" smooth="yes"/>
      <point x="235.79545454545456" y="77.1590909090909" type="line"/>
      <point x="281.1136363636364" y="25.34090909090909" type="line"/>
      <point x="276.1136363636364" y="52.22727272727273"/>
      <point x="266.45454545454544" y="128.95454545454547"/>
      <point x="266.45454545454544" y="184.5" type="curve" smooth="yes"/>
      <point x="266.45454545454544" y="521.3863636363636" type="line" smooth="yes"/>
      <point x="266.45454545454544" y="571.6136363636364"/>
      <point x="274.45454545454544" y="632.6363636363636"/>
      <point x="281.0" y="670.0227272727273" type="curve"/>
      <point x="221.72727272727272" y="625.2727272727273" type="line"/>
      <point x="355.3636363636364" y="637.0454545454545" type="line"/>
      <point x="350.47727272727275" y="710.0" type="line"/>
      <point x="312.9318181818182" y="708.2272727272727"/>
      <point x="251.95454545454547" y="705.0"/>
      <point x="178.88636363636363" y="705.0" type="curve" smooth="yes"/>
      <point x="152.79545454545453" y="705.0"/>
      <point x="96.45454545454545" y="708.0"/>
      <point x="60.34090909090909" y="710.0" type="curve"/>
      <point x="55.34090909090909" y="642.0454545454545" type="line"/>
      <point x="177.97727272727272" y="621.3863636363636" type="line"/>
      <point x="117.70454545454545" y="668.25" type="line"/>
      <point x="125.25" y="634.9545454545455"/>
      <point x="133.47727272727272" y="577.7045454545455"/>
      <point x="133.47727272727272" y="551.3863636363636" type="curve" smooth="yes"/>
      <point x="133.47727272727272" y="154.5" type="line" smooth="yes"/>
      <point x="133.47727272727272" y="125.52272727272728"/>
      <point x="122.47727272727272" y="54.75"/>
      <point x="117.70454545454545" y="25.34090909090909" type="curve"/>
      <point x="177.97727272727272" y="81.18181818181819" type="line"/>
      <point x="54.22727272727273" y="58.18181818181818" type="line"/>
    </contour>
  </outline>
</glyph>
<glyph name="M" format="2">
  <advance width="993.125"/>
  <unicode hex="004D"/>
  <anchor x="496.09090909090907" y="0.0" name="bottom"/>
  <anchor x="496.09090909090907" y="705.0" name="top"/>
  <outline>
    <contour>
      <point x="52.34090909090909" y="-5.0" type="line"/>
      <point x="92.3409090909091" y="-3.0"/>
      <point x="153.3409090909091" y="0.0"/>
      <point x="172.45454545454547" y="0.0" type="curve" smooth="yes"/>
      <point x="300.6363636363636" y="0.0" type="line"/>
      <point x="307.6363636363636" y="65.4090909090909" type="line"/>
      <point x="181.0" y="76.29545454545455" type="line"/>
      <point x="238.5" y="29.977272727272727" type="line"/>
      <point x="234.61363636363637" y="60.04545454545455"/>
      <point x="229.27272727272728" y="141.75"/>
      <point x="231.27272727272728" y="183.61363636363637" type="curve" smooth="yes"/>
      <point x="253.72727272727272" y="594.6363636363636" type="line"/>
      <point x="232.63636363636363" y="591.75" type="line"/>
      <point x="443.59090909090907" y="0.0" type="line"/>
      <point x="516.3636363636364" y="0.0" type="line"/>
      <point x="730.8636363636364" y="590.8636363636364" type="line"/>
      <point x="709.7727272727273" y="594.6363636363636" type="line"/>
      <point x="732.7954545454545" y="153.61363636363637" type="line" smooth="yes"/>
      <point x="733.9090909090909" y="125.18181818181819"/>
      <point x="726.3409090909091" y="52.29545454545455"/>
      <point x="723.3409090909091" y="29.977272727272727" type="curve"/>
      <point x="781.1818181818181" y="81.18181818181819" type="line"/>
      <point x="658.5454545454545" y="58.18181818181818" type="line"/>
      <point x="663.5454545454545" y="-5.0" type="line"/>
      <point x="709.4318181818181" y="-3.0"/>
      <point x="776.0909090909091" y="0.0"/>
      <point x="801.9772727272727" y="0.0" type="curve" smooth="yes"/>
      <point x="938.8409090909091" y="0.0" type="line"/>
      <point x="944.9545454545455" y="65.4090909090909" type="line"/>
      <point x="819.0909090909091" y="76.29545454545455" type="line"/>
      <point x="881.4772727272727" y="29.977272727272727" type="line"/>
      <point x="875.3636363636364" y="54.88636363636363"/>
      <point x="858.25" y="142.45454545454547"/>
      <point x="854.4772727272727" y="183.61363636363637" type="curve" smooth="yes"/>
      <point x="829.0227272727273" y="521.3863636363636" type="line" smooth="yes"/>
      <point x="825.25" y="567.75"/>
      <point x="829.1363636363636" y="623.5454545454545"/>
      <point x="830.1363636363636" y="655.3863636363636" type="curve"/>
      <point x="775.6363636363636" y="625.2727272727273" type="line"/>
      <point x="899.5" y="637.0454545454545" type="line"/>
      <point x="894.6136363636364" y="710.0" type="line"/>
      <point x="858.0227272727273" y="708.0"/>
      <point x="796.7045454545455" y="705.0"/>
      <point x="754.4545454545455" y="705.0" type="curve" smooth="yes"/>
      <point x="682.1590909090909" y="705.0" type="line"/>
      <point x="662.1590909090909" y="685.0" type="line"/>
      <point x="646.7045454545455" y="634.4318181818181"/>
      <point x="623.1363636363636" y="561.75"/>
      <point x="617.0227272727273" y="544.8636363636364" type="curve"/>
      <point x="479.4318181818182" y="154.1818181818182" type="line"/>
      <point x="514.1818181818181" y="154.1818181818182" type="line"/>
      <point x="383.02272727272725" y="532.5454545454545" type="line"/>
      <point x="375.1363636363636" y="555.75"/>
      <point x="352.5681818181818" y="633.2045454545455"/>
      <point x="337.1136363636364" y="684.8863636363636" type="curve"/>
      <point x="317.22727272727275" y="705.0" type="line"/>
      <point x="206.77272727272728" y="705.0" type="line" smooth="yes"/>
      <point x="180.6818181818182" y="705.0"/>
      <point x="125.22727272727273" y="708.0"/>
      <point x="89.11363636363636" y="710.0" type="curve"/>
      <point x="84.11363636363636" y="642.0454545454545" type="line"/>
      <point x="207.4318181818182" y="621.5" type="line"/>
      <point x="153.36363636363637" y="659.2954545454545" type="line"/>
      <point x="155.5909090909091" y="638.6136363636364"/>
      <point x="161.47727272727272" y="580.4772727272727"/>
      <point x="159.5909090909091" y="551.5" type="curve" smooth="yes"/>
      <point x="135.36363636363637" y="153.61363636363637" type="line" smooth="yes"/>
      <point x="133.47727272727272" y="125.52272727272728"/>
      <point x="117.45454545454545" y="61.47727272727273"/>
      <point x="110.02272727272727" y="29.977272727272727" type="curve"/>
      <point x="172.75" y="81.18181818181819" type="line"/>
      <point x="47.34090909090909" y="58.18181818181818" type="line"/>
    </contour>
  </outline>
</glyph>
<glyph name="O" format="2">
  <advance width="825.125"/>
  <unicode hex="004F"/>
  <anchor x="412.1818181818182" y="0.0" name="bottom"/>
  <anchor x="430.9318181818182" y="353.0" name="center"/>
  <anchor x="524.7272727272727" y="0.0" name="ogonek"/>
  <anchor x="411.29545454545456" y="720.0" name="top"/>
  <anchor x="610.6818181818181" y="630.0" name="topright"/>
  <outline>
    <contour>
      <point x="412.1818181818182" y="-15.0" type="curve" smooth="yes"/>
      <point x="628.2954545454545" y="-15.0"/>
      <point x="759.3409090909091" y="132.3409090909091"/>
      <point x="759.3409090909091" y="352.0" type="curve" smooth="yes"/>
      <point x="759.3409090909091" y="572.6590909090909"/>
      <point x="628.2954545454545" y="720.0"/>
      <point x="412.1818181818182" y="720.0" type="curve" smooth="yes"/>
      <point x="195.1818181818182" y="720.0"/>
      <point x="64.9090909090909" y="572.6590909090909"/>
      <point x="64.9090909090909" y="352.0" type="curve" smooth="yes"/>
      <point x="64.9090909090909" y="132.3409090909091"/>
      <point x="195.1818181818182" y="-15.0"/>
    </contour>
    <contour>
      <point x="412.1818181818182" y="66.9090909090909" type="curve" smooth="yes"/>
      <point x="282.3409090909091" y="66.9090909090909"/>
      <point x="219.97727272727272" y="172.79545454545453"/>
      <point x="219.97727272727272" y="352.0" type="curve" smooth="yes"/>
      <point x="219.97727272727272" y="532.2045454545455"/>
      <point x="282.3409090909091" y="638.0909090909091"/>
      <point x="412.1818181818182" y="638.0909090909091" type="curve" smooth="yes"/>
      <point x="541.9090909090909" y="638.0909090909091"/>
      <point x="604.2727272727273" y="532.2045454545455"/>
      <point x="604.2727272727273" y="352.0" type="curve" smooth="yes"/>
      <point x="604.2727272727273" y="172.79545454545453"/>
      <point x="541.9090909090909" y="66.9090909090909"/>
    </contour>
  </outline>
</glyph>
<glyph name="P" format="2">
  <advance width="650.0"/>
  <unicode hex="0050"/>
  <anchor x="325.52272727272725" y="0.0" name="bottom"/>
  <anchor x="325.52272727272725" y="705.0" name="top"/>
  <outline>
    <contour>
      <point x="59.22727272727273" y="-5.0" type="line"/>
      <point x="107.77272727272727" y="-3.0"/>
      <point x="175.4318181818182" y="0.0"/>
      <point x="203.86363636363637" y="0.0" type="curve" smooth="yes"/>
      <point x="353.3863636363636" y="0.0" type="line"/>
      <point x="359.5" y="65.4090909090909" type="line"/>
      <point x="221.72727272727272" y="76.29545454545455" type="line"/>
      <point x="281.1136363636364" y="25.34090909090909" type="line"/>
      <point x="276.1136363636364" y="52.22727272727273"/>
      <point x="266.45454545454544" y="128.95454545454547"/>
      <point x="266.45454545454544" y="184.5" type="curve" smooth="yes"/>
      <point x="266.45454545454544" y="521.3863636363636" type="line" smooth="yes"/>
      <point x="266.45454545454544" y="570.7272727272727"/>
      <point x="271.90909090909093" y="632.6363636363636"/>
      <point x="277.45454545454544" y="670.0227272727273" type="curve"/>
      <point x="178.88636363636363" y="705.0" type="line"/>
      <point x="152.79545454545453" y="705.0"/>
      <point x="96.45454545454545" y="708.0"/>
      <point x="60.34090909090909" y="710.0" type="curve"/>
      <point x="55.34090909090909" y="642.0454545454545" type="line"/>
      <point x="177.97727272727272" y="621.3863636363636" type="line"/>
      <point x="117.70454545454545" y="668.25" type="line"/>
      <point x="125.25" y="634.9545454545455"/>
      <point x="133.47727272727272" y="577.7045454545455"/>
      <point x="133.47727272727272" y="551.3863636363636" type="curve" smooth="yes"/>
      <point x="133.47727272727272" y="154.5" type="line" smooth="yes"/>
      <point x="133.47727272727272" y="125.52272727272728"/>
      <point x="122.47727272727272" y="54.75"/>
      <point x="117.70454545454545" y="25.34090909090909" type="curve"/>
      <point x="177.97727272727272" y="81.18181818181819" type="line"/>
      <point x="54.22727272727273" y="58.18181818181818" type="line"/>
    </contour>
    <contour>
      <point x="333.6363636363636" y="277.9318181818182" type="curve" smooth="yes"/>
      <point x="471.95454545454544" y="277.9318181818182"/>
      <point x="596.25" y="358.25"/>
      <point x="596.25" y="498.45454545454544" type="curve" smooth="yes"/>
      <point x="596.25" y="633.7954545454545"/>
      <point x="503.3863636363636" y="710.0"/>
      <point x="364.5" y="710.0" type="curve" smooth="yes"/>
      <point x="309.5" y="710.0"/>
      <point x="233.88636363636363" y="705.0"/>
      <point x="178.88636363636363" y="705.0" type="curve"/>
      <point x="178.88636363636363" y="630.1818181818181" type="line"/>
      <point x="210.36363636363637" y="633.2954545454545"/>
      <point x="282.27272727272725" y="638.9545454545455"/>
      <point x="311.97727272727275" y="638.9545454545455" type="curve" smooth="yes"/>
      <point x="408.1136363636364" y="638.9545454545455"/>
      <point x="457.6136363636364" y="592.7045454545455"/>
      <point x="457.6136363636364" y="498.45454545454544" type="curve" smooth="yes"/>
      <point x="457.6136363636364" y="400.97727272727275"/>
      <point x="396.59090909090907" y="348.8636363636364"/>
      <point x="301.34090909090907" y="348.8636363636364" type="curve" smooth="yes"/>
      <point x="258.77272727272725" y="348.8636363636364"/>
      <point x="215.20454545454547" y="351.54545454545456"/>
      <point x="172.63636363636363" y="353.1136363636364" type="curve"/>
      <point x="172.63636363636363" y="279.3863636363636" type="line"/>
      <point x="256.3409090909091" y="278.15909090909093"/>
      <point x="297.1363636363636" y="277.9318181818182"/>
    </contour>
  </outline>
</glyph>
<glyph name="Q" format="2">
  <advance width="822.625"/>
  <unicode hex="0051"/>
  <anchor x="411.40909090909093" y="0.0" name="bottom"/>
  <anchor x="411.40909090909093" y="705.0" name="top"/>
  <outline>
    <contour>
      <point x="411.29545454545456" y="-15.0" type="curve" smooth="yes"/>
      <point x="627.4090909090909" y="-15.0"/>
      <point x="758.4545454545455" y="132.3409090909091"/>
      <point x="758.4545454545455" y="352.0" type="curve" smooth="yes"/>
      <point x="758.4545454545455" y="572.6590909090909"/>
      <point x="627.4090909090909" y="720.0"/>
      <point x="411.29545454545456" y="720.0" type="curve" smooth="yes"/>
      <point x="194.29545454545453" y="720.0"/>
      <point x="64.02272727272727" y="572.6590909090909"/>
      <point x="64.02272727272727" y="352.0" type="curve" smooth="yes"/>
      <point x="64.02272727272727" y="132.3409090909091"/>
      <point x="194.29545454545453" y="-15.0"/>
    </contour>
    <contour>
      <point x="710.5" y="-224.0" type="line"/>
      <point x="789.6590909090909" y="-110.95454545454545" type="line"/>
      <point x="728.6590909090909" y="-85.8409090909091"/>
      <point x="642.7727272727273" y="-48.72727272727273"/>
      <point x="631.6590909090909" y="-41.61363636363636" type="curve" smooth="yes"/>
      <point x="517.2045454545455" y="35.84090909090909" type="line"/>
      <point x="402.45454545454544" y="9.65909090909091" type="line"/>
    </contour>
    <contour>
      <point x="411.29545454545456" y="66.9090909090909" type="curve" smooth="yes"/>
      <point x="281.45454545454544" y="66.9090909090909"/>
      <point x="219.0909090909091" y="172.79545454545453"/>
      <point x="219.0909090909091" y="352.0" type="curve" smooth="yes"/>
      <point x="219.0909090909091" y="532.2045454545455"/>
      <point x="281.45454545454544" y="638.0909090909091"/>
      <point x="411.29545454545456" y="638.0909090909091" type="curve" smooth="yes"/>
      <point x="541.0227272727273" y="638.0909090909091"/>
      <point x="603.3863636363636" y="532.2045454545455"/>
      <point x="603.3863636363636" y="352.0" type="curve" smooth="yes"/>
      <point x="603.3863636363636" y="172.79545454545453"/>
      <point x="541.0227272727273" y="66.9090909090909"/>
    </contour>
  </outline>
</glyph>
<glyph name="R" format="2">
  <advance width="707.125"/>
  <unicode hex="0052"/>
  <anchor x="345.47727272727275" y="0.0" name="bottom"/>
  <anchor x="331.72727272727275" y="720.0" name="top"/>
  <outline>
    <contour>
      <point x="59.22727272727273" y="-5.0" type="line"/>
      <point x="107.77272727272727" y="-3.0"/>
      <point x="175.4318181818182" y="0.0"/>
      <point x="203.86363636363637" y="0.0" type="curve" smooth="yes"/>
      <point x="336.40909090909093" y="0.0" type="line"/>
      <point x="342.52272727272725" y="65.4090909090909" type="line"/>
      <point x="221.72727272727272" y="76.29545454545455" type="line"/>
      <point x="281.1136363636364" y="25.34090909090909" type="line"/>
      <point x="276.1136363636364" y="52.22727272727273"/>
      <point x="266.45454545454544" y="128.95454545454547"/>
      <point x="266.45454545454544" y="184.5" type="curve" smooth="yes"/>
      <point x="266.45454545454544" y="521.3863636363636" type="line" smooth="yes"/>
      <point x="266.45454545454544" y="570.7272727272727"/>
      <point x="271.90909090909093" y="632.6363636363636"/>
      <point x="277.45454545454544" y="670.0227272727273" type="curve"/>
      <point x="178.88636363636363" y="705.0" type="line"/>
      <point x="152.79545454545453" y="705.0"/>
      <point x="96.45454545454545" y="708.0"/>
      <point x="60.34090909090909" y="710.0" type="curve"/>
      <point x="55.34090909090909" y="642.0454545454545" type="line"/>
      <point x="177.97727272727272" y="621.3863636363636" type="line"/>
      <point x="117.70454545454545" y="668.25" type="line"/>
      <point x="125.25" y="634.9545454545455"/>
      <point x="133.47727272727272" y="577.7045454545455"/>
      <point x="133.47727272727272" y="551.3863636363636" type="curve" smooth="yes"/>
      <point x="133.47727272727272" y="154.5" type="line" smooth="yes"/>
      <point x="133.47727272727272" y="125.52272727272728"/>
      <point x="122.47727272727272" y="54.75"/>
      <point x="117.70454545454545" y="25.34090909090909" type="curve"/>
      <point x="177.97727272727272" y="81.18181818181819" type="line"/>
      <point x="54.22727272727273" y="58.18181818181818" type="line"/>
    </contour>
    <contour>
      <point x="477.79545454545456" y="0.0" type="curve"/>
      <point x="656.7272727272727" y="0.0" type="line"/>
      <point x="662.8409090909091" y="65.4090909090909" type="line"/>
      <point x="606.6818181818181" y="70.63636363636364" type="line"/>
      <point x="595.8863636363636" y="86.54545454545455"/>
      <point x="575.4318181818181" y="116.88636363636364"/>
      <point x="566.4318181818181" y="131.0" type="curve" smooth="yes"/>
      <point x="561.2045454545455" y="140.0"/>
      <point x="494.77272727272725" y="243.0"/>
      <point x="444.4318181818182" y="349.0" type="curve"/>
      <point x="307.0" y="345.0" type="line"/>
      <point x="426.22727272727275" y="116.0" type="line" smooth="yes"/>
      <point x="434.22727272727275" y="100.0"/>
      <point x="460.6818181818182" y="39.0"/>
    </contour>
    <contour>
      <point x="325.65909090909093" y="285.27272727272725" type="curve" smooth="yes"/>
      <point x="464.75" y="285.27272727272725"/>
      <point x="590.5909090909091" y="369.02272727272725"/>
      <point x="590.5909090909091" y="505.34090909090907" type="curve" smooth="yes"/>
      <point x="590.5909090909091" y="634.0227272727273"/>
      <point x="498.72727272727275" y="710.0"/>
      <point x="360.84090909090907" y="710.0" type="curve" smooth="yes"/>
      <point x="305.84090909090907" y="710.0"/>
      <point x="233.88636363636363" y="705.0"/>
      <point x="178.88636363636363" y="705.0" type="curve"/>
      <point x="178.88636363636363" y="628.9545454545455" type="line"/>
      <point x="211.25" y="632.2954545454545"/>
      <point x="289.9318181818182" y="638.9545454545455"/>
      <point x="314.52272727272725" y="638.9545454545455" type="curve" smooth="yes"/>
      <point x="408.77272727272725" y="638.9545454545455"/>
      <point x="451.95454545454544" y="589.5"/>
      <point x="451.95454545454544" y="500.90909090909093" type="curve" smooth="yes"/>
      <point x="451.95454545454544" y="405.54545454545456"/>
      <point x="399.90909090909093" y="357.97727272727275"/>
      <point x="305.65909090909093" y="357.97727272727275" type="curve" smooth="yes"/>
      <point x="259.54545454545456" y="357.97727272727275"/>
      <point x="213.54545454545453" y="360.65909090909093"/>
      <point x="167.4318181818182" y="362.22727272727275" type="curve"/>
      <point x="167.4318181818182" y="295.47727272727275" type="line"/>
      <point x="220.4318181818182" y="290.70454545454544"/>
      <point x="273.54545454545456" y="285.27272727272725"/>
    </contour>
  </outline>
</glyph>
<glyph name="S" format="2">
  <advance width="613.5"/>
  <unicode hex="0053"/>
  <anchor x="296.84090909090907" y="0.0" name="bottom"/>
  <anchor x="314.4318181818182" y="720.0" name="top"/>
  <outline>
    <contour>
      <point x="298.75" y="-15.0" type="curve" smooth="yes"/>
      <point x="438.6136363636364" y="-15.0"/>
      <point x="549.1590909090909" y="61.29545454545455"/>
      <point x="549.1590909090909" y="196.8409090909091" type="curve" smooth="yes"/>
      <point x="549.1590909090909" y="425.6136363636364"/>
      <point x="221.54545454545456" y="406.6363636363636"/>
      <point x="221.54545454545456" y="548.7954545454545" type="curve" smooth="yes"/>
      <point x="221.54545454545456" y="606.9545454545455"/>
      <point x="265.6818181818182" y="640.5227272727273"/>
      <point x="326.79545454545456" y="640.5227272727273" type="curve" smooth="yes"/>
      <point x="379.90909090909093" y="640.5227272727273"/>
      <point x="434.1818181818182" y="615.25"/>
      <point x="476.1136363636364" y="594.1136363636364" type="curve"/>
      <point x="406.45454545454544" y="660.3636363636364" type="line"/>
      <point x="418.77272727272725" y="626.3863636363636"/>
      <point x="435.09090909090907" y="577.2954545454545"/>
      <point x="435.09090909090907" y="566.8409090909091" type="curve" smooth="yes"/>
      <point x="436.8636363636364" y="511.54545454545456" type="line"/>
      <point x="508.15909090909093" y="507.20454545454544" type="line"/>
      <point x="522.1590909090909" y="685.3409090909091" type="line"/>
      <point x="453.72727272727275" y="704.8863636363636"/>
      <point x="373.75" y="720.0"/>
      <point x="307.8636363636364" y="720.0" type="curve" smooth="yes"/>
      <point x="176.0" y="720.0"/>
      <point x="79.45454545454545" y="647.1363636363636"/>
      <point x="79.45454545454545" y="526.25" type="curve" smooth="yes"/>
      <point x="79.45454545454545" y="295.40909090909093"/>
      <point x="404.72727272727275" y="320.04545454545456"/>
      <point x="404.72727272727275" y="167.3409090909091" type="curve" smooth="yes"/>
      <point x="404.72727272727275" y="102.18181818181819"/>
      <point x="356.27272727272725" y="69.47727272727272"/>
      <point x="291.1136363636364" y="69.47727272727272" type="curve" smooth="yes"/>
      <point x="226.13636363636363" y="69.47727272727272"/>
      <point x="173.02272727272728" y="97.11363636363636"/>
      <point x="130.9318181818182" y="116.77272727272728" type="curve"/>
      <point x="194.13636363636363" y="50.34090909090909" type="line"/>
      <point x="191.79545454545456" y="59.25"/>
      <point x="163.29545454545453" y="133.63636363636363"/>
      <point x="163.29545454545453" y="146.75" type="curve" smooth="yes"/>
      <point x="162.4090909090909" y="208.70454545454544" type="line"/>
      <point x="85.0" y="214.70454545454544" type="line"/>
      <point x="70.0" y="34.45454545454545" type="line"/>
      <point x="110.54545454545455" y="13.227272727272727"/>
      <point x="199.86363636363637" y="-15.0"/>
    </contour>
  </outline>
</glyph>
<glyph name="T" format="2">
  <advance width="704.75"/>
  <unicode hex="0054"/>
  <anchor x="353.4318181818182" y="0.0" name="bottom"/>
  <anchor x="350.75" y="353.0" name="center"/>
  <anchor x="351.97727272727275" y="720.0" name="top"/>
  <outline>
    <contour>
      <point x="194.5909090909091" y="-5.0" type="line"/>
      <point x="248.79545454545453" y="-3.0"/>
      <point x="331.4318181818182" y="0.0"/>
      <point x="356.20454545454544" y="0.0" type="curve" smooth="yes"/>
      <point x="511.9318181818182" y="0.0" type="line"/>
      <point x="517.1590909090909" y="65.4090909090909" type="line"/>
      <point x="373.29545454545456" y="76.29545454545455" type="line"/>
      <point x="433.45454545454544" y="25.34090909090909" type="line"/>
      <point x="427.6818181818182" y="54.88636363636363"/>
      <point x="418.90909090909093" y="130.72727272727272"/>
      <point x="418.90909090909093" y="184.5" type="curve" smooth="yes"/>
      <point x="418.90909090909093" y="521.3863636363636" type="line" smooth="yes"/>
      <point x="418.90909090909093" y="576.9318181818181"/>
      <point x="426.90909090909093" y="632.6363636363636"/>
      <point x="433.3409090909091" y="670.0227272727273" type="curve"/>
      <point x="270.15909090909093" y="668.25" type="line"/>
      <point x="276.70454545454544" y="637.6136363636364"/>
      <point x="285.9318181818182" y="577.7045454545455"/>
      <point x="285.9318181818182" y="551.3863636363636" type="curve" smooth="yes"/>
      <point x="285.9318181818182" y="154.5" type="line" smooth="yes"/>
      <point x="285.9318181818182" y="127.29545454545455"/>
      <point x="274.9318181818182" y="56.52272727272727"/>
      <point x="270.15909090909093" y="25.34090909090909" type="curve"/>
      <point x="329.54545454545456" y="81.18181818181819" type="line"/>
      <point x="189.5909090909091" y="58.18181818181818" type="line"/>
    </contour>
    <contour>
      <point x="119.43181818181819" y="512.4772727272727" type="line"/>
      <point x="121.43181818181819" y="532.3863636363636"/>
      <point x="127.54545454545455" y="575.3863636363636"/>
      <point x="131.54545454545453" y="591.2727272727273" type="curve"/>
      <point x="160.22727272727272" y="678.7727272727273" type="line"/>
      <point x="106.70454545454545" y="625.5" type="line"/>
      <point x="118.8409090909091" y="626.5"/>
      <point x="177.9318181818182" y="632.3863636363636"/>
      <point x="224.3409090909091" y="632.3863636363636" type="curve" smooth="yes"/>
      <point x="483.04545454545456" y="632.3863636363636" type="line" smooth="yes"/>
      <point x="530.3409090909091" y="632.3863636363636"/>
      <point x="581.4545454545455" y="627.5"/>
      <point x="601.4545454545455" y="625.5" type="curve"/>
      <point x="540.9545454545455" y="677.8863636363636" type="line"/>
      <point x="574.9545454545455" y="591.2727272727273" type="line"/>
      <point x="577.2954545454545" y="576.2727272727273"/>
      <point x="583.4090909090909" y="532.3863636363636"/>
      <point x="585.4090909090909" y="512.4772727272727" type="curve"/>
      <point x="651.2727272727273" y="517.4772727272727" type="line"/>
      <point x="643.3863636363636" y="692.0" type="line"/>
      <point x="624.3863636363636" y="710.0" type="line"/>
      <point x="594.25" y="708.0"/>
      <point x="526.6136363636364" y="705.0"/>
      <point x="509.5" y="705.0" type="curve" smooth="yes"/>
      <point x="194.3409090909091" y="705.0" type="line" smooth="yes"/>
      <point x="176.3409090909091" y="705.0"/>
      <point x="118.3409090909091" y="708.0"/>
      <point x="80.3409090909091" y="710.0" type="curve"/>
      <point x="60.45454545454545" y="692.0" type="line"/>
      <point x="53.45454545454545" y="517.4772727272727" type="line"/>
    </contour>
  </outline>
</glyph>
<glyph name="U" format="2">
  <advance width="800.625"/>
  <unicode hex="0055"/>
  <anchor x="400.77272727272725" y="0.0" name="bottom"/>
  <anchor x="648.1363636363636" y="460.0" name="horn"/>
  <anchor x="505.84090909090907" y="0.0" name="ogonek"/>
  <anchor x="407.1818181818182" y="720.0" name="top"/>
  <outline>
    <contour>
      <point x="398.97727272727275" y="-15.0" type="curve" smooth="yes"/>
      <point x="582.2727272727273" y="-15.0"/>
      <point x="678.1363636363636" y="96.77272727272727"/>
      <point x="678.1363636363636" y="267.77272727272725" type="curve" smooth="yes"/>
      <point x="678.1363636363636" y="519.0454545454545" type="line" smooth="yes"/>
      <point x="678.1363636363636" y="570.1590909090909"/>
      <point x="686.1363636363636" y="638.6136363636364"/>
      <point x="693.4545454545455" y="678.4545454545455" type="curve"/>
      <point x="633.4090909090909" y="625.2727272727273" type="line"/>
      <point x="757.1590909090909" y="637.0454545454545" type="line"/>
      <point x="752.2727272727273" y="710.0" type="line"/>
      <point x="714.3863636363636" y="708.0"/>
      <point x="666.9318181818181" y="705.0"/>
      <point x="601.8863636363636" y="705.0" type="curve" smooth="yes"/>
      <point x="577.4545454545455" y="705.0"/>
      <point x="526.7954545454545" y="708.0"/>
      <point x="493.34090909090907" y="710.0" type="curve"/>
      <point x="488.34090909090907" y="642.0454545454545" type="line"/>
      <point x="611.5454545454545" y="621.3863636363636" type="line"/>
      <point x="550.7045454545455" y="678.4545454545455" type="line"/>
      <point x="555.4772727272727" y="645.9545454545455"/>
      <point x="566.7045454545455" y="576.25"/>
      <point x="566.7045454545455" y="549.0454545454545" type="curve" smooth="yes"/>
      <point x="566.7045454545455" y="262.45454545454544" type="line" smooth="yes"/>
      <point x="566.7045454545455" y="153.1818181818182"/>
      <point x="522.7727272727273" y="82.22727272727272"/>
      <point x="413.29545454545456" y="82.22727272727272" type="curve" smooth="yes"/>
      <point x="311.3636363636364" y="82.22727272727272"/>
      <point x="258.79545454545456" y="160.04545454545456"/>
      <point x="258.79545454545456" y="262.45454545454544" type="curve" smooth="yes"/>
      <point x="258.79545454545456" y="519.0454545454545" type="line" smooth="yes"/>
      <point x="258.79545454545456" y="569.2727272727273"/>
      <point x="264.1363636363636" y="630.75"/>
      <point x="271.45454545454544" y="678.4545454545455" type="curve"/>
      <point x="212.29545454545453" y="625.2727272727273" type="line"/>
      <point x="336.9318181818182" y="637.0454545454545" type="line"/>
      <point x="332.04545454545456" y="710.0" type="line"/>
      <point x="308.02272727272725" y="708.8863636363636"/>
      <point x="237.45454545454544" y="705.0"/>
      <point x="166.88636363636363" y="705.0" type="curve" smooth="yes"/>
      <point x="140.79545454545453" y="705.0"/>
      <point x="84.45454545454545" y="708.0"/>
      <point x="48.34090909090909" y="710.0" type="curve"/>
      <point x="43.34090909090909" y="642.0454545454545" type="line"/>
      <point x="165.4318181818182" y="621.5" type="line"/>
      <point x="106.70454545454545" y="678.4545454545455" type="line"/>
      <point x="109.93181818181819" y="654.1136363636364"/>
      <point x="120.93181818181819" y="578.0227272727273"/>
      <point x="120.93181818181819" y="549.0454545454545" type="curve" smooth="yes"/>
      <point x="120.93181818181819" y="267.77272727272725" type="line" smooth="yes"/>
      <point x="120.93181818181819" y="96.77272727272727"/>
      <point x="214.9090909090909" y="-15.0"/>
    </contour>
  </outline>
</glyph>
<glyph name="V" format="2">
  <advance width="759.875"/>
  <unicode hex="0056"/>
  <anchor x="380.02272727272725" y="0.0" name="bottom"/>
  <anchor x="380.02272727272725" y="720.0" name="top"/>
  <outline>
    <contour>
      <point x="334.1136363636364" y="0.0" type="line"/>
      <point x="430.1136363636364" y="0.0" type="line"/>
      <point x="619.2272727272727" y="523.1818181818181" type="line" smooth="yes"/>
      <point x="636.9090909090909" y="571.2272727272727"/>
      <point x="675.4318181818181" y="639.5909090909091"/>
      <point x="689.0909090909091" y="661.25" type="curve"/>
      <point x="617.0454545454545" y="626.0454545454545" type="line"/>
      <point x="716.3636363636364" y="637.0454545454545" type="line"/>
      <point x="711.4772727272727" y="710.0" type="line"/>
      <point x="666.1363636363636" y="707.0"/>
      <point x="611.1590909090909" y="705.0"/>
      <point x="574.4545454545455" y="705.0" type="curve" smooth="yes"/>
      <point x="549.9318181818181" y="705.0"/>
      <point x="498.20454545454544" y="707.8863636363636"/>
      <point x="462.6363636363636" y="710.0" type="curve"/>
      <point x="457.6363636363636" y="642.0454545454545" type="line"/>
      <point x="580.6136363636364" y="621.1590909090909" type="line"/>
      <point x="542.0909090909091" y="660.1590909090909" type="line"/>
      <point x="540.2045454545455" y="638.2727272727273"/>
      <point x="527.6818181818181" y="578.75"/>
      <point x="519.4545454545455" y="554.4090909090909" type="curve" smooth="yes"/>
      <point x="377.72727272727275" y="135.9318181818182" type="line"/>
      <point x="412.3636363636364" y="135.9318181818182" type="line"/>
      <point x="281.27272727272725" y="519.0454545454545" type="line" smooth="yes"/>
      <point x="269.25" y="553.9772727272727"/>
      <point x="248.38636363636363" y="635.25"/>
      <point x="246.27272727272728" y="664.7954545454545" type="curve"/>
      <point x="198.6590909090909" y="624.5909090909091" type="line"/>
      <point x="338.1363636363636" y="637.0454545454545" type="line"/>
      <point x="333.25" y="710.0" type="line"/>
      <point x="274.84090909090907" y="707.0"/>
      <point x="207.79545454545453" y="705.0"/>
      <point x="158.13636363636363" y="705.0" type="curve" smooth="yes"/>
      <point x="133.70454545454547" y="705.0"/>
      <point x="81.9090909090909" y="707.1136363636364"/>
      <point x="48.34090909090909" y="710.0" type="curve"/>
      <point x="43.34090909090909" y="642.0454545454545" type="line"/>
      <point x="145.3409090909091" y="617.2727272727273" type="line"/>
      <point x="75.95454545454545" y="657.25" type="line"/>
      <point x="87.61363636363636" y="640.4772727272727"/>
      <point x="115.18181818181819" y="588.9318181818181"/>
      <point x="129.63636363636363" y="550.7954545454545" type="curve" smooth="yes"/>
    </contour>
  </outline>
</glyph>
<glyph name="W" format="2">
  <advance width="1080.125"/>
  <unicode hex="0057"/>
  <anchor x="540.4772727272727" y="0.0" name="bottom"/>
  <anchor x="540.4772727272727" y="705.0" name="top"/>
  <outline>
    <contour>
      <point x="301.77272727272725" y="0.0" type="line"/>
      <point x="398.65909090909093" y="0.0" type="line"/>
      <point x="554.4545454545455" y="503.3409090909091" type="line"/>
      <point x="523.0454545454545" y="503.3409090909091" type="line"/>
      <point x="680.0" y="0.0" type="line"/>
      <point x="776.8863636363636" y="0.0" type="line"/>
      <point x="940.0" y="523.1818181818181" type="line"/>
      <point x="954.1136363636364" y="568.5227272727273"/>
      <point x="991.4318181818181" y="639.9090909090909"/>
      <point x="1011.8636363636364" y="666.1363636363636" type="curve"/>
      <point x="935.1590909090909" y="626.0454545454545" type="line"/>
      <point x="1036.6136363636363" y="637.0454545454545" type="line"/>
      <point x="1032.6136363636363" y="710.0" type="line"/>
      <point x="996.5" y="708.0"/>
      <point x="932.5227272727273" y="705.0"/>
      <point x="894.7045454545455" y="705.0" type="curve" smooth="yes"/>
      <point x="871.2727272727273" y="705.0"/>
      <point x="824.2045454545455" y="707.8863636363636"/>
      <point x="791.6363636363636" y="710.0" type="curve"/>
      <point x="786.6363636363636" y="642.0454545454545" type="line"/>
      <point x="909.1590909090909" y="620.9318181818181" type="line"/>
      <point x="860.2045454545455" y="668.7727272727273" type="line"/>
      <point x="861.9772727272727" y="645.0227272727273"/>
      <point x="848.4545454545455" y="579.8863636363636"/>
      <point x="842.0" y="555.2954545454545" type="curve"/>
      <point x="727.3863636363636" y="134.9318181818182" type="line"/>
      <point x="756.25" y="134.9318181818182" type="line"/>
      <point x="597.2954545454545" y="678.9090909090909" type="line"/>
      <point x="504.8636363636364" y="678.9090909090909" type="line"/>
      <point x="349.15909090909093" y="134.9318181818182" type="line"/>
      <point x="377.02272727272725" y="134.9318181818182" type="line"/>
      <point x="274.72727272727275" y="519.0454545454545" type="line"/>
      <point x="262.9318181818182" y="563.4318181818181"/>
      <point x="248.61363636363637" y="635.8863636363636"/>
      <point x="246.5" y="666.7727272727273" type="curve"/>
      <point x="198.6590909090909" y="624.5909090909091" type="line"/>
      <point x="329.3863636363636" y="637.0454545454545" type="line"/>
      <point x="324.5" y="710.0" type="line"/>
      <point x="279.52272727272725" y="708.0"/>
      <point x="205.13636363636363" y="705.0"/>
      <point x="159.02272727272728" y="705.0" type="curve" smooth="yes"/>
      <point x="134.5909090909091" y="705.0"/>
      <point x="81.9090909090909" y="708.0"/>
      <point x="48.34090909090909" y="710.0" type="curve"/>
      <point x="43.34090909090909" y="642.0454545454545" type="line"/>
      <point x="143.6818181818182" y="618.1590909090909" type="line"/>
      <point x="72.29545454545455" y="669.8863636363636" type="line"/>
      <point x="106.0" y="598.6136363636364"/>
      <point x="115.61363636363636" y="576.6590909090909"/>
      <point x="125.75" y="547.25" type="curve"/>
    </contour>
  </outline>
</glyph>
<glyph name="X" format="2">
  <advance width="795.125"/>
  <unicode hex="0058"/>
  <anchor x="398.0" y="0.0" name="bottom"/>
  <anchor x="398.0" y="705.0" name="top"/>
  <outline>
    <contour>
      <point x="57.0" y="-5.0" type="line"/>
      <point x="104.11363636363636" y="-3.0"/>
      <point x="171.3409090909091" y="0.0"/>
      <point x="198.45454545454547" y="0.0" type="curve" smooth="yes"/>
      <point x="300.65909090909093" y="0.0" type="line"/>
      <point x="305.65909090909093" y="65.4090909090909" type="line"/>
      <point x="196.6590909090909" y="78.63636363636364" type="line"/>
      <point x="236.72727272727272" y="41.45454545454545" type="line"/>
      <point x="245.95454545454547" y="65.22727272727273"/>
      <point x="270.27272727272725" y="112.0"/>
      <point x="282.5" y="132.0" type="curve" smooth="yes"/>
      <point x="405.09090909090907" y="314.3863636363636" type="line"/>
      <point x="344.9318181818182" y="314.3863636363636" type="line"/>
      <point x="465.75" y="142.0" type="line" smooth="yes"/>
      <point x="482.8636363636364" y="117.88636363636364"/>
      <point x="510.52272727272725" y="61.13636363636364"/>
      <point x="519.6363636363636" y="41.22727272727273" type="curve"/>
      <point x="559.7045454545455" y="78.97727272727273" type="line"/>
      <point x="458.70454545454544" y="57.95454545454545" type="line"/>
      <point x="463.59090909090907" y="-5.0" type="line"/>
      <point x="520.7954545454545" y="-3.0"/>
      <point x="597.8863636363636" y="0.0"/>
      <point x="634.9772727272727" y="0.0" type="curve" smooth="yes"/>
      <point x="739.8863636363636" y="0.0" type="line"/>
      <point x="744.8863636363636" y="65.4090909090909" type="line"/>
      <point x="632.8863636363636" y="82.18181818181819" type="line"/>
      <point x="711.9090909090909" y="45.45454545454545" type="line"/>
      <point x="678.6136363636364" y="76.86363636363636"/>
      <point x="650.4545454545455" y="108.9090909090909"/>
      <point x="633.25" y="132.0" type="curve" smooth="yes"/>
      <point x="430.1818181818182" y="418.15909090909093" type="line"/>
      <point x="431.95454545454544" y="329.1363636363636" type="line"/>
      <point x="588.0454545454545" y="568.1136363636364" type="line" smooth="yes"/>
      <point x="598.0454545454545" y="583.2272727272727"/>
      <point x="652.8863636363636" y="630.6136363636364"/>
      <point x="682.6363636363636" y="655.4772727272727" type="curve"/>
      <point x="600.4772727272727" y="625.1590909090909" type="line"/>
      <point x="720.4318181818181" y="637.0454545454545" type="line"/>
      <point x="715.5454545454545" y="710.0" type="line"/>
      <point x="666.2045454545455" y="708.0"/>
      <point x="605.9772727272727" y="705.0"/>
      <point x="566.75" y="705.0" type="curve" smooth="yes"/>
      <point x="543.2045454545455" y="705.0"/>
      <point x="499.75" y="708.0"/>
      <point x="465.8636363636364" y="710.0" type="curve"/>
      <point x="460.8636363636364" y="642.0454545454545" type="line"/>
      <point x="565.0" y="620.9318181818181" type="line"/>
      <point x="530.25" y="671.6363636363636" type="line"/>
      <point x="513.9318181818181" y="634.4545454545455"/>
      <point x="495.70454545454544" y="598.8863636363636"/>
      <point x="483.70454545454544" y="578.0" type="curve" smooth="yes"/>
      <point x="377.34090909090907" y="407.6136363636364" type="line"/>
      <point x="435.72727272727275" y="407.72727272727275" type="line"/>
      <point x="335.45454545454544" y="555.0" type="line" smooth="yes"/>
      <point x="317.6818181818182" y="580.7727272727273"/>
      <point x="289.3636363636364" y="637.3409090909091"/>
      <point x="285.90909090909093" y="655.8863636363636" type="curve"/>
      <point x="240.95454545454547" y="624.5909090909091" type="line"/>
      <point x="350.75" y="637.0454545454545" type="line"/>
      <point x="345.8636363636364" y="710.0" type="line"/>
      <point x="291.54545454545456" y="708.0"/>
      <point x="228.11363636363637" y="705.0"/>
      <point x="183.79545454545453" y="705.0" type="curve" smooth="yes"/>
      <point x="155.04545454545453" y="705.0"/>
      <point x="104.9090909090909" y="708.0"/>
      <point x="65.25" y="710.0" type="curve"/>
      <point x="60.25" y="642.0454545454545" type="line"/>
      <point x="171.88636363636363" y="620.7045454545455" type="line"/>
      <point x="95.43181818181819" y="654.7727272727273" type="line"/>
      <point x="113.4090909090909" y="632.9090909090909"/>
      <point x="155.52272727272728" y="583.8863636363636"/>
      <point x="173.4090909090909" y="558.0" type="curve" smooth="yes"/>
      <point x="352.3636363636364" y="303.1818181818182" type="line"/>
      <point x="352.3636363636364" y="391.97727272727275" type="line"/>
      <point x="194.27272727272728" y="164.0" type="line" smooth="yes"/>
      <point x="174.27272727272728" y="135.0"/>
      <point x="108.36363636363636" y="70.0909090909091"/>
      <point x="91.1590909090909" y="51.88636363636363" type="curve"/>
      <point x="161.52272727272728" y="79.63636363636364" type="line"/>
      <point x="52.11363636363637" y="57.95454545454545" type="line"/>
    </contour>
  </outline>
</glyph>
<glyph name="Y" format="2">
  <advance width="766.25"/>
  <unicode hex="0059"/>
  <anchor x="380.5" y="0.0" name="bottom"/>
  <anchor x="387.72727272727275" y="720.0" name="top"/>
  <outline>
    <contour>
      <point x="338.4318181818182" y="220.27272727272728" type="line"/>
      <point x="434.4318181818182" y="220.27272727272728" type="line"/>
      <point x="602.9545454545455" y="544.1136363636364" type="line" smooth="yes"/>
      <point x="629.8636363636364" y="595.7045454545455"/>
      <point x="671.1818181818181" y="637.2727272727273"/>
      <point x="687.6136363636364" y="653.0454545454545" type="curve"/>
      <point x="606.3636363636364" y="625.1590909090909" type="line"/>
      <point x="722.7727272727273" y="637.0454545454545" type="line"/>
      <point x="717.8863636363636" y="710.0" type="line"/>
      <point x="673.4090909090909" y="708.1136363636364"/>
      <point x="614.6136363636364" y="705.0"/>
      <point x="573.8863636363636" y="705.0" type="curve" smooth="yes"/>
      <point x="550.3409090909091" y="705.0"/>
      <point x="507.90909090909093" y="708.0"/>
      <point x="474.25" y="710.0" type="curve"/>
      <point x="469.25" y="642.0454545454545" type="line"/>
      <point x="573.2727272727273" y="620.9318181818181" type="line"/>
      <point x="536.5454545454545" y="671.4545454545455" type="line"/>
      <point x="532.6590909090909" y="644.8409090909091"/>
      <point x="522.6136363636364" y="608.1136363636364"/>
      <point x="512.0454545454545" y="585.8636363636364" type="curve" smooth="yes"/>
      <point x="376.6136363636364" y="312.77272727272725" type="line"/>
      <point x="424.45454545454544" y="312.8863636363636" type="line"/>
      <point x="296.9318181818182" y="561.0227272727273" type="line" smooth="yes"/>
      <point x="277.0909090909091" y="599.6818181818181"/>
      <point x="268.8636363636364" y="632.8409090909091"/>
      <point x="266.20454545454544" y="660.9090909090909" type="curve"/>
      <point x="223.13636363636363" y="624.5909090909091" type="line"/>
      <point x="332.9318181818182" y="637.0454545454545" type="line"/>
      <point x="328.04545454545456" y="710.0" type="line"/>
      <point x="277.3636363636364" y="708.1136363636364"/>
      <point x="213.70454545454547" y="705.0"/>
      <point x="166.88636363636363" y="705.0" type="curve" smooth="yes"/>
      <point x="138.13636363636363" y="705.0"/>
      <point x="88.0" y="708.0"/>
      <point x="48.34090909090909" y="710.0" type="curve"/>
      <point x="43.34090909090909" y="642.0454545454545" type="line"/>
      <point x="154.97727272727272" y="620.7045454545455" type="line"/>
      <point x="92.11363636363636" y="653.9318181818181" type="line"/>
      <point x="107.54545454545455" y="633.7272727272727"/>
      <point x="133.25" y="603.4545454545455"/>
      <point x="151.38636363636363" y="569.9545454545455" type="curve" smooth="yes"/>
    </contour>
    <contour>
      <point x="246.97727272727272" y="-5.0" type="line"/>
      <point x="296.97727272727275" y="-3.0"/>
      <point x="371.52272727272725" y="0.0"/>
      <point x="391.6136363636364" y="0.0" type="curve" smooth="yes"/>
      <point x="530.25" y="0.0" type="line"/>
      <point x="536.3636363636364" y="65.4090909090909" type="line"/>
      <point x="408.59090909090907" y="76.29545454545455" type="line"/>
      <point x="468.8636363636364" y="25.34090909090909" type="line"/>
      <point x="462.97727272727275" y="54.88636363636363"/>
      <point x="454.20454545454544" y="130.72727272727272"/>
      <point x="454.20454545454544" y="184.5" type="curve" smooth="yes"/>
      <point x="454.20454545454544" y="309.47727272727275" type="line"/>
      <point x="321.22727272727275" y="309.47727272727275" type="line"/>
      <point x="321.22727272727275" y="154.5" type="line" smooth="yes"/>
      <point x="321.22727272727275" y="127.29545454545455"/>
      <point x="310.22727272727275" y="56.52272727272727"/>
      <point x="305.45454545454544" y="25.34090909090909" type="curve"/>
      <point x="364.84090909090907" y="81.18181818181819" type="line"/>
      <point x="241.97727272727272" y="58.18181818181818" type="line"/>
    </contour>
  </outline>
</glyph>
<glyph name="Z" format="2">
  <advance width="658.25"/>
  <unicode hex="005A"/>
  <anchor x="330.1818181818182" y="0.0" name="bottom"/>
  <anchor x="330.1818181818182" y="353.0" name="center"/>
  <anchor x="330.1818181818182" y="720.0" name="top"/>
  <outline>
    <contour>
      <point x="561.9090909090909" y="-4.0" type="curve"/>
      <point x="580.9090909090909" y="14.0" type="line"/>
      <point x="595.9090909090909" y="189.8409090909091" type="line"/>
      <point x="533.0454545454545" y="194.8409090909091" type="line"/>
      <point x="529.2727272727273" y="170.97727272727272"/>
      <point x="522.0454545454545" y="142.6818181818182"/>
      <point x="518.9318181818181" y="130.13636363636363" type="curve" smooth="yes"/>
      <point x="516.4772727272727" y="119.13636363636364"/>
      <point x="489.70454545454544" y="69.27272727272728"/>
      <point x="474.3636363636364" y="42.95454545454545" type="curve"/>
      <point x="537.7272727272727" y="92.38636363636364" type="line"/>
      <point x="516.2727272727273" y="88.38636363636364"/>
      <point x="455.25" y="79.1590909090909"/>
      <point x="413.47727272727275" y="79.1590909090909" type="curve" smooth="yes"/>
      <point x="186.77272727272728" y="79.1590909090909" type="line"/>
      <point x="221.38636363636363" y="42.72727272727273" type="line"/>
      <point x="248.72727272727272" y="95.95454545454545"/>
      <point x="278.8863636363636" y="158.02272727272728"/>
      <point x="307.95454545454544" y="204.1818181818182" type="curve" smooth="yes"/>
      <point x="476.25" y="473.84090909090907" type="line" smooth="yes"/>
      <point x="505.04545454545456" y="519.9772727272727"/>
      <point x="549.9090909090909" y="584.7045454545455"/>
      <point x="583.3636363636364" y="633.2727272727273" type="curve"/>
      <point x="574.5909090909091" y="705.0" type="line"/>
      <point x="212.13636363636363" y="705.0" type="line"/>
      <point x="160.1818181818182" y="707.8863636363636"/>
      <point x="139.6818181818182" y="711.0"/>
      <point x="97.25" y="715.0" type="curve"/>
      <point x="77.36363636363636" y="697.0" type="line"/>
      <point x="70.36363636363636" y="517.4772727272727" type="line"/>
      <point x="138.0" y="512.4772727272727" type="line"/>
      <point x="140.0" y="535.9318181818181"/>
      <point x="147.88636363636363" y="575.4090909090909"/>
      <point x="151.88636363636363" y="591.2727272727273" type="curve" smooth="yes"/>
      <point x="189.0909090909091" y="670.4545454545455" type="line"/>
      <point x="131.47727272727272" y="619.8409090909091" type="line"/>
      <point x="141.5" y="619.9545454545455"/>
      <point x="206.36363636363637" y="626.7272727272727"/>
      <point x="250.3409090909091" y="626.7272727272727" type="curve" smooth="yes"/>
      <point x="466.79545454545456" y="626.7272727272727" type="line"/>
      <point x="432.95454545454544" y="667.4772727272727" type="line"/>
      <point x="411.04545454545456" y="621.4545454545455"/>
      <point x="384.04545454545456" y="561.25"/>
      <point x="356.3636363636364" y="517.3409090909091" type="curve" smooth="yes"/>
      <point x="176.88636363636363" y="230.4090909090909" type="line" smooth="yes"/>
      <point x="157.54545454545453" y="198.8409090909091"/>
      <point x="101.6590909090909" y="121.72727272727272"/>
      <point x="64.88636363636364" y="71.8409090909091" type="curve"/>
      <point x="73.6590909090909" y="0.0" type="line"/>
      <point x="447.02272727272725" y="0.0" type="line" smooth="yes"/>
      <point x="476.27272727272725" y="0.0"/>
      <point x="523.9090909090909" y="-2.0"/>
    </contour>
  </outline>
</glyph>
<glyph name="bracketleft" format="2">
  <advance width="449.375"/>
  <unicode hex="005B"/>
  <outline>
    <contour>
      <point x="362.90909090909093" y="-107.0" type="line"/>
      <point x="365.90909090909093" y="-43.84090909090909" type="line"/>
      <point x="197.0" y="-26.84090909090909" type="line"/>
      <point x="256.9318181818182" y="-92.0909090909091" type="line"/>
      <point x="246.1590909090909" y="-19.15909090909091"/>
      <point x="241.36363636363637" y="48.18181818181818"/>
      <point x="241.36363636363637" y="66.0" type="curve" smooth="yes"/>
      <point x="241.36363636363637" y="656.0" type="line" smooth="yes"/>
      <point x="241.36363636363637" y="677.1363636363636"/>
      <point x="249.5909090909091" y="766.75"/>
      <point x="256.9318181818182" y="815.0909090909091" type="curve"/>
      <point x="197.0" y="748.8409090909091" type="line"/>
      <point x="365.90909090909093" y="766.8409090909091" type="line"/>
      <point x="362.90909090909093" y="829.0" type="line"/>
      <point x="156.88636363636363" y="825.0" type="line"/>
      <point x="133.45454545454547" y="797.25" type="line"/>
      <point x="135.79545454545453" y="732.9090909090909"/>
      <point x="138.25" y="628.3409090909091"/>
      <point x="138.25" y="604.0" type="curve" smooth="yes"/>
      <point x="138.25" y="121.54545454545455" type="line" smooth="yes"/>
      <point x="138.25" y="96.20454545454545"/>
      <point x="135.79545454545453" y="-10.022727272727273"/>
      <point x="133.45454545454547" y="-75.25" type="curve"/>
      <point x="156.88636363636363" y="-103.0" type="line"/>
    </contour>
  </outline>
</glyph>
<glyph name="backslash" format="2">
  <advance width="426.625"/>
  <unicode hex="005C"/>
  <outline>
    <contour>
      <point x="320.02272727272725" y="-65.22727272727273" type="line"/>
      <point x="411.27272727272725" y="-36.47727272727273" type="line"/>
      <point x="104.5909090909091" y="773.0" type="line"/>
      <point x="15.34090909090909" y="744.25" type="line"/>
    </contour>
  </outline>
</glyph>
<glyph name="bracketright" format="2">
  <advance width="449.375"/>
  <unicode hex="005D"/>
  <outline>
    <contour>
      <point x="86.45454545454545" y="829.0" type="line"/>
      <point x="83.45454545454545" y="765.8409090909091" type="line"/>
      <point x="252.36363636363637" y="748.8409090909091" type="line"/>
      <point x="192.4318181818182" y="814.0909090909091" type="line"/>
      <point x="203.20454545454547" y="741.1590909090909"/>
      <point x="208.0" y="673.8181818181819"/>
      <point x="208.0" y="656.0" type="curve" smooth="yes"/>
      <point x="208.0" y="66.0" type="line" smooth="yes"/>
      <point x="208.0" y="44.86363636363636"/>
      <point x="199.77272727272728" y="-44.75"/>
      <point x="192.4318181818182" y="-93.0909090909091" type="curve"/>
      <point x="252.36363636363637" y="-26.84090909090909" type="line"/>
      <point x="83.45454545454545" y="-44.84090909090909" type="line"/>
      <point x="86.45454545454545" y="-107.0" type="line"/>
      <point x="292.47727272727275" y="-103.0" type="line"/>
      <point x="315.90909090909093" y="-75.25" type="line"/>
      <point x="313.5681818181818" y="-10.90909090909091"/>
      <point x="311.1136363636364" y="93.6590909090909"/>
      <point x="311.1136363636364" y="118.0" type="curve" smooth="yes"/>
      <point x="311.1136363636364" y="600.4545454545455" type="line" smooth="yes"/>
      <point x="311.1136363636364" y="625.7954545454545"/>
      <point x="313.5681818181818" y="732.0227272727273"/>
      <point x="315.90909090909093" y="797.25" type="curve"/>
      <point x="292.47727272727275" y="825.0" type="line"/>
    </contour>
  </outline>
</glyph>
<glyph name="asciicircum" format="2">
  <advance width="730.75"/>
  <unicode hex="005E"/>
  <outline>
    <contour>
      <point x="170.8409090909091" y="104.79545454545455" type="line"/>
      <point x="390.52272727272725" y="585.8863636363636" type="line"/>
      <point x="341.25" y="585.8863636363636" type="line"/>
      <point x="560.9318181818181" y="104.79545454545455" type="line"/>
      <point x="651.8636363636364" y="136.6590909090909" type="line"/>
      <point x="365.8863636363636" y="725.3863636363636" type="line"/>
      <point x="78.9090909090909" y="136.6590909090909" type="line"/>
    </contour>
  </outline>
</glyph>
<glyph name="underscore" format="2">
  <advance width="649.875"/>
  <unicode hex="005F"/>
  <outline>
    <contour>
      <point x="75.45454545454545" y="-232.0" type="line"/>
      <point x="572.4545454545455" y="-232.0" type="line"/>
      <point x="577.4545454545455" y="-139.5" type="line"/>
      <point x="73.45454545454545" y="-139.5" type="line"/>
    </contour>
  </outline>
</glyph>
<glyph name="a" format="2">
  <advance width="548.0"/>
  <unicode hex="0061"/>
  <anchor x="265.6136363636364" y="0.0" name="bottom"/>
  <anchor x="519.0227272727273" y="0.0" name="ogonek"/>
  <anchor x="247.72727272727272" y="494.0" name="top"/>
  <outline>
    <contour>
      <point x="192.54545454545453" y="-10.0" type="curve" smooth="yes"/>
      <point x="272.79545454545456" y="-10.0"/>
      <point x="325.09090909090907" y="33.29545454545455"/>
      <point x="353.1363636363636" y="118.6590909090909" type="curve"/>
      <point x="326.27272727272725" y="132.5" type="line"/>
      <point x="341.84090909090907" y="0.0" type="line"/>
      <point x="519.1363636363636" y="0.0" type="line"/>
      <point x="525.1363636363636" y="68.8409090909091" type="line"/>
      <point x="404.97727272727275" y="80.72727272727272" type="line"/>
      <point x="469.8863636363636" y="37.43181818181818" type="line"/>
      <point x="464.8863636363636" y="67.75"/>
      <point x="454.8863636363636" y="122.61363636363636"/>
      <point x="454.8863636363636" y="189.70454545454544" type="curve" smooth="yes"/>
      <point x="454.8863636363636" y="324.22727272727275" type="line" smooth="yes"/>
      <point x="454.8863636363636" y="443.1136363636364"/>
      <point x="381.75" y="508.20454545454544"/>
      <point x="251.3409090909091" y="508.20454545454544" type="curve" smooth="yes"/>
      <point x="205.4090909090909" y="508.20454545454544"/>
      <point x="128.6818181818182" y="496.65909090909093"/>
      <point x="68.68181818181819" y="481.65909090909093" type="curve"/>
      <point x="83.11363636363636" y="316.75" type="line"/>
      <point x="156.1818181818182" y="319.75" type="line"/>
      <point x="155.1818181818182" y="362.52272727272725" type="line"/>
      <point x="172.5" y="461.45454545454544" type="line"/>
      <point x="130.86363636363637" y="394.52272727272725" type="line"/>
      <point x="152.86363636363637" y="403.4318181818182"/>
      <point x="208.20454545454547" y="421.8636363636364"/>
      <point x="244.88636363636363" y="421.8636363636364" type="curve" smooth="yes"/>
      <point x="300.02272727272725" y="421.8636363636364"/>
      <point x="322.27272727272725" y="394.3636363636364"/>
      <point x="322.27272727272725" y="325.84090909090907" type="curve" smooth="yes"/>
      <point x="322.27272727272725" y="158.25" type="line"/>
      <point x="312.27272727272725" y="115.18181818181819"/>
      <point x="281.6363636363636" y="88.11363636363636"/>
      <point x="242.6590909090909" y="88.11363636363636" type="curve" smooth="yes"/>
      <point x="204.4090909090909" y="88.11363636363636"/>
      <point x="186.27272727272728" y="109.25"/>
      <point x="186.27272727272728" y="151.38636363636363" type="curve" smooth="yes"/>
      <point x="186.27272727272728" y="186.38636363636363"/>
      <point x="200.52272727272728" y="207.8409090909091"/>
      <point x="239.63636363636363" y="213.95454545454547" type="curve"/>
      <point x="337.9318181818182" y="230.77272727272728" type="line"/>
      <point x="337.9318181818182" y="293.95454545454544" type="line"/>
      <point x="178.0" y="267.6136363636364" type="line" smooth="yes"/>
      <point x="86.22727272727273" y="252.61363636363637"/>
      <point x="45.77272727272727" y="202.8409090909091"/>
      <point x="45.77272727272727" y="130.29545454545453" type="curve" smooth="yes"/>
      <point x="45.77272727272727" y="43.54545454545455"/>
      <point x="101.77272727272727" y="-10.0"/>
    </contour>
  </outline>
</glyph>
<glyph name="b" format="2">
  <advance width="587.6363636363636"/>
  <unicode hex="0062"/>
  <anchor x="293.8181818181818" y="0.0" name="bottom"/>
  <anchor x="293.8181818181818" y="756.0" name="top"/>
  <outline>
    <contour>
      <point x="294.1363636363636" y="-10.0" type="curve" smooth="yes"/>
      <point x="455.52272727272725" y="-10.0"/>
      <point x="542.5227272727273" y="93.72727272727272"/>
      <point x="542.5227272727273" y="256.8863636363636" type="curve" smooth="yes"/>
      <point x="542.5227272727273" y="396.65909090909093"/>
      <point x="488.9318181818182" y="508.20454545454544"/>
      <point x="351.5" y="508.20454545454544" type="curve" smooth="yes"/>
      <point x="269.0681818181818" y="508.20454545454544"/>
      <point x="223.61363636363637" y="464.40909090909093"/>
      <point x="186.77272727272728" y="403.90909090909093" type="curve"/>
      <point x="209.8409090909091" y="372.6136363636364" type="line"/>
      <point x="209.8409090909091" y="560.5227272727273" type="line" smooth="yes"/>
      <point x="209.8409090909091" y="597.5227272727273"/>
      <point x="215.61363636363637" y="682.5909090909091"/>
      <point x="219.5" y="737.1136363636364" type="curve"/>
      <point x="198.72727272727272" y="756.0" type="line"/>
      <point x="114.47727272727272" y="756.0" type="line"/>
      <point x="0.6590909090909092" y="760.7727272727273" type="line"/>
      <point x="-7.886363636363637" y="693.0454545454545" type="line"/>
      <point x="125.1590909090909" y="662.8409090909091" type="line"/>
      <point x="62.34090909090909" y="706.25" type="line"/>
      <point x="69.0" y="667.4090909090909"/>
      <point x="77.22727272727273" y="610.75"/>
      <point x="77.22727272727273" y="590.5227272727273" type="curve" smooth="yes"/>
      <point x="77.22727272727273" y="159.70454545454544" type="line" smooth="yes"/>
      <point x="77.22727272727273" y="144.70454545454544"/>
      <point x="71.45454545454545" y="74.63636363636364"/>
      <point x="67.56818181818181" y="26.0" type="curve"/>
      <point x="156.4318181818182" y="-0.6363636363636367"/>
      <point x="227.86363636363637" y="-10.0"/>
    </contour>
    <contour>
      <point x="213.97727272727272" y="67.88636363636363" type="line"/>
      <point x="214.1818181818182" y="83.45454545454545"/>
      <point x="211.61363636363637" y="145.3409090909091"/>
      <point x="211.61363636363637" y="189.70454545454544" type="curve" smooth="yes"/>
      <point x="211.61363636363637" y="267.02272727272725" type="line" smooth="yes"/>
      <point x="211.61363636363637" y="339.5"/>
      <point x="237.6590909090909" y="401.79545454545456"/>
      <point x="302.3863636363636" y="401.79545454545456" type="curve" smooth="yes"/>
      <point x="379.0" y="401.79545454545456"/>
      <point x="391.9318181818182" y="323.20454545454544"/>
      <point x="391.9318181818182" y="245.25" type="curve" smooth="yes"/>
      <point x="391.9318181818182" y="152.75"/>
      <point x="373.4318181818182" y="80.11363636363636"/>
      <point x="282.9318181818182" y="80.11363636363636" type="curve" smooth="yes"/>
      <point x="247.6818181818182" y="80.11363636363636"/>
      <point x="208.6818181818182" y="95.0909090909091"/>
      <point x="176.79545454545456" y="105.0909090909091" type="curve"/>
    </contour>
  </outline>
</glyph>
<glyph name="c" format="2">
  <advance width="511.125"/>
  <unicode hex="0063"/>
  <anchor x="286.90909090909093" y="0.0" name="bottom"/>
  <anchor x="285.20454545454544" y="494.0" name="top"/>
  <outline>
    <contour>
      <point x="290.84090909090907" y="-14.431818181818182" type="curve" smooth="yes"/>
      <point x="354.27272727272725" y="-14.431818181818182"/>
      <point x="418.79545454545456" y="10.431818181818182"/>
      <point x="470.3636363636364" y="54.52272727272727" type="curve"/>
      <point x="436.27272727272725" y="111.1590909090909" type="line"/>
      <point x="396.25" y="89.04545454545455"/>
      <point x="358.3409090909091" y="78.5909090909091"/>
      <point x="316.4318181818182" y="78.5909090909091" type="curve" smooth="yes"/>
      <point x="233.9318181818182" y="78.5909090909091"/>
      <point x="194.38636363636363" y="138.13636363636363"/>
      <point x="194.38636363636363" y="247.77272727272728" type="curve" smooth="yes"/>
      <point x="194.38636363636363" y="369.59090909090907"/>
      <point x="225.29545454545456" y="432.04545454545456"/>
      <point x="294.5" y="432.04545454545456" type="curve" smooth="yes"/>
      <point x="336.59090909090907" y="432.04545454545456"/>
      <point x="376.90909090909093" y="407.1818181818182"/>
      <point x="406.70454545454544" y="383.75" type="curve"/>
      <point x="350.8863636363636" y="445.8863636363636" type="line"/>
      <point x="361.4318181818182" y="419.45454545454544"/>
      <point x="364.22727272727275" y="392.22727272727275"/>
      <point x="366.0" y="367.15909090909093" type="curve" smooth="yes"/>
      <point x="365.1136363636364" y="315.4318181818182" type="line"/>
      <point x="446.70454545454544" y="312.4318181818182" type="line"/>
      <point x="461.1363636363636" y="482.84090909090907" type="line"/>
      <point x="402.02272727272725" y="495.8636363636364"/>
      <point x="346.52272727272725" y="508.20454545454544"/>
      <point x="286.6363636363636" y="508.20454545454544" type="curve" smooth="yes"/>
      <point x="134.52272727272728" y="508.20454545454544"/>
      <point x="43.45454545454545" y="408.6363636363636"/>
      <point x="43.45454545454545" y="247.77272727272728" type="curve" smooth="yes"/>
      <point x="43.45454545454545" y="79.04545454545455"/>
      <point x="129.0909090909091" y="-14.431818181818182"/>
    </contour>
  </outline>
</glyph>
<glyph name="d" format="2">
  <advance width="604.375"/>
  <unicode hex="0064"/>
  <anchor x="310.90909090909093" y="0.0" name="bottom"/>
  <anchor x="425.77272727272725" y="587.8409090909091" name="center"/>
  <anchor x="363.3409090909091" y="756.0" name="top"/>
  <anchor x="618.9318181818181" y="494.0" name="topright"/>
  <outline>
    <contour>
      <point x="236.70454545454547" y="-10.0" type="curve" smooth="yes"/>
      <point x="314.20454545454544" y="-10.0"/>
      <point x="369.52272727272725" y="30.5"/>
      <point x="413.6136363636364" y="119.04545454545455" type="curve"/>
      <point x="381.79545454545456" y="135.1590909090909" type="line"/>
      <point x="397.3636363636364" y="0.0" type="line"/>
      <point x="574.6590909090909" y="0.0" type="line"/>
      <point x="580.6590909090909" y="68.8409090909091" type="line"/>
      <point x="459.9318181818182" y="80.72727272727272" type="line"/>
      <point x="524.6363636363636" y="38.52272727272727" type="line"/>
      <point x="519.6363636363636" y="71.1590909090909"/>
      <point x="510.4090909090909" y="123.4090909090909"/>
      <point x="510.4090909090909" y="189.5909090909091" type="curve" smooth="yes"/>
      <point x="510.4090909090909" y="560.6363636363636" type="line" smooth="yes"/>
      <point x="510.4090909090909" y="597.5227272727273"/>
      <point x="516.0681818181819" y="682.5909090909091"/>
      <point x="519.9545454545455" y="737.1136363636364" type="curve"/>
      <point x="499.29545454545456" y="756.0" type="line"/>
      <point x="414.9318181818182" y="756.0" type="line"/>
      <point x="299.6363636363636" y="760.7727272727273" type="line"/>
      <point x="291.09090909090907" y="693.0454545454545" type="line"/>
      <point x="425.5" y="663.1818181818181" type="line"/>
      <point x="362.6818181818182" y="708.5909090909091" type="line"/>
      <point x="365.79545454545456" y="691.7045454545455"/>
      <point x="377.79545454545456" y="620.1818181818181"/>
      <point x="377.79545454545456" y="590.6363636363636" type="curve" smooth="yes"/>
      <point x="377.79545454545456" y="229.5909090909091" type="line"/>
      <point x="373.3636363636364" y="142.3409090909091"/>
      <point x="341.09090909090907" y="96.75"/>
      <point x="284.79545454545456" y="96.75" type="curve" smooth="yes"/>
      <point x="224.97727272727272" y="96.75"/>
      <point x="195.70454545454544" y="147.9318181818182"/>
      <point x="195.70454545454544" y="253.86363636363637" type="curve" smooth="yes"/>
      <point x="195.70454545454544" y="367.34090909090907"/>
      <point x="228.86363636363637" y="417.6363636363636"/>
      <point x="302.8863636363636" y="417.6363636363636" type="curve" smooth="yes"/>
      <point x="327.72727272727275" y="417.6363636363636"/>
      <point x="358.97727272727275" y="410.72727272727275"/>
      <point x="397.1136363636364" y="394.1136363636364" type="curve"/>
      <point x="395.25" y="498.02272727272725" type="line"/>
      <point x="356.15909090909093" y="504.8636363636364"/>
      <point x="322.3863636363636" y="508.20454545454544"/>
      <point x="291.1136363636364" y="508.20454545454544" type="curve" smooth="yes"/>
      <point x="134.97727272727272" y="508.20454545454544"/>
      <point x="45.34090909090909" y="411.09090909090907"/>
      <point x="45.34090909090909" y="242.6818181818182" type="curve" smooth="yes"/>
      <point x="45.34090909090909" y="81.79545454545455"/>
      <point x="114.47727272727272" y="-10.0"/>
    </contour>
  </outline>
</glyph>
<glyph name="e" format="2">
  <advance width="530.75"/>
  <unicode hex="0065"/>
  <anchor x="283.6363636363636" y="0.0" name="bottom"/>
  <anchor x="411.77272727272725" y="11.477272727272727" name="ogonek"/>
  <anchor x="277.52272727272725" y="494.0" name="top"/>
  <outline>
    <contour>
      <point x="286.52272727272725" y="-14.431818181818182" type="curve" smooth="yes"/>
      <point x="369.1818181818182" y="-14.431818181818182"/>
      <point x="434.84090909090907" y="14.340909090909093"/>
      <point x="480.02272727272725" y="55.20454545454545" type="curve"/>
      <point x="446.04545454545456" y="111.61363636363636" type="line"/>
      <point x="424.1363636363636" y="97.1590909090909"/>
      <point x="375.4318181818182" y="77.5909090909091"/>
      <point x="321.29545454545456" y="77.5909090909091" type="curve" smooth="yes"/>
      <point x="233.38636363636363" y="77.5909090909091"/>
      <point x="194.04545454545456" y="129.97727272727272"/>
      <point x="194.04545454545456" y="255.20454545454547" type="curve" smooth="yes"/>
      <point x="194.04545454545456" y="355.1818181818182"/>
      <point x="206.86363636363637" y="432.72727272727275"/>
      <point x="271.40909090909093" y="432.72727272727275" type="curve" smooth="yes"/>
      <point x="318.04545454545456" y="432.72727272727275"/>
      <point x="339.75" y="392.34090909090907"/>
      <point x="339.75" y="317.02272727272725" type="curve" smooth="yes"/>
      <point x="339.75" y="291.70454545454544"/>
      <point x="335.20454545454544" y="267.72727272727275"/>
      <point x="330.77272727272725" y="242.75" type="curve"/>
      <point x="399.1136363636364" y="305.22727272727275" type="line"/>
      <point x="182.79545454545456" y="292.97727272727275" type="line"/>
      <point x="181.9090909090909" y="223.1590909090909" type="line"/>
      <point x="467.79545454545456" y="223.1590909090909" type="line"/>
      <point x="488.22727272727275" y="261.3636363636364" type="line"/>
      <point x="496.0909090909091" y="416.8636363636364"/>
      <point x="423.27272727272725" y="508.20454545454544"/>
      <point x="281.5" y="508.20454545454544" type="curve" smooth="yes"/>
      <point x="137.1590909090909" y="508.20454545454544"/>
      <point x="43.45454545454545" y="413.27272727272725"/>
      <point x="43.45454545454545" y="245.0" type="curve" smooth="yes"/>
      <point x="43.45454545454545" y="82.04545454545455"/>
      <point x="133.75" y="-14.431818181818182"/>
    </contour>
  </outline>
</glyph>
<glyph name="f" format="2">
  <advance width="383.6136363636364"/>
  <unicode hex="0066"/>
  <anchor x="191.75" y="0.0" name="bottom"/>
  <anchor x="191.75" y="756.0" name="top"/>
  <outline>
    <contour>
      <point x="43.31818181818182" y="-5.0" type="line"/>
      <point x="80.31818181818181" y="-3.0"/>
      <point x="142.0681818181818" y="0.0"/>
      <point x="153.3181818181818" y="0.0" type="curve"/>
      <point x="328.79545454545456" y="0.0" type="line"/>
      <point x="333.90909090909093" y="68.8409090909091" type="line"/>
      <point x="187.5" y="80.61363636363636" type="line"/>
      <point x="252.86363636363637" y="33.86363636363636" type="line"/>
      <point x="247.97727272727272" y="64.95454545454545"/>
      <point x="238.54545454545456" y="123.52272727272728"/>
      <point x="238.54545454545456" y="189.70454545454544" type="curve" smooth="yes"/>
      <point x="238.54545454545456" y="460.0" type="line"/>
      <point x="222.88636363636363" y="421.6136363636364" type="line"/>
      <point x="344.6363636363636" y="421.6136363636364" type="line"/>
      <point x="353.1818181818182" y="494.0" type="line"/>
      <point x="222.88636363636363" y="494.0" type="line"/>
      <point x="238.54545454545456" y="475.25" type="line"/>
      <point x="216.61363636363637" y="607.7954545454545"/>
      <point x="213.13636363636363" y="692.5227272727273"/>
      <point x="273.59090909090907" y="692.5227272727273" type="curve" smooth="yes"/>
      <point x="285.47727272727275" y="692.5227272727273"/>
      <point x="326.8636363636364" y="680.1136363636364"/>
      <point x="328.6818181818182" y="680.1136363636364" type="curve"/>
      <point x="289.54545454545456" y="708.0" type="line"/>
      <point x="293.34090909090907" y="693.9318181818181"/>
      <point x="296.1363636363636" y="657.1590909090909"/>
      <point x="296.1363636363636" y="640.4090909090909" type="curve"/>
      <point x="294.3636363636364" y="596.5454545454545" type="line"/>
      <point x="364.3863636363636" y="593.5454545454545" type="line"/>
      <point x="383.3636363636364" y="759.4545454545455" type="line"/>
      <point x="342.22727272727275" y="766.0"/>
      <point x="319.8863636363636" y="770.0"/>
      <point x="286.25" y="770.0" type="curve" smooth="yes"/>
      <point x="175.6818181818182" y="770.0"/>
      <point x="105.93181818181819" y="691.4772727272727"/>
      <point x="105.93181818181819" y="582.1590909090909" type="curve" smooth="yes"/>
      <point x="105.93181818181819" y="466.47727272727275" type="line"/>
      <point x="121.47727272727272" y="496.8863636363636" type="line"/>
      <point x="43.43181818181818" y="482.22727272727275" type="line"/>
      <point x="46.43181818181818" y="421.6136363636364" type="line"/>
      <point x="121.5909090909091" y="421.6136363636364" type="line"/>
      <point x="105.93181818181819" y="450.45454545454544" type="line"/>
      <point x="105.93181818181819" y="159.70454545454544" type="line" smooth="yes"/>
      <point x="105.93181818181819" y="130.27272727272728"/>
      <point x="94.5909090909091" y="56.40909090909091"/>
      <point x="89.93181818181819" y="29.0" type="curve"/>
      <point x="155.52272727272728" y="85.5" type="line"/>
      <point x="38.31818181818182" y="62.5" type="line"/>
    </contour>
  </outline>
</glyph>
<glyph name="g" format="2">
  <advance width="543.375"/>
  <unicode hex="0067"/>
  <anchor x="255.86363636363637" y="494.0" name="top"/>
  <outline>
    <contour>
      <point x="239.8409090909091" y="-235.0" type="curve" smooth="yes"/>
      <point x="388.59090909090907" y="-235.0"/>
      <point x="506.1363636363636" y="-149.0"/>
      <point x="506.1363636363636" y="-39.68181818181818" type="curve" smooth="yes"/>
      <point x="506.1363636363636" y="9.204545454545453"/>
      <point x="488.3636363636364" y="40.09090909090909"/>
      <point x="455.04545454545456" y="52.63636363636364" type="curve" smooth="yes"/>
      <point x="428.3409090909091" y="61.97727272727273"/>
      <point x="379.8863636363636" y="68.43181818181819"/>
      <point x="251.52272727272728" y="82.63636363636364" type="curve" smooth="yes"/>
      <point x="189.5909090909091" y="88.97727272727273"/>
      <point x="167.1590909090909" y="98.52272727272728"/>
      <point x="167.1590909090909" y="120.29545454545455" type="curve" smooth="yes"/>
      <point x="167.1590909090909" y="128.95454545454547"/>
      <point x="175.5" y="144.52272727272728"/>
      <point x="199.1818181818182" y="166.54545454545453" type="curve"/>
      <point x="150.22727272727272" y="183.75" type="line"/>
      <point x="96.6590909090909" y="133.97727272727272"/>
      <point x="70.54545454545455" y="103.43181818181819"/>
      <point x="70.54545454545455" y="87.54545454545455" type="curve" smooth="yes"/>
      <point x="70.54545454545455" y="39.79545454545455"/>
      <point x="89.43181818181819" y="6.15909090909091"/>
      <point x="131.77272727272728" y="-9.613636363636363" type="curve" smooth="yes"/>
      <point x="172.6590909090909" y="-25.15909090909091"/>
      <point x="193.4318181818182" y="-29.93181818181818"/>
      <point x="225.0" y="-34.93181818181818" type="curve" smooth="yes"/>
      <point x="355.0" y="-54.47727272727273" type="line" smooth="yes"/>
      <point x="377.1363636363636" y="-57.59090909090909"/>
      <point x="388.79545454545456" y="-70.36363636363636"/>
      <point x="388.79545454545456" y="-89.8409090909091" type="curve" smooth="yes"/>
      <point x="388.79545454545456" y="-131.6818181818182"/>
      <point x="347.29545454545456" y="-157.8409090909091"/>
      <point x="281.90909090909093" y="-157.8409090909091" type="curve" smooth="yes"/>
      <point x="195.54545454545456" y="-157.8409090909091"/>
      <point x="149.77272727272728" y="-129.5"/>
      <point x="149.77272727272728" y="-76.3409090909091" type="curve" smooth="yes"/>
      <point x="149.77272727272728" y="-58.0"/>
      <point x="159.77272727272728" y="-34.02272727272727"/>
      <point x="183.8409090909091" y="-10.477272727272727" type="curve"/>
      <point x="133.54545454545453" y="8.590909090909092" type="line"/>
      <point x="70.11363636363636" y="-25.886363636363637"/>
      <point x="22.68181818181818" y="-67.45454545454545"/>
      <point x="22.68181818181818" y="-91.77272727272727" type="curve" smooth="yes"/>
      <point x="22.68181818181818" y="-185.88636363636363"/>
      <point x="95.88636363636364" y="-235.0"/>
    </contour>
    <contour>
      <point x="250.75" y="146.20454545454547" type="curve" smooth="yes"/>
      <point x="378.15909090909093" y="146.20454545454547"/>
      <point x="463.02272727272725" y="219.0909090909091"/>
      <point x="463.02272727272725" y="328.97727272727275" type="curve" smooth="yes"/>
      <point x="463.02272727272725" y="440.52272727272725"/>
      <point x="375.6136363636364" y="508.20454545454544"/>
      <point x="254.29545454545453" y="508.20454545454544" type="curve" smooth="yes"/>
      <point x="126.88636363636364" y="508.20454545454544"/>
      <point x="42.02272727272727" y="435.4318181818182"/>
      <point x="42.02272727272727" y="325.54545454545456" type="curve" smooth="yes"/>
      <point x="42.02272727272727" y="212.22727272727272"/>
      <point x="132.0909090909091" y="146.20454545454547"/>
    </contour>
    <contour>
      <point x="251.63636363636363" y="210.38636363636363" type="curve" smooth="yes"/>
      <point x="207.77272727272728" y="210.38636363636363"/>
      <point x="185.8409090909091" y="247.29545454545453"/>
      <point x="185.8409090909091" y="323.77272727272725" type="curve" smooth="yes"/>
      <point x="185.8409090909091" y="405.34090909090907"/>
      <point x="208.77272727272728" y="444.1363636363636"/>
      <point x="254.29545454545453" y="444.1363636363636" type="curve" smooth="yes"/>
      <point x="298.15909090909093" y="444.1363636363636"/>
      <point x="319.09090909090907" y="407.22727272727275"/>
      <point x="319.09090909090907" y="330.75" type="curve" smooth="yes"/>
      <point x="319.09090909090907" y="248.95454545454547"/>
      <point x="297.27272727272725" y="210.38636363636363"/>
    </contour>
    <contour>
      <point x="507.04545454545456" y="420.72727272727275" type="line"/>
      <point x="502.59090909090907" y="504.22727272727275" type="line"/>
      <point x="345.3636363636364" y="478.4318181818182" type="line"/>
      <point x="419.77272727272725" y="420.95454545454544" type="line"/>
    </contour>
  </outline>
</glyph>
<glyph name="h" format="2">
  <advance width="638.6818181818181"/>
  <unicode hex="0068"/>
  <anchor x="326.3636363636364" y="0.0" name="bottom"/>
  <anchor x="193.29545454545453" y="587.8409090909091" name="center"/>
  <anchor x="194.79545454545456" y="751.7954545454545" name="top"/>
  <outline>
    <contour>
      <point x="25.113636363636363" y="-5.0" type="line"/>
      <point x="64.77272727272727" y="-3.0"/>
      <point x="132.72727272727272" y="0.0"/>
      <point x="143.97727272727272" y="0.0" type="curve"/>
      <point x="299.3409090909091" y="0.0" type="line"/>
      <point x="304.5681818181818" y="68.8409090909091" type="line"/>
      <point x="178.27272727272728" y="80.61363636363636" type="line"/>
      <point x="243.63636363636363" y="33.86363636363636" type="line"/>
      <point x="238.75" y="64.95454545454545"/>
      <point x="229.3181818181818" y="123.52272727272728"/>
      <point x="229.3181818181818" y="189.70454545454544" type="curve" smooth="yes"/>
      <point x="229.3181818181818" y="266.1363636363636" type="line" smooth="yes"/>
      <point x="229.4318181818182" y="357.15909090909093"/>
      <point x="278.3181818181818" y="407.8863636363636"/>
      <point x="331.84090909090907" y="407.8863636363636" type="curve" smooth="yes"/>
      <point x="387.9318181818182" y="407.8863636363636"/>
      <point x="409.47727272727275" y="362.65909090909093"/>
      <point x="409.47727272727275" y="306.6818181818182" type="curve" smooth="yes"/>
      <point x="409.47727272727275" y="159.70454545454544" type="line" smooth="yes"/>
      <point x="409.47727272727275" y="142.54545454545456"/>
      <point x="404.02272727272725" y="66.6590909090909"/>
      <point x="399.79545454545456" y="32.47727272727273" type="curve"/>
      <point x="462.5" y="87.38636363636364" type="line"/>
      <point x="346.54545454545456" y="62.5" type="line"/>
      <point x="351.54545454545456" y="-5.0" type="line"/>
      <point x="393.52272727272725" y="-3.0"/>
      <point x="454.27272727272725" y="0.0"/>
      <point x="469.27272727272725" y="0.0" type="curve"/>
      <point x="612.3409090909091" y="0.0" type="line"/>
      <point x="617.5681818181819" y="68.8409090909091" type="line"/>
      <point x="491.27272727272725" y="80.61363636363636" type="line"/>
      <point x="556.5227272727273" y="35.88636363636363" type="line"/>
      <point x="552.5227272727273" y="62.77272727272727"/>
      <point x="542.0909090909091" y="123.86363636363636"/>
      <point x="542.0909090909091" y="189.70454545454544" type="curve" smooth="yes"/>
      <point x="542.0909090909091" y="318.8636363636364" type="line" smooth="yes"/>
      <point x="542.0909090909091" y="437.59090909090907"/>
      <point x="484.84090909090907" y="503.0"/>
      <point x="366.1136363636364" y="503.0" type="curve" smooth="yes"/>
      <point x="290.77272727272725" y="503.0"/>
      <point x="241.54545454545456" y="460.4318181818182"/>
      <point x="206.13636363636363" y="399.47727272727275" type="curve"/>
      <point x="229.3181818181818" y="374.3863636363636" type="line"/>
      <point x="229.3181818181818" y="560.5227272727273" type="line" smooth="yes"/>
      <point x="229.3181818181818" y="610.1818181818181"/>
      <point x="234.97727272727272" y="695.5909090909091"/>
      <point x="238.86363636363637" y="737.1136363636364" type="curve"/>
      <point x="218.0909090909091" y="756.0" type="line"/>
      <point x="133.8409090909091" y="756.0" type="line"/>
      <point x="20.022727272727273" y="760.7727272727273" type="line"/>
      <point x="11.477272727272727" y="693.0454545454545" type="line"/>
      <point x="144.52272727272728" y="662.8409090909091" type="line"/>
      <point x="78.04545454545455" y="734.5454545454545" type="line"/>
      <point x="83.93181818181819" y="695.6818181818181"/>
      <point x="96.5909090909091" y="619.9545454545455"/>
      <point x="96.5909090909091" y="590.5227272727273" type="curve" smooth="yes"/>
      <point x="96.5909090909091" y="159.70454545454544" type="line" smooth="yes"/>
      <point x="96.5909090909091" y="130.27272727272728"/>
      <point x="85.36363636363636" y="56.40909090909091"/>
      <point x="80.5909090909091" y="29.0" type="curve"/>
      <point x="146.29545454545453" y="85.5" type="line"/>
      <point x="20.113636363636363" y="62.5" type="line"/>
    </contour>
  </outline>
</glyph>
<glyph name="k" format="2">
  <advance width="637.5681818181819"/>
  <unicode hex="006B"/>
  <anchor x="317.84090909090907" y="0.0" name="bottom"/>
  <anchor x="317.84090909090907" y="756.0" name="top"/>
  <outline>
    <contour>
      <point x="25.113636363636363" y="-5.0" type="line"/>
      <point x="64.77272727272727" y="-3.0"/>
      <point x="132.72727272727272" y="0.0"/>
      <point x="143.97727272727272" y="0.0" type="curve"/>
      <point x="299.3409090909091" y="0.0" type="line"/>
      <point x="304.5681818181818" y="68.8409090909091" type="line"/>
      <point x="178.27272727272728" y="80.61363636363636" type="line"/>
      <point x="243.63636363636363" y="33.86363636363636" type="line"/>
      <point x="238.75" y="64.95454545454545"/>
      <point x="229.3181818181818" y="123.52272727272728"/>
      <point x="229.3181818181818" y="189.70454545454544" type="curve" smooth="yes"/>
      <point x="229.3181818181818" y="560.5227272727273" type="line" smooth="yes"/>
      <point x="229.3181818181818" y="610.1818181818181"/>
      <point x="234.97727272727272" y="695.5909090909091"/>
      <point x="238.86363636363637" y="737.1136363636364" type="curve"/>
      <point x="218.0909090909091" y="756.0" type="line"/>
      <point x="133.8409090909091" y="756.0" type="line"/>
      <point x="20.022727272727273" y="760.7727272727273" type="line"/>
      <point x="11.477272727272727" y="693.0454545454545" type="line"/>
      <point x="144.52272727272728" y="662.8409090909091" type="line"/>
      <point x="78.04545454545455" y="734.5454545454545" type="line"/>
      <point x="83.93181818181819" y="695.6818181818181"/>
      <point x="96.5909090909091" y="619.9545454545455"/>
      <point x="96.5909090909091" y="590.5227272727273" type="curve" smooth="yes"/>
      <point x="96.5909090909091" y="159.70454545454544" type="line" smooth="yes"/>
      <point x="96.5909090909091" y="130.27272727272728"/>
      <point x="85.36363636363636" y="56.40909090909091"/>
      <point x="80.5909090909091" y="29.0" type="curve"/>
      <point x="146.29545454545453" y="85.5" type="line"/>
      <point x="20.113636363636363" y="62.5" type="line"/>
    </contour>
    <contour>
      <point x="358.5" y="-0.6818181818181817" type="line"/>
      <point x="416.97727272727275" y="-0.34090909090909083"/>
      <point x="451.02272727272725" y="0.0"/>
      <point x="482.4318181818182" y="0.0" type="curve" smooth="yes"/>
      <point x="597.4772727272727" y="0.0" type="line"/>
      <point x="603.4772727272727" y="68.8409090909091" type="line"/>
      <point x="483.54545454545456" y="80.5" type="line"/>
      <point x="572.1136363636364" y="45.77272727272727" type="line"/>
      <point x="542.3181818181819" y="75.0909090909091"/>
      <point x="473.22727272727275" y="142.9090909090909"/>
      <point x="462.77272727272725" y="157.9090909090909" type="curve" smooth="yes"/>
      <point x="347.1818181818182" y="329.59090909090907" type="line"/>
      <point x="342.75" y="232.72727272727272" type="line"/>
      <point x="448.75" y="366.0" type="line" smooth="yes"/>
      <point x="467.3181818181818" y="389.8863636363636"/>
      <point x="530.5454545454545" y="424.45454545454544"/>
      <point x="563.9772727272727" y="442.8863636363636" type="curve"/>
      <point x="473.3181818181818" y="418.47727272727275" type="line"/>
      <point x="588.6363636363636" y="429.59090909090907" type="line"/>
      <point x="590.0681818181819" y="494.0" type="line"/>
      <point x="472.5909090909091" y="494.0" type="line"/>
      <point x="443.8409090909091" y="494.0"/>
      <point x="372.6136363636364" y="494.0"/>
      <point x="322.6818181818182" y="494.0" type="curve"/>
      <point x="317.6818181818182" y="421.6136363636364" type="line"/>
      <point x="429.90909090909093" y="416.9318181818182" type="line"/>
      <point x="407.5" y="469.97727272727275" type="line"/>
      <point x="240.3181818181818" y="265.0" type="line"/>
      <point x="335.90909090909093" y="110.68181818181819" type="line"/>
      <point x="361.54545454545456" y="66.86363636363636" type="line"/>
      <point x="357.9318181818182" y="58.52272727272727" type="line"/>
    </contour>
  </outline>
</glyph>
<glyph name="l" format="2">
  <advance width="325.6818181818182"/>
  <unicode hex="006C"/>
  <anchor x="161.29545454545453" y="0.0" name="bottom"/>
  <anchor x="140.5909090909091" y="382.0" name="center"/>
  <anchor x="372.8636363636364" y="410.0" name="centerright"/>
  <anchor x="135.6590909090909" y="756.0" name="top"/>
  <anchor x="338.0681818181818" y="494.0" name="topright"/>
  <outline>
    <contour>
      <point x="25.113636363636363" y="-5.0" type="line"/>
      <point x="64.77272727272727" y="-3.0"/>
      <point x="132.72727272727272" y="0.0"/>
      <point x="143.97727272727272" y="0.0" type="curve" smooth="yes"/>
      <point x="299.3409090909091" y="0.0" type="line"/>
      <point x="304.5681818181818" y="68.8409090909091" type="line"/>
      <point x="178.27272727272728" y="80.61363636363636" type="line"/>
      <point x="243.63636363636363" y="33.86363636363636" type="line"/>
      <point x="238.75" y="64.95454545454545"/>
      <point x="229.3181818181818" y="123.4090909090909"/>
      <point x="229.3181818181818" y="189.70454545454544" type="curve" smooth="yes"/>
      <point x="229.3181818181818" y="560.5227272727273" type="line" smooth="yes"/>
      <point x="229.3181818181818" y="610.1818181818181"/>
      <point x="234.97727272727272" y="695.5909090909091"/>
      <point x="238.86363636363637" y="737.1136363636364" type="curve"/>
      <point x="218.0909090909091" y="756.0" type="line"/>
      <point x="133.8409090909091" y="756.0" type="line"/>
      <point x="20.022727272727273" y="760.7727272727273" type="line"/>
      <point x="11.477272727272727" y="693.0454545454545" type="line"/>
      <point x="144.52272727272728" y="662.8409090909091" type="line"/>
      <point x="78.04545454545455" y="734.5454545454545" type="line"/>
      <point x="83.93181818181819" y="695.6818181818181"/>
      <point x="96.5909090909091" y="619.9545454545455"/>
      <point x="96.5909090909091" y="590.5227272727273" type="curve" smooth="yes"/>
      <point x="96.5909090909091" y="159.70454545454544" type="line" smooth="yes"/>
      <point x="96.5909090909091" y="130.27272727272728"/>
      <point x="85.36363636363636" y="56.40909090909091"/>
      <point x="80.5909090909091" y="29.0" type="curve"/>
      <point x="146.29545454545453" y="85.5" type="line"/>
      <point x="20.113636363636363" y="62.5" type="line"/>
    </contour>
  </outline>
</glyph>
<glyph name="m" format="2">
  <advance width="942.375"/>
  <unicode hex="006D"/>
  <anchor x="471.27272727272725" y="0.0" name="bottom"/>
  <anchor x="471.27272727272725" y="494.0" name="top"/>
  <outline>
    <contour>
      <point x="655.2954545454545" y="-5.0" type="line"/>
      <point x="694.5" y="-3.0"/>
      <point x="763.0227272727273" y="0.0"/>
      <point x="773.0227272727273" y="0.0" type="curve"/>
      <point x="916.0909090909091" y="0.0" type="line"/>
      <point x="921.2045454545455" y="68.8409090909091" type="line"/>
      <point x="795.0227272727273" y="80.61363636363636" type="line"/>
      <point x="857.6136363636364" y="46.20454545454545" type="line"/>
      <point x="855.5" y="60.54545454545455"/>
      <point x="845.8409090909091" y="139.70454545454544"/>
      <point x="845.8409090909091" y="189.70454545454544" type="curve" smooth="yes"/>
      <point x="845.8409090909091" y="324.1818181818182" type="line" smooth="yes"/>
      <point x="845.8409090909091" y="442.90909090909093"/>
      <point x="794.25" y="508.20454545454544"/>
      <point x="687.4090909090909" y="508.20454545454544" type="curve" smooth="yes"/>
      <point x="600.1136363636364" y="508.20454545454544"/>
      <point x="545.2954545454545" y="450.79545454545456"/>
      <point x="505.3409090909091" y="368.1136363636364" type="curve"/>
      <point x="548.9545454545455" y="271.34090909090907" type="line"/>
      <point x="549.1818181818181" y="362.3636363636364"/>
      <point x="594.5227272727273" y="413.09090909090907"/>
      <point x="644.1590909090909" y="413.09090909090907" type="curve" smooth="yes"/>
      <point x="694.6818181818181" y="413.09090909090907"/>
      <point x="713.2272727272727" y="367.8636363636364"/>
      <point x="713.2272727272727" y="311.8863636363636" type="curve" smooth="yes"/>
      <point x="713.2272727272727" y="159.70454545454544" type="line" smooth="yes"/>
      <point x="713.2272727272727" y="147.88636363636363"/>
      <point x="708.6590909090909" y="79.93181818181819"/>
      <point x="705.4318181818181" y="45.63636363636364" type="curve"/>
      <point x="766.25" y="87.38636363636364" type="line"/>
      <point x="650.2954545454545" y="62.5" type="line"/>
    </contour>
    <contour>
      <point x="47.97727272727273" y="-5.0" type="line"/>
      <point x="87.63636363636364" y="-3.0"/>
      <point x="155.5909090909091" y="0.0"/>
      <point x="166.8409090909091" y="0.0" type="curve"/>
      <point x="322.20454545454544" y="0.0" type="line"/>
      <point x="327.4318181818182" y="68.8409090909091" type="line"/>
      <point x="201.13636363636363" y="80.61363636363636" type="line"/>
      <point x="266.5" y="33.86363636363636" type="line"/>
      <point x="261.6136363636364" y="64.95454545454545"/>
      <point x="252.1818181818182" y="123.52272727272728"/>
      <point x="252.1818181818182" y="189.70454545454544" type="curve" smooth="yes"/>
      <point x="252.1818181818182" y="272.27272727272725" type="line"/>
      <point x="224.0" y="475.1136363636364" type="line"/>
      <point x="203.22727272727272" y="494.0" type="line"/>
      <point x="42.88636363636363" y="494.0" type="line"/>
      <point x="34.34090909090909" y="421.6136363636364" type="line"/>
      <point x="167.38636363636363" y="400.84090909090907" type="line"/>
      <point x="101.68181818181819" y="463.6818181818182" type="line"/>
      <point x="105.68181818181819" y="439.1363636363636"/>
      <point x="119.45454545454545" y="357.95454545454544"/>
      <point x="119.45454545454545" y="328.52272727272725" type="curve" smooth="yes"/>
      <point x="119.45454545454545" y="159.70454545454544" type="line"/>
      <point x="119.45454545454545" y="130.27272727272728"/>
      <point x="108.22727272727273" y="56.40909090909091"/>
      <point x="103.45454545454545" y="29.0" type="curve"/>
      <point x="169.1590909090909" y="85.5" type="line"/>
      <point x="42.97727272727273" y="62.5" type="line"/>
    </contour>
    <contour>
      <point x="358.40909090909093" y="-5.0" type="line"/>
      <point x="397.6136363636364" y="-3.0"/>
      <point x="466.1363636363636" y="0.0"/>
      <point x="476.1363636363636" y="0.0" type="curve"/>
      <point x="619.2045454545455" y="0.0" type="line"/>
      <point x="624.4318181818181" y="68.8409090909091" type="line"/>
      <point x="498.1363636363636" y="80.61363636363636" type="line"/>
      <point x="560.7272727272727" y="46.20454545454545" type="line"/>
      <point x="558.6136363636364" y="60.54545454545455"/>
      <point x="548.9545454545455" y="139.70454545454544"/>
      <point x="548.9545454545455" y="189.70454545454544" type="curve" smooth="yes"/>
      <point x="548.9545454545455" y="324.1818181818182" type="line" smooth="yes"/>
      <point x="548.9545454545455" y="442.90909090909093"/>
      <point x="497.3636363636364" y="508.20454545454544"/>
      <point x="390.52272727272725" y="508.20454545454544" type="curve" smooth="yes"/>
      <point x="303.22727272727275" y="508.20454545454544"/>
      <point x="248.4090909090909" y="445.47727272727275"/>
      <point x="208.45454545454544" y="362.90909090909093" type="curve"/>
      <point x="252.1818181818182" y="266.1363636363636" type="line"/>
      <point x="252.29545454545456" y="357.15909090909093"/>
      <point x="297.6363636363636" y="413.09090909090907"/>
      <point x="347.27272727272725" y="413.09090909090907" type="curve" smooth="yes"/>
      <point x="397.79545454545456" y="413.09090909090907"/>
      <point x="416.34090909090907" y="367.8636363636364"/>
      <point x="416.34090909090907" y="311.8863636363636" type="curve" smooth="yes"/>
      <point x="416.34090909090907" y="159.70454545454544" type="line" smooth="yes"/>
      <point x="416.34090909090907" y="147.88636363636363"/>
      <point x="411.77272727272725" y="79.93181818181819"/>
      <point x="408.54545454545456" y="45.63636363636364" type="curve"/>
      <point x="469.3636363636364" y="87.38636363636364" type="line"/>
      <point x="353.40909090909093" y="62.5" type="line"/>
    </contour>
  </outline>
</glyph>
<glyph name="n" format="2">
  <advance width="661.5"/>
  <unicode hex="006E"/>
  <anchor x="331.3636363636364" y="0.0" name="bottom"/>
  <anchor x="340.4318181818182" y="494.0" name="top"/>
  <anchor x="-4.090909090909091" y="537.0" name="topleft"/>
  <outline>
    <contour>
      <point x="47.97727272727273" y="-5.0" type="line"/>
      <point x="87.63636363636364" y="-3.0"/>
      <point x="155.5909090909091" y="0.0"/>
      <point x="166.8409090909091" y="0.0" type="curve"/>
      <point x="322.20454545454544" y="0.0" type="line"/>
      <point x="327.4318181818182" y="68.8409090909091" type="line"/>
      <point x="201.13636363636363" y="80.61363636363636" type="line"/>
      <point x="266.5" y="33.86363636363636" type="line"/>
      <point x="261.6136363636364" y="64.95454545454545"/>
      <point x="252.1818181818182" y="123.52272727272728"/>
      <point x="252.1818181818182" y="189.70454545454544" type="curve" smooth="yes"/>
      <point x="252.1818181818182" y="266.1363636363636" type="line" smooth="yes"/>
      <point x="252.1818181818182" y="357.15909090909093"/>
      <point x="301.1818181818182" y="413.09090909090907"/>
      <point x="354.70454545454544" y="413.09090909090907" type="curve" smooth="yes"/>
      <point x="410.79545454545456" y="413.09090909090907"/>
      <point x="432.34090909090907" y="367.8636363636364"/>
      <point x="432.34090909090907" y="311.8863636363636" type="curve" smooth="yes"/>
      <point x="432.34090909090907" y="159.70454545454544" type="line" smooth="yes"/>
      <point x="432.34090909090907" y="142.54545454545456"/>
      <point x="426.8863636363636" y="66.6590909090909"/>
      <point x="422.65909090909093" y="32.47727272727273" type="curve"/>
      <point x="485.3636363636364" y="87.38636363636364" type="line"/>
      <point x="369.40909090909093" y="62.5" type="line"/>
      <point x="374.40909090909093" y="-5.0" type="line"/>
      <point x="413.6136363636364" y="-3.0"/>
      <point x="473.3863636363636" y="0.0"/>
      <point x="492.1363636363636" y="0.0" type="curve"/>
      <point x="635.2045454545455" y="0.0" type="line"/>
      <point x="640.4318181818181" y="68.8409090909091" type="line"/>
      <point x="514.1363636363636" y="80.61363636363636" type="line"/>
      <point x="579.3863636363636" y="35.88636363636363" type="line"/>
      <point x="575.3863636363636" y="62.77272727272727"/>
      <point x="564.9545454545455" y="123.86363636363636"/>
      <point x="564.9545454545455" y="189.70454545454544" type="curve" smooth="yes"/>
      <point x="564.9545454545455" y="324.1818181818182" type="line" smooth="yes"/>
      <point x="564.9545454545455" y="442.90909090909093"/>
      <point x="510.3636363636364" y="508.20454545454544"/>
      <point x="397.72727272727275" y="508.20454545454544" type="curve" smooth="yes"/>
      <point x="306.6590909090909" y="508.20454545454544"/>
      <point x="251.20454545454544" y="445.70454545454544"/>
      <point x="208.9090909090909" y="364.5" type="curve"/>
      <point x="248.63636363636363" y="297.6363636363636" type="line"/>
      <point x="224.0" y="475.1136363636364" type="line"/>
      <point x="203.22727272727272" y="494.0" type="line"/>
      <point x="42.88636363636363" y="494.0" type="line"/>
      <point x="34.34090909090909" y="421.6136363636364" type="line"/>
      <point x="167.38636363636363" y="400.84090909090907" type="line"/>
      <point x="101.68181818181819" y="463.6818181818182" type="line"/>
      <point x="105.68181818181819" y="439.1363636363636"/>
      <point x="119.45454545454545" y="357.95454545454544"/>
      <point x="119.45454545454545" y="328.52272727272725" type="curve" smooth="yes"/>
      <point x="119.45454545454545" y="159.70454545454544" type="line" smooth="yes"/>
      <point x="119.45454545454545" y="130.27272727272728"/>
      <point x="108.22727272727273" y="56.40909090909091"/>
      <point x="103.45454545454545" y="29.0" type="curve"/>
      <point x="169.1590909090909" y="85.5" type="line"/>
      <point x="42.97727272727273" y="62.5" type="line"/>
    </contour>
  </outline>
</glyph>
